solid JSCAD
facet normal -1 0 0
outer loop
vertex -25.000033333333334 0 4.523866666666667
vertex -25.000033333333334 -7.500033333333334 0
vertex -25.000033333333334 -7.500033333333334 5.000100000000001
endloop
endfacet
facet normal -1 0 0
outer loop
vertex -25.000033333333334 0 4.523866666666667
vertex -25.000033333333334 -7.500033333333334 5.000100000000001
vertex -25.000033333333334 -5.000100000000001 5.000100000000001
endloop
endfacet
facet normal -1 0 0
outer loop
vertex -25.000033333333334 0 4.523866666666667
vertex -25.000033333333334 -5.000100000000001 5.000100000000001
vertex -25.000033333333334 -4.903966666666667 5.000100000000001
endloop
endfacet
facet normal -1 0 0
outer loop
vertex -25.000033333333334 0 4.523866666666667
vertex -25.000033333333334 -4.903966666666667 5.000100000000001
vertex -25.000033333333334 -4.619300000000001 5.000100000000001
endloop
endfacet
facet normal -1 0 0
outer loop
vertex -25.000033333333334 0 4.523866666666667
vertex -25.000033333333334 -4.619300000000001 5.000100000000001
vertex -25.000033333333334 -4.1573 5.000100000000001
endloop
endfacet
facet normal -1 0 0
outer loop
vertex -25.000033333333334 0 4.523866666666667
vertex -25.000033333333334 -4.1573 5.000100000000001
vertex -25.000033333333334 -3.535466666666667 5.000100000000001
endloop
endfacet
facet normal -1 0 0
outer loop
vertex -25.000033333333334 0 4.523866666666667
vertex -25.000033333333334 -3.535466666666667 5.000100000000001
vertex -25.000033333333334 -2.7778333333333336 5.000100000000001
endloop
endfacet
facet normal -1 0 0
outer loop
vertex -25.000033333333334 0 4.523866666666667
vertex -25.000033333333334 -2.7778333333333336 5.000100000000001
vertex -25.000033333333334 -1.9133333333333336 5.000100000000001
endloop
endfacet
facet normal -1 0 0
outer loop
vertex -25.000033333333334 0 4.523866666666667
vertex -25.000033333333334 -1.9133333333333336 5.000100000000001
vertex -25.000033333333334 -0.9755666666666668 5.000100000000001
endloop
endfacet
facet normal -1 0 0
outer loop
vertex -25.000033333333334 0 4.523866666666667
vertex -25.000033333333334 -0.9755666666666668 5.000100000000001
vertex -25.000033333333334 0 5.000100000000001
endloop
endfacet
facet normal -1 0 0
outer loop
vertex -25.000033333333334 0 4.523866666666667
vertex -25.000033333333334 0 5.000100000000001
vertex -25.000033333333334 0.9755666666666668 5.000100000000001
endloop
endfacet
facet normal -1 0 0
outer loop
vertex -25.000033333333334 0 4.523866666666667
vertex -25.000033333333334 0.9755666666666668 5.000100000000001
vertex -25.000033333333334 1.9133333333333336 5.000100000000001
endloop
endfacet
facet normal -1 0 0
outer loop
vertex -25.000033333333334 0 4.523866666666667
vertex -25.000033333333334 1.9133333333333336 5.000100000000001
vertex -25.000033333333334 2.7778333333333336 5.000100000000001
endloop
endfacet
facet normal -1 0 0
outer loop
vertex -25.000033333333334 0 4.523866666666667
vertex -25.000033333333334 2.7778333333333336 5.000100000000001
vertex -25.000033333333334 3.535466666666667 5.000100000000001
endloop
endfacet
facet normal -1 0 0
outer loop
vertex -25.000033333333334 0 4.523866666666667
vertex -25.000033333333334 3.535466666666667 5.000100000000001
vertex -25.000033333333334 4.1573 5.000100000000001
endloop
endfacet
facet normal -1 0 0
outer loop
vertex -25.000033333333334 0 4.523866666666667
vertex -25.000033333333334 4.1573 5.000100000000001
vertex -25.000033333333334 4.619300000000001 5.000100000000001
endloop
endfacet
facet normal -1 0 0
outer loop
vertex -25.000033333333334 0 4.523866666666667
vertex -25.000033333333334 4.619300000000001 5.000100000000001
vertex -25.000033333333334 4.903966666666667 5.000100000000001
endloop
endfacet
facet normal -1 0 0
outer loop
vertex -25.000033333333334 0 4.523866666666667
vertex -25.000033333333334 4.903966666666667 5.000100000000001
vertex -25.000033333333334 5.000100000000001 5.000100000000001
endloop
endfacet
facet normal -1 0 0
outer loop
vertex -25.000033333333334 0 4.523866666666667
vertex -25.000033333333334 5.000100000000001 5.000100000000001
vertex -25.000033333333334 7.500033333333334 5.000100000000001
endloop
endfacet
facet normal -1 0 0
outer loop
vertex -25.000033333333334 0 4.523866666666667
vertex -25.000033333333334 7.500033333333334 5.000100000000001
vertex -25.000033333333334 7.500033333333334 0
endloop
endfacet
facet normal -1 0 0
outer loop
vertex -25.000033333333334 0 4.523866666666667
vertex -25.000033333333334 7.500033333333334 0
vertex -25.000033333333334 -7.500033333333334 0
endloop
endfacet
facet normal 1 0 0
outer loop
vertex 25.000033333333334 0 4.523866666666667
vertex 25.000033333333334 -7.500033333333334 0
vertex 25.000033333333334 7.500033333333334 0
endloop
endfacet
facet normal 1 0 0
outer loop
vertex 25.000033333333334 0 4.523866666666667
vertex 25.000033333333334 7.500033333333334 0
vertex 25.000033333333334 7.500033333333334 5.000100000000001
endloop
endfacet
facet normal 1 0 0
outer loop
vertex 25.000033333333334 0 4.523866666666667
vertex 25.000033333333334 7.500033333333334 5.000100000000001
vertex 25.000033333333334 5.000100000000001 5.000100000000001
endloop
endfacet
facet normal 1 0 0
outer loop
vertex 25.000033333333334 0 4.523866666666667
vertex 25.000033333333334 5.000100000000001 5.000100000000001
vertex 25.000033333333334 4.903966666666667 5.000100000000001
endloop
endfacet
facet normal 1 0 0
outer loop
vertex 25.000033333333334 0 4.523866666666667
vertex 25.000033333333334 4.903966666666667 5.000100000000001
vertex 25.000033333333334 4.619300000000001 5.000100000000001
endloop
endfacet
facet normal 1 0 0
outer loop
vertex 25.000033333333334 0 4.523866666666667
vertex 25.000033333333334 4.619300000000001 5.000100000000001
vertex 25.000033333333334 4.1573 5.000100000000001
endloop
endfacet
facet normal 1 0 0
outer loop
vertex 25.000033333333334 0 4.523866666666667
vertex 25.000033333333334 4.1573 5.000100000000001
vertex 25.000033333333334 3.535466666666667 5.000100000000001
endloop
endfacet
facet normal 1 0 0
outer loop
vertex 25.000033333333334 0 4.523866666666667
vertex 25.000033333333334 3.535466666666667 5.000100000000001
vertex 25.000033333333334 2.7778333333333336 5.000100000000001
endloop
endfacet
facet normal 1 0 0
outer loop
vertex 25.000033333333334 0 4.523866666666667
vertex 25.000033333333334 2.7778333333333336 5.000100000000001
vertex 25.000033333333334 1.9133333333333336 5.000100000000001
endloop
endfacet
facet normal 1 0 0
outer loop
vertex 25.000033333333334 0 4.523866666666667
vertex 25.000033333333334 1.9133333333333336 5.000100000000001
vertex 25.000033333333334 0.9755666666666668 5.000100000000001
endloop
endfacet
facet normal 1 0 0
outer loop
vertex 25.000033333333334 0 4.523866666666667
vertex 25.000033333333334 0.9755666666666668 5.000100000000001
vertex 25.000033333333334 0 5.000100000000001
endloop
endfacet
facet normal 1 0 0
outer loop
vertex 25.000033333333334 0 4.523866666666667
vertex 25.000033333333334 0 5.000100000000001
vertex 25.000033333333334 -0.9755666666666668 5.000100000000001
endloop
endfacet
facet normal 1 0 0
outer loop
vertex 25.000033333333334 0 4.523866666666667
vertex 25.000033333333334 -0.9755666666666668 5.000100000000001
vertex 25.000033333333334 -1.9133333333333336 5.000100000000001
endloop
endfacet
facet normal 1 0 0
outer loop
vertex 25.000033333333334 0 4.523866666666667
vertex 25.000033333333334 -1.9133333333333336 5.000100000000001
vertex 25.000033333333334 -2.7778333333333336 5.000100000000001
endloop
endfacet
facet normal 1 0 0
outer loop
vertex 25.000033333333334 0 4.523866666666667
vertex 25.000033333333334 -2.7778333333333336 5.000100000000001
vertex 25.000033333333334 -3.535466666666667 5.000100000000001
endloop
endfacet
facet normal 1 0 0
outer loop
vertex 25.000033333333334 0 4.523866666666667
vertex 25.000033333333334 -3.535466666666667 5.000100000000001
vertex 25.000033333333334 -4.1573 5.000100000000001
endloop
endfacet
facet normal 1 0 0
outer loop
vertex 25.000033333333334 0 4.523866666666667
vertex 25.000033333333334 -4.1573 5.000100000000001
vertex 25.000033333333334 -4.619300000000001 5.000100000000001
endloop
endfacet
facet normal 1 0 0
outer loop
vertex 25.000033333333334 0 4.523866666666667
vertex 25.000033333333334 -4.619300000000001 5.000100000000001
vertex 25.000033333333334 -4.903966666666667 5.000100000000001
endloop
endfacet
facet normal 1 0 0
outer loop
vertex 25.000033333333334 0 4.523866666666667
vertex 25.000033333333334 -4.903966666666667 5.000100000000001
vertex 25.000033333333334 -5.000100000000001 5.000100000000001
endloop
endfacet
facet normal 1 0 0
outer loop
vertex 25.000033333333334 0 4.523866666666667
vertex 25.000033333333334 -5.000100000000001 5.000100000000001
vertex 25.000033333333334 -7.500033333333334 5.000100000000001
endloop
endfacet
facet normal 1 0 0
outer loop
vertex 25.000033333333334 0 4.523866666666667
vertex 25.000033333333334 -7.500033333333334 5.000100000000001
vertex 25.000033333333334 -7.500033333333334 0
endloop
endfacet
facet normal 0 -1 0
outer loop
vertex -25.000033333333334 -7.500033333333334 0
vertex 25.000033333333334 -7.500033333333334 0
vertex 25.000033333333334 -7.500033333333334 5.000100000000001
endloop
endfacet
facet normal 0 -1 0
outer loop
vertex -25.000033333333334 -7.500033333333334 0
vertex 25.000033333333334 -7.500033333333334 5.000100000000001
vertex -25.000033333333334 -7.500033333333334 5.000100000000001
endloop
endfacet
facet normal 0 1 0
outer loop
vertex -25.000033333333334 7.500033333333334 0
vertex -25.000033333333334 7.500033333333334 5.000100000000001
vertex 25.000033333333334 7.500033333333334 5.000100000000001
endloop
endfacet
facet normal 0 1 0
outer loop
vertex -25.000033333333334 7.500033333333334 0
vertex 25.000033333333334 7.500033333333334 5.000100000000001
vertex 25.000033333333334 7.500033333333334 0
endloop
endfacet
facet normal 0 0 -0.9999999999999999
outer loop
vertex -25.000033333333334 -7.500033333333334 0
vertex -25.000033333333334 7.500033333333334 0
vertex 25.000033333333334 7.500033333333334 0
endloop
endfacet
facet normal 0 0 -0.9999999999999999
outer loop
vertex -25.000033333333334 -7.500033333333334 0
vertex 25.000033333333334 7.500033333333334 0
vertex 25.000033333333334 -7.500033333333334 0
endloop
endfacet
facet normal 0 0 1
outer loop
vertex 0 0 2.999966666666667
vertex -0.9755666666666668 4.903966666666667 2.999966666666667
vertex -1.9133333333333336 4.619300000000001 2.999966666666667
endloop
endfacet
facet normal 0 0 1
outer loop
vertex 0 0 2.999966666666667
vertex -1.9133333333333336 4.619300000000001 2.999966666666667
vertex -2.7778333333333336 4.1573 2.999966666666667
endloop
endfacet
facet normal 0 0 0.9999999999999999
outer loop
vertex 0 0 2.999966666666667
vertex -2.7778333333333336 4.1573 2.999966666666667
vertex -3.535466666666667 3.535466666666667 2.999966666666667
endloop
endfacet
facet normal 0 0 0.9999999999999999
outer loop
vertex 0 0 2.999966666666667
vertex -3.535466666666667 3.535466666666667 2.999966666666667
vertex -4.1573 2.7778333333333336 2.999966666666667
endloop
endfacet
facet normal 0 0 1
outer loop
vertex 0 0 2.999966666666667
vertex -4.1573 2.7778333333333336 2.999966666666667
vertex -4.619300000000001 1.9133333333333336 2.999966666666667
endloop
endfacet
facet normal 0 0 1
outer loop
vertex 0 0 2.999966666666667
vertex -4.619300000000001 1.9133333333333336 2.999966666666667
vertex -4.903966666666667 0.9755666666666668 2.999966666666667
endloop
endfacet
facet normal 0 0 1
outer loop
vertex 0 0 2.999966666666667
vertex -4.903966666666667 0.9755666666666668 2.999966666666667
vertex -5.000100000000001 0 2.999966666666667
endloop
endfacet
facet normal 0 0 1
outer loop
vertex 0 0 2.999966666666667
vertex -5.000100000000001 0 2.999966666666667
vertex -4.903966666666667 -0.9755666666666668 2.999966666666667
endloop
endfacet
facet normal 0 0 1
outer loop
vertex 0 0 2.999966666666667
vertex -4.903966666666667 -0.9755666666666668 2.999966666666667
vertex -4.619300000000001 -1.9133333333333336 2.999966666666667
endloop
endfacet
facet normal 0 0 1
outer loop
vertex 0 0 2.999966666666667
vertex -4.619300000000001 -1.9133333333333336 2.999966666666667
vertex -4.1573 -2.7778333333333336 2.999966666666667
endloop
endfacet
facet normal 0 0 0.9999999999999999
outer loop
vertex 0 0 2.999966666666667
vertex -4.1573 -2.7778333333333336 2.999966666666667
vertex -3.535466666666667 -3.535466666666667 2.999966666666667
endloop
endfacet
facet normal 0 0 0.9999999999999999
outer loop
vertex 0 0 2.999966666666667
vertex -3.535466666666667 -3.535466666666667 2.999966666666667
vertex -2.7778333333333336 -4.1573 2.999966666666667
endloop
endfacet
facet normal 0 0 1
outer loop
vertex 0 0 2.999966666666667
vertex -2.7778333333333336 -4.1573 2.999966666666667
vertex -1.9133333333333336 -4.619300000000001 2.999966666666667
endloop
endfacet
facet normal 0 0 1
outer loop
vertex 0 0 2.999966666666667
vertex -1.9133333333333336 -4.619300000000001 2.999966666666667
vertex -0.9755666666666668 -4.903966666666667 2.999966666666667
endloop
endfacet
facet normal 0 0 1
outer loop
vertex 0 0 2.999966666666667
vertex -0.9755666666666668 -4.903966666666667 2.999966666666667
vertex 0 -5.000100000000001 2.999966666666667
endloop
endfacet
facet normal 0 0 1
outer loop
vertex 0 0 2.999966666666667
vertex 0 -5.000100000000001 2.999966666666667
vertex 0.9755666666666668 -4.903966666666667 2.999966666666667
endloop
endfacet
facet normal 0 0 1
outer loop
vertex 0 0 2.999966666666667
vertex 0.9755666666666668 -4.903966666666667 2.999966666666667
vertex 1.9133333333333336 -4.619300000000001 2.999966666666667
endloop
endfacet
facet normal 0 0 1
outer loop
vertex 0 0 2.999966666666667
vertex 1.9133333333333336 -4.619300000000001 2.999966666666667
vertex 2.7778333333333336 -4.1573 2.999966666666667
endloop
endfacet
facet normal 0 0 0.9999999999999999
outer loop
vertex 0 0 2.999966666666667
vertex 2.7778333333333336 -4.1573 2.999966666666667
vertex 3.535466666666667 -3.535466666666667 2.999966666666667
endloop
endfacet
facet normal 0 0 0.9999999999999999
outer loop
vertex 0 0 2.999966666666667
vertex 3.535466666666667 -3.535466666666667 2.999966666666667
vertex 4.1573 -2.7778333333333336 2.999966666666667
endloop
endfacet
facet normal 0 0 1
outer loop
vertex 0 0 2.999966666666667
vertex 4.1573 -2.7778333333333336 2.999966666666667
vertex 4.619300000000001 -1.9133333333333336 2.999966666666667
endloop
endfacet
facet normal 0 0 1
outer loop
vertex 0 0 2.999966666666667
vertex 4.619300000000001 -1.9133333333333336 2.999966666666667
vertex 4.903966666666667 -0.9755666666666668 2.999966666666667
endloop
endfacet
facet normal 0 0 1
outer loop
vertex 0 0 2.999966666666667
vertex 4.903966666666667 -0.9755666666666668 2.999966666666667
vertex 5.000100000000001 0 2.999966666666667
endloop
endfacet
facet normal 0 0 1
outer loop
vertex 0 0 2.999966666666667
vertex 5.000100000000001 0 2.999966666666667
vertex 4.903966666666667 0.9755666666666668 2.999966666666667
endloop
endfacet
facet normal 0 0 1
outer loop
vertex 0 0 2.999966666666667
vertex 4.903966666666667 0.9755666666666668 2.999966666666667
vertex 4.619300000000001 1.9133333333333336 2.999966666666667
endloop
endfacet
facet normal 0 0 1
outer loop
vertex 0 0 2.999966666666667
vertex 4.619300000000001 1.9133333333333336 2.999966666666667
vertex 4.1573 2.7778333333333336 2.999966666666667
endloop
endfacet
facet normal 0 0 0.9999999999999999
outer loop
vertex 0 0 2.999966666666667
vertex 4.1573 2.7778333333333336 2.999966666666667
vertex 3.535466666666667 3.535466666666667 2.999966666666667
endloop
endfacet
facet normal 0 0 0.9999999999999999
outer loop
vertex 0 0 2.999966666666667
vertex 3.535466666666667 3.535466666666667 2.999966666666667
vertex 2.7778333333333336 4.1573 2.999966666666667
endloop
endfacet
facet normal 0 0 1
outer loop
vertex 0 0 2.999966666666667
vertex 2.7778333333333336 4.1573 2.999966666666667
vertex 1.9133333333333336 4.619300000000001 2.999966666666667
endloop
endfacet
facet normal 0 0 1
outer loop
vertex 0 0 2.999966666666667
vertex 1.9133333333333336 4.619300000000001 2.999966666666667
vertex 0.9755666666666668 4.903966666666667 2.999966666666667
endloop
endfacet
facet normal 0 0 1
outer loop
vertex 0 0 2.999966666666667
vertex 0.9755666666666668 4.903966666666667 2.999966666666667
vertex 0 5.000100000000001 2.999966666666667
endloop
endfacet
facet normal 0 0 1
outer loop
vertex 0 0 2.999966666666667
vertex 0 5.000100000000001 2.999966666666667
vertex -0.9755666666666668 4.903966666666667 2.999966666666667
endloop
endfacet
facet normal -0.9951799090431436 -0.09806604222094605 0
outer loop
vertex 5.000100000000001 0 2.999966666666667
vertex 5.000100000000001 0 5.000100000000001
vertex 4.903966666666667 0.9755666666666668 5.000100000000001
endloop
endfacet
facet normal -0.9951799090431436 -0.09806604222094605 0
outer loop
vertex 5.000100000000001 0 2.999966666666667
vertex 4.903966666666667 0.9755666666666668 5.000100000000001
vertex 4.903966666666667 0.9755666666666668 2.999966666666667
endloop
endfacet
facet normal -0.9568841218547827 -0.2904699250218546 0
outer loop
vertex 4.903966666666667 0.9755666666666668 2.999966666666667
vertex 4.903966666666667 0.9755666666666668 5.000100000000001
vertex 4.619300000000001 1.9133333333333336 5.000100000000001
endloop
endfacet
facet normal -0.9568841218547827 -0.2904699250218546 0
outer loop
vertex 4.903966666666667 0.9755666666666668 2.999966666666667
vertex 4.619300000000001 1.9133333333333336 5.000100000000001
vertex 4.619300000000001 1.9133333333333336 2.999966666666667
endloop
endfacet
facet normal -0.8819572606659289 -0.47132938626681287 0
outer loop
vertex 4.619300000000001 1.9133333333333336 2.999966666666667
vertex 4.619300000000001 1.9133333333333336 5.000100000000001
vertex 4.1573 2.7778333333333336 5.000100000000001
endloop
endfacet
facet normal -0.8819572606659289 -0.47132938626681287 0
outer loop
vertex 4.619300000000001 1.9133333333333336 2.999966666666667
vertex 4.1573 2.7778333333333336 5.000100000000001
vertex 4.1573 2.7778333333333336 2.999966666666667
endloop
endfacet
facet normal -0.7729805702879399 -0.6344296950469227 0
outer loop
vertex 4.1573 2.7778333333333336 2.999966666666667
vertex 4.1573 2.7778333333333336 5.000100000000001
vertex 3.535466666666667 3.535466666666667 5.000100000000001
endloop
endfacet
facet normal -0.7729805702879399 -0.6344296950469227 0
outer loop
vertex 4.1573 2.7778333333333336 2.999966666666667
vertex 3.535466666666667 3.535466666666667 5.000100000000001
vertex 3.535466666666667 3.535466666666667 2.999966666666667
endloop
endfacet
facet normal -0.6344296950469227 -0.7729805702879399 0
outer loop
vertex 3.535466666666667 3.535466666666667 2.999966666666667
vertex 3.535466666666667 3.535466666666667 5.000100000000001
vertex 2.7778333333333336 4.1573 5.000100000000001
endloop
endfacet
facet normal -0.6344296950469227 -0.7729805702879399 0
outer loop
vertex 3.535466666666667 3.535466666666667 2.999966666666667
vertex 2.7778333333333336 4.1573 5.000100000000001
vertex 2.7778333333333336 4.1573 2.999966666666667
endloop
endfacet
facet normal -0.47132938626681287 -0.8819572606659289 0
outer loop
vertex 2.7778333333333336 4.1573 2.999966666666667
vertex 2.7778333333333336 4.1573 5.000100000000001
vertex 1.9133333333333336 4.619300000000001 5.000100000000001
endloop
endfacet
facet normal -0.47132938626681287 -0.8819572606659289 0
outer loop
vertex 2.7778333333333336 4.1573 2.999966666666667
vertex 1.9133333333333336 4.619300000000001 5.000100000000001
vertex 1.9133333333333336 4.619300000000001 2.999966666666667
endloop
endfacet
facet normal -0.2904699250218546 -0.9568841218547827 0
outer loop
vertex 1.9133333333333336 4.619300000000001 2.999966666666667
vertex 1.9133333333333336 4.619300000000001 5.000100000000001
vertex 0.9755666666666668 4.903966666666667 5.000100000000001
endloop
endfacet
facet normal -0.2904699250218546 -0.9568841218547827 0
outer loop
vertex 1.9133333333333336 4.619300000000001 2.999966666666667
vertex 0.9755666666666668 4.903966666666667 5.000100000000001
vertex 0.9755666666666668 4.903966666666667 2.999966666666667
endloop
endfacet
facet normal -0.09806604222094605 -0.9951799090431436 0
outer loop
vertex 0.9755666666666668 4.903966666666667 2.999966666666667
vertex 0.9755666666666668 4.903966666666667 5.000100000000001
vertex 0 5.000100000000001 5.000100000000001
endloop
endfacet
facet normal -0.09806604222094605 -0.9951799090431436 0
outer loop
vertex 0.9755666666666668 4.903966666666667 2.999966666666667
vertex 0 5.000100000000001 5.000100000000001
vertex 0 5.000100000000001 2.999966666666667
endloop
endfacet
facet normal 0.09806604222094605 -0.9951799090431436 0
outer loop
vertex 0 5.000100000000001 2.999966666666667
vertex 0 5.000100000000001 5.000100000000001
vertex -0.9755666666666668 4.903966666666667 5.000100000000001
endloop
endfacet
facet normal 0.09806604222094605 -0.9951799090431436 0
outer loop
vertex 0 5.000100000000001 2.999966666666667
vertex -0.9755666666666668 4.903966666666667 5.000100000000001
vertex -0.9755666666666668 4.903966666666667 2.999966666666667
endloop
endfacet
facet normal 0.2904699250218546 -0.9568841218547827 0
outer loop
vertex -0.9755666666666668 4.903966666666667 2.999966666666667
vertex -0.9755666666666668 4.903966666666667 5.000100000000001
vertex -1.9133333333333336 4.619300000000001 5.000100000000001
endloop
endfacet
facet normal 0.2904699250218546 -0.9568841218547827 0
outer loop
vertex -0.9755666666666668 4.903966666666667 2.999966666666667
vertex -1.9133333333333336 4.619300000000001 5.000100000000001
vertex -1.9133333333333336 4.619300000000001 2.999966666666667
endloop
endfacet
facet normal 0.47132938626681287 -0.8819572606659289 0
outer loop
vertex -1.9133333333333336 4.619300000000001 2.999966666666667
vertex -1.9133333333333336 4.619300000000001 5.000100000000001
vertex -2.7778333333333336 4.1573 5.000100000000001
endloop
endfacet
facet normal 0.47132938626681287 -0.8819572606659289 0
outer loop
vertex -1.9133333333333336 4.619300000000001 2.999966666666667
vertex -2.7778333333333336 4.1573 5.000100000000001
vertex -2.7778333333333336 4.1573 2.999966666666667
endloop
endfacet
facet normal 0.6344296950469227 -0.7729805702879399 0
outer loop
vertex -2.7778333333333336 4.1573 2.999966666666667
vertex -2.7778333333333336 4.1573 5.000100000000001
vertex -3.535466666666667 3.535466666666667 5.000100000000001
endloop
endfacet
facet normal 0.6344296950469227 -0.7729805702879399 0
outer loop
vertex -2.7778333333333336 4.1573 2.999966666666667
vertex -3.535466666666667 3.535466666666667 5.000100000000001
vertex -3.535466666666667 3.535466666666667 2.999966666666667
endloop
endfacet
facet normal 0.7729805702879399 -0.6344296950469227 0
outer loop
vertex -3.535466666666667 3.535466666666667 2.999966666666667
vertex -3.535466666666667 3.535466666666667 5.000100000000001
vertex -4.1573 2.7778333333333336 5.000100000000001
endloop
endfacet
facet normal 0.7729805702879399 -0.6344296950469227 0
outer loop
vertex -3.535466666666667 3.535466666666667 2.999966666666667
vertex -4.1573 2.7778333333333336 5.000100000000001
vertex -4.1573 2.7778333333333336 2.999966666666667
endloop
endfacet
facet normal 0.8819572606659289 -0.47132938626681287 0
outer loop
vertex -4.1573 2.7778333333333336 2.999966666666667
vertex -4.1573 2.7778333333333336 5.000100000000001
vertex -4.619300000000001 1.9133333333333336 5.000100000000001
endloop
endfacet
facet normal 0.8819572606659289 -0.47132938626681287 0
outer loop
vertex -4.1573 2.7778333333333336 2.999966666666667
vertex -4.619300000000001 1.9133333333333336 5.000100000000001
vertex -4.619300000000001 1.9133333333333336 2.999966666666667
endloop
endfacet
facet normal 0.9568841218547827 -0.2904699250218546 0
outer loop
vertex -4.619300000000001 1.9133333333333336 2.999966666666667
vertex -4.619300000000001 1.9133333333333336 5.000100000000001
vertex -4.903966666666667 0.9755666666666668 5.000100000000001
endloop
endfacet
facet normal 0.9568841218547827 -0.2904699250218546 0
outer loop
vertex -4.619300000000001 1.9133333333333336 2.999966666666667
vertex -4.903966666666667 0.9755666666666668 5.000100000000001
vertex -4.903966666666667 0.9755666666666668 2.999966666666667
endloop
endfacet
facet normal 0.9951799090431436 -0.09806604222094605 0
outer loop
vertex -4.903966666666667 0.9755666666666668 2.999966666666667
vertex -4.903966666666667 0.9755666666666668 5.000100000000001
vertex -5.000100000000001 0 5.000100000000001
endloop
endfacet
facet normal 0.9951799090431436 -0.09806604222094605 0
outer loop
vertex -4.903966666666667 0.9755666666666668 2.999966666666667
vertex -5.000100000000001 0 5.000100000000001
vertex -5.000100000000001 0 2.999966666666667
endloop
endfacet
facet normal 0.9951799090431436 0.09806604222094605 0
outer loop
vertex -5.000100000000001 0 2.999966666666667
vertex -5.000100000000001 0 5.000100000000001
vertex -4.903966666666667 -0.9755666666666668 5.000100000000001
endloop
endfacet
facet normal 0.9951799090431436 0.09806604222094605 0
outer loop
vertex -5.000100000000001 0 2.999966666666667
vertex -4.903966666666667 -0.9755666666666668 5.000100000000001
vertex -4.903966666666667 -0.9755666666666668 2.999966666666667
endloop
endfacet
facet normal 0.9568841218547827 0.2904699250218546 0
outer loop
vertex -4.903966666666667 -0.9755666666666668 2.999966666666667
vertex -4.903966666666667 -0.9755666666666668 5.000100000000001
vertex -4.619300000000001 -1.9133333333333336 5.000100000000001
endloop
endfacet
facet normal 0.9568841218547827 0.2904699250218546 0
outer loop
vertex -4.903966666666667 -0.9755666666666668 2.999966666666667
vertex -4.619300000000001 -1.9133333333333336 5.000100000000001
vertex -4.619300000000001 -1.9133333333333336 2.999966666666667
endloop
endfacet
facet normal 0.8819572606659289 0.47132938626681287 0
outer loop
vertex -4.619300000000001 -1.9133333333333336 2.999966666666667
vertex -4.619300000000001 -1.9133333333333336 5.000100000000001
vertex -4.1573 -2.7778333333333336 5.000100000000001
endloop
endfacet
facet normal 0.8819572606659289 0.47132938626681287 0
outer loop
vertex -4.619300000000001 -1.9133333333333336 2.999966666666667
vertex -4.1573 -2.7778333333333336 5.000100000000001
vertex -4.1573 -2.7778333333333336 2.999966666666667
endloop
endfacet
facet normal 0.7729805702879399 0.6344296950469227 0
outer loop
vertex -4.1573 -2.7778333333333336 2.999966666666667
vertex -4.1573 -2.7778333333333336 5.000100000000001
vertex -3.535466666666667 -3.535466666666667 5.000100000000001
endloop
endfacet
facet normal 0.7729805702879399 0.6344296950469227 0
outer loop
vertex -4.1573 -2.7778333333333336 2.999966666666667
vertex -3.535466666666667 -3.535466666666667 5.000100000000001
vertex -3.535466666666667 -3.535466666666667 2.999966666666667
endloop
endfacet
facet normal 0.6344296950469227 0.7729805702879399 0
outer loop
vertex -3.535466666666667 -3.535466666666667 2.999966666666667
vertex -3.535466666666667 -3.535466666666667 5.000100000000001
vertex -2.7778333333333336 -4.1573 5.000100000000001
endloop
endfacet
facet normal 0.6344296950469227 0.7729805702879399 0
outer loop
vertex -3.535466666666667 -3.535466666666667 2.999966666666667
vertex -2.7778333333333336 -4.1573 5.000100000000001
vertex -2.7778333333333336 -4.1573 2.999966666666667
endloop
endfacet
facet normal 0.47132938626681287 0.8819572606659289 0
outer loop
vertex -2.7778333333333336 -4.1573 2.999966666666667
vertex -2.7778333333333336 -4.1573 5.000100000000001
vertex -1.9133333333333336 -4.619300000000001 5.000100000000001
endloop
endfacet
facet normal 0.47132938626681287 0.8819572606659289 0
outer loop
vertex -2.7778333333333336 -4.1573 2.999966666666667
vertex -1.9133333333333336 -4.619300000000001 5.000100000000001
vertex -1.9133333333333336 -4.619300000000001 2.999966666666667
endloop
endfacet
facet normal 0.2904699250218546 0.9568841218547827 0
outer loop
vertex -1.9133333333333336 -4.619300000000001 2.999966666666667
vertex -1.9133333333333336 -4.619300000000001 5.000100000000001
vertex -0.9755666666666668 -4.903966666666667 5.000100000000001
endloop
endfacet
facet normal 0.2904699250218546 0.9568841218547827 0
outer loop
vertex -1.9133333333333336 -4.619300000000001 2.999966666666667
vertex -0.9755666666666668 -4.903966666666667 5.000100000000001
vertex -0.9755666666666668 -4.903966666666667 2.999966666666667
endloop
endfacet
facet normal 0.09806604222094605 0.9951799090431436 0
outer loop
vertex -0.9755666666666668 -4.903966666666667 2.999966666666667
vertex -0.9755666666666668 -4.903966666666667 5.000100000000001
vertex 0 -5.000100000000001 5.000100000000001
endloop
endfacet
facet normal 0.09806604222094605 0.9951799090431436 0
outer loop
vertex -0.9755666666666668 -4.903966666666667 2.999966666666667
vertex 0 -5.000100000000001 5.000100000000001
vertex 0 -5.000100000000001 2.999966666666667
endloop
endfacet
facet normal -0.09806604222094605 0.9951799090431436 0
outer loop
vertex 0 -5.000100000000001 2.999966666666667
vertex 0 -5.000100000000001 5.000100000000001
vertex 0.9755666666666668 -4.903966666666667 5.000100000000001
endloop
endfacet
facet normal -0.09806604222094605 0.9951799090431436 0
outer loop
vertex 0 -5.000100000000001 2.999966666666667
vertex 0.9755666666666668 -4.903966666666667 5.000100000000001
vertex 0.9755666666666668 -4.903966666666667 2.999966666666667
endloop
endfacet
facet normal -0.2904699250218546 0.9568841218547827 0
outer loop
vertex 0.9755666666666668 -4.903966666666667 2.999966666666667
vertex 0.9755666666666668 -4.903966666666667 5.000100000000001
vertex 1.9133333333333336 -4.619300000000001 5.000100000000001
endloop
endfacet
facet normal -0.2904699250218546 0.9568841218547827 0
outer loop
vertex 0.9755666666666668 -4.903966666666667 2.999966666666667
vertex 1.9133333333333336 -4.619300000000001 5.000100000000001
vertex 1.9133333333333336 -4.619300000000001 2.999966666666667
endloop
endfacet
facet normal -0.47132938626681287 0.8819572606659289 0
outer loop
vertex 1.9133333333333336 -4.619300000000001 2.999966666666667
vertex 1.9133333333333336 -4.619300000000001 5.000100000000001
vertex 2.7778333333333336 -4.1573 5.000100000000001
endloop
endfacet
facet normal -0.47132938626681287 0.8819572606659289 0
outer loop
vertex 1.9133333333333336 -4.619300000000001 2.999966666666667
vertex 2.7778333333333336 -4.1573 5.000100000000001
vertex 2.7778333333333336 -4.1573 2.999966666666667
endloop
endfacet
facet normal -0.6344296950469227 0.7729805702879399 0
outer loop
vertex 2.7778333333333336 -4.1573 2.999966666666667
vertex 2.7778333333333336 -4.1573 5.000100000000001
vertex 3.535466666666667 -3.535466666666667 5.000100000000001
endloop
endfacet
facet normal -0.6344296950469227 0.7729805702879399 0
outer loop
vertex 2.7778333333333336 -4.1573 2.999966666666667
vertex 3.535466666666667 -3.535466666666667 5.000100000000001
vertex 3.535466666666667 -3.535466666666667 2.999966666666667
endloop
endfacet
facet normal -0.7729805702879399 0.6344296950469227 0
outer loop
vertex 3.535466666666667 -3.535466666666667 2.999966666666667
vertex 3.535466666666667 -3.535466666666667 5.000100000000001
vertex 4.1573 -2.7778333333333336 5.000100000000001
endloop
endfacet
facet normal -0.7729805702879399 0.6344296950469227 0
outer loop
vertex 3.535466666666667 -3.535466666666667 2.999966666666667
vertex 4.1573 -2.7778333333333336 5.000100000000001
vertex 4.1573 -2.7778333333333336 2.999966666666667
endloop
endfacet
facet normal -0.8819572606659289 0.47132938626681287 0
outer loop
vertex 4.1573 -2.7778333333333336 2.999966666666667
vertex 4.1573 -2.7778333333333336 5.000100000000001
vertex 4.619300000000001 -1.9133333333333336 5.000100000000001
endloop
endfacet
facet normal -0.8819572606659289 0.47132938626681287 0
outer loop
vertex 4.1573 -2.7778333333333336 2.999966666666667
vertex 4.619300000000001 -1.9133333333333336 5.000100000000001
vertex 4.619300000000001 -1.9133333333333336 2.999966666666667
endloop
endfacet
facet normal -0.9568841218547827 0.2904699250218546 0
outer loop
vertex 4.619300000000001 -1.9133333333333336 2.999966666666667
vertex 4.619300000000001 -1.9133333333333336 5.000100000000001
vertex 4.903966666666667 -0.9755666666666668 5.000100000000001
endloop
endfacet
facet normal -0.9568841218547827 0.2904699250218546 0
outer loop
vertex 4.619300000000001 -1.9133333333333336 2.999966666666667
vertex 4.903966666666667 -0.9755666666666668 5.000100000000001
vertex 4.903966666666667 -0.9755666666666668 2.999966666666667
endloop
endfacet
facet normal -0.9951799090431436 0.09806604222094605 0
outer loop
vertex 4.903966666666667 -0.9755666666666668 2.999966666666667
vertex 4.903966666666667 -0.9755666666666668 5.000100000000001
vertex 5.000100000000001 0 5.000100000000001
endloop
endfacet
facet normal -0.9951799090431436 0.09806604222094605 0
outer loop
vertex 4.903966666666667 -0.9755666666666668 2.999966666666667
vertex 5.000100000000001 0 5.000100000000001
vertex 5.000100000000001 0 2.999966666666667
endloop
endfacet
facet normal 0 0 1
outer loop
vertex 0 6.000166666666667 5.000100000000001
vertex -25.000033333333334 7.500033333333334 5.000100000000001
vertex -25.000033333333334 5.000100000000001 5.000100000000001
endloop
endfacet
facet normal 0 0 1
outer loop
vertex 0 6.000166666666667 5.000100000000001
vertex -25.000033333333334 5.000100000000001 5.000100000000001
vertex 0 5.000100000000001 5.000100000000001
endloop
endfacet
facet normal 0 0 1
outer loop
vertex 0 6.000166666666667 5.000100000000001
vertex 0 5.000100000000001 5.000100000000001
vertex 25.000033333333334 5.000100000000001 5.000100000000001
endloop
endfacet
facet normal 0 0 1
outer loop
vertex 0 6.000166666666667 5.000100000000001
vertex 25.000033333333334 5.000100000000001 5.000100000000001
vertex 25.000033333333334 7.500033333333334 5.000100000000001
endloop
endfacet
facet normal 0 0 1
outer loop
vertex 0 6.000166666666667 5.000100000000001
vertex 25.000033333333334 7.500033333333334 5.000100000000001
vertex -25.000033333333334 7.500033333333334 5.000100000000001
endloop
endfacet
facet normal 0 0 1
outer loop
vertex 0 5.000100000000001 5.000100000000001
vertex 0.9755666666666668 4.903966666666667 5.000100000000001
vertex 25.000033333333334 4.903966666666667 5.000100000000001
endloop
endfacet
facet normal 0 0 1
outer loop
vertex 0 5.000100000000001 5.000100000000001
vertex 25.000033333333334 4.903966666666667 5.000100000000001
vertex 25.000033333333334 5.000100000000001 5.000100000000001
endloop
endfacet
facet normal 0 0 1
outer loop
vertex -25.000033333333334 5.000100000000001 5.000100000000001
vertex -25.000033333333334 4.903966666666667 5.000100000000001
vertex -0.9755666666666668 4.903966666666667 5.000100000000001
endloop
endfacet
facet normal 0 0 1
outer loop
vertex -25.000033333333334 5.000100000000001 5.000100000000001
vertex -0.9755666666666668 4.903966666666667 5.000100000000001
vertex 0 5.000100000000001 5.000100000000001
endloop
endfacet
facet normal 0 0 0.9999999999999999
outer loop
vertex 0.9755666666666668 4.903966666666667 5.000100000000001
vertex 1.9133333333333336 4.619300000000001 5.000100000000001
vertex 25.000033333333334 4.619300000000001 5.000100000000001
endloop
endfacet
facet normal 0 0 1
outer loop
vertex 0.9755666666666668 4.903966666666667 5.000100000000001
vertex 25.000033333333334 4.619300000000001 5.000100000000001
vertex 25.000033333333334 4.903966666666667 5.000100000000001
endloop
endfacet
facet normal 0 0 1
outer loop
vertex -25.000033333333334 4.903966666666667 5.000100000000001
vertex -25.000033333333334 4.619300000000001 5.000100000000001
vertex -1.9133333333333336 4.619300000000001 5.000100000000001
endloop
endfacet
facet normal 0 0 1
outer loop
vertex -25.000033333333334 4.903966666666667 5.000100000000001
vertex -1.9133333333333336 4.619300000000001 5.000100000000001
vertex -0.9755666666666668 4.903966666666667 5.000100000000001
endloop
endfacet
facet normal 0 0 1
outer loop
vertex 1.9133333333333336 4.619300000000001 5.000100000000001
vertex 2.7778333333333336 4.1573 5.000100000000001
vertex 25.000033333333334 4.1573 5.000100000000001
endloop
endfacet
facet normal 0 0 1
outer loop
vertex 1.9133333333333336 4.619300000000001 5.000100000000001
vertex 25.000033333333334 4.1573 5.000100000000001
vertex 25.000033333333334 4.619300000000001 5.000100000000001
endloop
endfacet
facet normal 0 0 1
outer loop
vertex -25.000033333333334 4.619300000000001 5.000100000000001
vertex -25.000033333333334 4.1573 5.000100000000001
vertex -2.7778333333333336 4.1573 5.000100000000001
endloop
endfacet
facet normal 0 0 1
outer loop
vertex -25.000033333333334 4.619300000000001 5.000100000000001
vertex -2.7778333333333336 4.1573 5.000100000000001
vertex -1.9133333333333336 4.619300000000001 5.000100000000001
endloop
endfacet
facet normal 0 0 1
outer loop
vertex 2.7778333333333336 4.1573 5.000100000000001
vertex 3.535466666666667 3.535466666666667 5.000100000000001
vertex 25.000033333333334 3.535466666666667 5.000100000000001
endloop
endfacet
facet normal 0 0 0.9999999999999999
outer loop
vertex 2.7778333333333336 4.1573 5.000100000000001
vertex 25.000033333333334 3.535466666666667 5.000100000000001
vertex 25.000033333333334 4.1573 5.000100000000001
endloop
endfacet
facet normal 0 0 1
outer loop
vertex -25.000033333333334 4.1573 5.000100000000001
vertex -25.000033333333334 3.535466666666667 5.000100000000001
vertex -3.535466666666667 3.535466666666667 5.000100000000001
endloop
endfacet
facet normal 0 0 0.9999999999999999
outer loop
vertex -25.000033333333334 4.1573 5.000100000000001
vertex -3.535466666666667 3.535466666666667 5.000100000000001
vertex -2.7778333333333336 4.1573 5.000100000000001
endloop
endfacet
facet normal 0 0 1
outer loop
vertex 3.535466666666667 3.535466666666667 5.000100000000001
vertex 4.1573 2.7778333333333336 5.000100000000001
vertex 25.000033333333334 2.7778333333333336 5.000100000000001
endloop
endfacet
facet normal 0 0 1
outer loop
vertex 3.535466666666667 3.535466666666667 5.000100000000001
vertex 25.000033333333334 2.7778333333333336 5.000100000000001
vertex 25.000033333333334 3.535466666666667 5.000100000000001
endloop
endfacet
facet normal 0 0 1
outer loop
vertex -25.000033333333334 3.535466666666667 5.000100000000001
vertex -25.000033333333334 2.7778333333333336 5.000100000000001
vertex -4.1573 2.7778333333333336 5.000100000000001
endloop
endfacet
facet normal 0 0 1
outer loop
vertex -25.000033333333334 3.535466666666667 5.000100000000001
vertex -4.1573 2.7778333333333336 5.000100000000001
vertex -3.535466666666667 3.535466666666667 5.000100000000001
endloop
endfacet
facet normal 0 0 1
outer loop
vertex 4.1573 2.7778333333333336 5.000100000000001
vertex 4.619300000000001 1.9133333333333336 5.000100000000001
vertex 25.000033333333334 1.9133333333333336 5.000100000000001
endloop
endfacet
facet normal 0 0 1
outer loop
vertex 4.1573 2.7778333333333336 5.000100000000001
vertex 25.000033333333334 1.9133333333333336 5.000100000000001
vertex 25.000033333333334 2.7778333333333336 5.000100000000001
endloop
endfacet
facet normal 0 0 1
outer loop
vertex -25.000033333333334 2.7778333333333336 5.000100000000001
vertex -25.000033333333334 1.9133333333333336 5.000100000000001
vertex -4.619300000000001 1.9133333333333336 5.000100000000001
endloop
endfacet
facet normal 0 0 1
outer loop
vertex -25.000033333333334 2.7778333333333336 5.000100000000001
vertex -4.619300000000001 1.9133333333333336 5.000100000000001
vertex -4.1573 2.7778333333333336 5.000100000000001
endloop
endfacet
facet normal 0 0 1
outer loop
vertex 4.619300000000001 1.9133333333333336 5.000100000000001
vertex 4.903966666666667 0.9755666666666668 5.000100000000001
vertex 25.000033333333334 0.9755666666666668 5.000100000000001
endloop
endfacet
facet normal 0 0 1
outer loop
vertex 4.619300000000001 1.9133333333333336 5.000100000000001
vertex 25.000033333333334 0.9755666666666668 5.000100000000001
vertex 25.000033333333334 1.9133333333333336 5.000100000000001
endloop
endfacet
facet normal 0 0 1
outer loop
vertex -25.000033333333334 1.9133333333333336 5.000100000000001
vertex -25.000033333333334 0.9755666666666668 5.000100000000001
vertex -4.903966666666667 0.9755666666666668 5.000100000000001
endloop
endfacet
facet normal 0 0 1
outer loop
vertex -25.000033333333334 1.9133333333333336 5.000100000000001
vertex -4.903966666666667 0.9755666666666668 5.000100000000001
vertex -4.619300000000001 1.9133333333333336 5.000100000000001
endloop
endfacet
facet normal 0 0 1
outer loop
vertex 4.903966666666667 0.9755666666666668 5.000100000000001
vertex 5.000100000000001 0 5.000100000000001
vertex 25.000033333333334 0 5.000100000000001
endloop
endfacet
facet normal 0 0 1
outer loop
vertex 4.903966666666667 0.9755666666666668 5.000100000000001
vertex 25.000033333333334 0 5.000100000000001
vertex 25.000033333333334 0.9755666666666668 5.000100000000001
endloop
endfacet
facet normal 0 0 1
outer loop
vertex -25.000033333333334 0.9755666666666668 5.000100000000001
vertex -25.000033333333334 0 5.000100000000001
vertex -5.000100000000001 0 5.000100000000001
endloop
endfacet
facet normal 0 0 1
outer loop
vertex -25.000033333333334 0.9755666666666668 5.000100000000001
vertex -5.000100000000001 0 5.000100000000001
vertex -4.903966666666667 0.9755666666666668 5.000100000000001
endloop
endfacet
facet normal 0 0 1
outer loop
vertex 5.000100000000001 0 5.000100000000001
vertex 4.903966666666667 -0.9755666666666668 5.000100000000001
vertex 25.000033333333334 -0.9755666666666668 5.000100000000001
endloop
endfacet
facet normal 0 0 1
outer loop
vertex 5.000100000000001 0 5.000100000000001
vertex 25.000033333333334 -0.9755666666666668 5.000100000000001
vertex 25.000033333333334 0 5.000100000000001
endloop
endfacet
facet normal 0 0 1
outer loop
vertex -25.000033333333334 0 5.000100000000001
vertex -25.000033333333334 -0.9755666666666668 5.000100000000001
vertex -4.903966666666667 -0.9755666666666668 5.000100000000001
endloop
endfacet
facet normal 0 0 1
outer loop
vertex -25.000033333333334 0 5.000100000000001
vertex -4.903966666666667 -0.9755666666666668 5.000100000000001
vertex -5.000100000000001 0 5.000100000000001
endloop
endfacet
facet normal 0 0 1
outer loop
vertex 4.903966666666667 -0.9755666666666668 5.000100000000001
vertex 4.619300000000001 -1.9133333333333336 5.000100000000001
vertex 25.000033333333334 -1.9133333333333336 5.000100000000001
endloop
endfacet
facet normal 0 0 1
outer loop
vertex 4.903966666666667 -0.9755666666666668 5.000100000000001
vertex 25.000033333333334 -1.9133333333333336 5.000100000000001
vertex 25.000033333333334 -0.9755666666666668 5.000100000000001
endloop
endfacet
facet normal 0 0 1
outer loop
vertex -25.000033333333334 -0.9755666666666668 5.000100000000001
vertex -25.000033333333334 -1.9133333333333336 5.000100000000001
vertex -4.619300000000001 -1.9133333333333336 5.000100000000001
endloop
endfacet
facet normal 0 0 1
outer loop
vertex -25.000033333333334 -0.9755666666666668 5.000100000000001
vertex -4.619300000000001 -1.9133333333333336 5.000100000000001
vertex -4.903966666666667 -0.9755666666666668 5.000100000000001
endloop
endfacet
facet normal 0 0 1
outer loop
vertex 4.619300000000001 -1.9133333333333336 5.000100000000001
vertex 4.1573 -2.7778333333333336 5.000100000000001
vertex 25.000033333333334 -2.7778333333333336 5.000100000000001
endloop
endfacet
facet normal 0 0 1
outer loop
vertex 4.619300000000001 -1.9133333333333336 5.000100000000001
vertex 25.000033333333334 -2.7778333333333336 5.000100000000001
vertex 25.000033333333334 -1.9133333333333336 5.000100000000001
endloop
endfacet
facet normal 0 0 1
outer loop
vertex -25.000033333333334 -1.9133333333333336 5.000100000000001
vertex -25.000033333333334 -2.7778333333333336 5.000100000000001
vertex -4.1573 -2.7778333333333336 5.000100000000001
endloop
endfacet
facet normal 0 0 1
outer loop
vertex -25.000033333333334 -1.9133333333333336 5.000100000000001
vertex -4.1573 -2.7778333333333336 5.000100000000001
vertex -4.619300000000001 -1.9133333333333336 5.000100000000001
endloop
endfacet
facet normal 0 0 1
outer loop
vertex 4.1573 -2.7778333333333336 5.000100000000001
vertex 3.535466666666667 -3.535466666666667 5.000100000000001
vertex 25.000033333333334 -3.535466666666667 5.000100000000001
endloop
endfacet
facet normal 0 0 1
outer loop
vertex 4.1573 -2.7778333333333336 5.000100000000001
vertex 25.000033333333334 -3.535466666666667 5.000100000000001
vertex 25.000033333333334 -2.7778333333333336 5.000100000000001
endloop
endfacet
facet normal 0 0 1
outer loop
vertex -25.000033333333334 -2.7778333333333336 5.000100000000001
vertex -25.000033333333334 -3.535466666666667 5.000100000000001
vertex -3.535466666666667 -3.535466666666667 5.000100000000001
endloop
endfacet
facet normal 0 0 1
outer loop
vertex -25.000033333333334 -2.7778333333333336 5.000100000000001
vertex -3.535466666666667 -3.535466666666667 5.000100000000001
vertex -4.1573 -2.7778333333333336 5.000100000000001
endloop
endfacet
facet normal 0 0 0.9999999999999999
outer loop
vertex 3.535466666666667 -3.535466666666667 5.000100000000001
vertex 2.7778333333333336 -4.1573 5.000100000000001
vertex 25.000033333333334 -4.1573 5.000100000000001
endloop
endfacet
facet normal 0 0 1
outer loop
vertex 3.535466666666667 -3.535466666666667 5.000100000000001
vertex 25.000033333333334 -4.1573 5.000100000000001
vertex 25.000033333333334 -3.535466666666667 5.000100000000001
endloop
endfacet
facet normal 0 0 0.9999999999999999
outer loop
vertex -25.000033333333334 -3.535466666666667 5.000100000000001
vertex -25.000033333333334 -4.1573 5.000100000000001
vertex -2.7778333333333336 -4.1573 5.000100000000001
endloop
endfacet
facet normal 0 0 1
outer loop
vertex -25.000033333333334 -3.535466666666667 5.000100000000001
vertex -2.7778333333333336 -4.1573 5.000100000000001
vertex -3.535466666666667 -3.535466666666667 5.000100000000001
endloop
endfacet
facet normal 0 0 1
outer loop
vertex 2.7778333333333336 -4.1573 5.000100000000001
vertex 1.9133333333333336 -4.619300000000001 5.000100000000001
vertex 25.000033333333334 -4.619300000000001 5.000100000000001
endloop
endfacet
facet normal 0 0 1
outer loop
vertex 2.7778333333333336 -4.1573 5.000100000000001
vertex 25.000033333333334 -4.619300000000001 5.000100000000001
vertex 25.000033333333334 -4.1573 5.000100000000001
endloop
endfacet
facet normal 0 0 1
outer loop
vertex -25.000033333333334 -4.1573 5.000100000000001
vertex -25.000033333333334 -4.619300000000001 5.000100000000001
vertex -1.9133333333333336 -4.619300000000001 5.000100000000001
endloop
endfacet
facet normal 0 0 1
outer loop
vertex -25.000033333333334 -4.1573 5.000100000000001
vertex -1.9133333333333336 -4.619300000000001 5.000100000000001
vertex -2.7778333333333336 -4.1573 5.000100000000001
endloop
endfacet
facet normal 0 0 0.9999999999999999
outer loop
vertex 1.9133333333333336 -4.619300000000001 5.000100000000001
vertex 0.9755666666666668 -4.903966666666667 5.000100000000001
vertex 25.000033333333334 -4.903966666666667 5.000100000000001
endloop
endfacet
facet normal 0 0 1
outer loop
vertex 1.9133333333333336 -4.619300000000001 5.000100000000001
vertex 25.000033333333334 -4.903966666666667 5.000100000000001
vertex 25.000033333333334 -4.619300000000001 5.000100000000001
endloop
endfacet
facet normal 0 0 1
outer loop
vertex -25.000033333333334 -4.619300000000001 5.000100000000001
vertex -25.000033333333334 -4.903966666666667 5.000100000000001
vertex -0.9755666666666668 -4.903966666666667 5.000100000000001
endloop
endfacet
facet normal 0 0 1
outer loop
vertex -25.000033333333334 -4.619300000000001 5.000100000000001
vertex -0.9755666666666668 -4.903966666666667 5.000100000000001
vertex -1.9133333333333336 -4.619300000000001 5.000100000000001
endloop
endfacet
facet normal 0 0 1
outer loop
vertex 0.9755666666666668 -4.903966666666667 5.000100000000001
vertex 0 -5.000100000000001 5.000100000000001
vertex 25.000033333333334 -5.000100000000001 5.000100000000001
endloop
endfacet
facet normal 0 0 1
outer loop
vertex 0.9755666666666668 -4.903966666666667 5.000100000000001
vertex 25.000033333333334 -5.000100000000001 5.000100000000001
vertex 25.000033333333334 -4.903966666666667 5.000100000000001
endloop
endfacet
facet normal 0 0 1
outer loop
vertex -25.000033333333334 -4.903966666666667 5.000100000000001
vertex -25.000033333333334 -5.000100000000001 5.000100000000001
vertex 0 -5.000100000000001 5.000100000000001
endloop
endfacet
facet normal 0 0 1
outer loop
vertex -25.000033333333334 -4.903966666666667 5.000100000000001
vertex 0 -5.000100000000001 5.000100000000001
vertex -0.9755666666666668 -4.903966666666667 5.000100000000001
endloop
endfacet
facet normal 0 0 1
outer loop
vertex 0 -6.000166666666667 5.000100000000001
vertex 0 -5.000100000000001 5.000100000000001
vertex -25.000033333333334 -5.000100000000001 5.000100000000001
endloop
endfacet
facet normal 0 0 1
outer loop
vertex 0 -6.000166666666667 5.000100000000001
vertex -25.000033333333334 -5.000100000000001 5.000100000000001
vertex -25.000033333333334 -7.500033333333334 5.000100000000001
endloop
endfacet
facet normal 0 0 1
outer loop
vertex 0 -6.000166666666667 5.000100000000001
vertex -25.000033333333334 -7.500033333333334 5.000100000000001
vertex 25.000033333333334 -7.500033333333334 5.000100000000001
endloop
endfacet
facet normal 0 0 1
outer loop
vertex 0 -6.000166666666667 5.000100000000001
vertex 25.000033333333334 -7.500033333333334 5.000100000000001
vertex 25.000033333333334 -5.000100000000001 5.000100000000001
endloop
endfacet
facet normal 0 0 1
outer loop
vertex 0 -6.000166666666667 5.000100000000001
vertex 25.000033333333334 -5.000100000000001 5.000100000000001
vertex 0 -5.000100000000001 5.000100000000001
endloop
endfacet
endsolid JSCAD
