solid JSCAD
facet normal 0 -1 0
outer loop
vertex -79.99989739495302 -12.499719914546855 -5.000277952400237
vertex 79.99989739495302 -12.499719914546855 -5.000277952400237
vertex 79.99989739495302 -12.499719914546855 5.000277952400237
endloop
endfacet
facet normal 0 -1 0
outer loop
vertex -79.99989739495302 -12.499719914546855 -5.000277952400237
vertex 79.99989739495302 -12.499719914546855 5.000277952400237
vertex -79.99989739495302 -12.499719914546855 5.000277952400237
endloop
endfacet
facet normal 0.0008125124273100177 0.9999996699117233 0
outer loop
vertex -76.80005749378749 12.490620227645309 5.000277952400237
vertex -76.80005749378749 12.490620227645309 -5.000277952400237
vertex -79.99989739495302 12.493220138188608 -5.000277952400237
endloop
endfacet
facet normal 0.0008125124273100177 0.9999996699117233 0
outer loop
vertex -76.80005749378749 12.490620227645309 5.000277952400237
vertex -79.99989739495302 12.493220138188608 -5.000277952400237
vertex -79.99989739495302 12.493220138188608 5.000277952400237
endloop
endfacet
facet normal 0.001015640345559181 0.9999994842372111 0
outer loop
vertex -73.60021759262197 12.487370339466183 5.000277952400237
vertex -73.60021759262197 12.487370339466183 -5.000277952400237
vertex -76.80005749378749 12.490620227645309 -5.000277952400237
endloop
endfacet
facet normal 0.001015640345559181 0.9999994842372111 0
outer loop
vertex -73.60021759262197 12.487370339466183 5.000277952400237
vertex -76.80005749378749 12.490620227645309 -5.000277952400237
vertex -76.80005749378749 12.490620227645309 5.000277952400237
endloop
endfacet
facet normal 0.0014216070119035147 0.9999989895162414 0
outer loop
vertex -70.39972771382062 12.48282049601541 5.000277952400237
vertex -70.39972771382062 12.48282049601541 -5.000277952400237
vertex -73.60021759262197 12.487370339466183 -5.000277952400237
endloop
endfacet
facet normal 0.0014216070119035147 0.9999989895162414 0
outer loop
vertex -70.39972771382062 12.48282049601541 5.000277952400237
vertex -73.60021759262197 12.487370339466183 -5.000277952400237
vertex -73.60021759262197 12.487370339466183 5.000277952400237
endloop
endfacet
facet normal 0.0018281505099294222 0.9999983289314605 0
outer loop
vertex -67.1998878126551 12.476970697292987 5.000277952400237
vertex -67.1998878126551 12.476970697292987 -5.000277952400237
vertex -70.39972771382062 12.48282049601541 -5.000277952400237
endloop
endfacet
facet normal 0.0018281505099294222 0.9999983289314605 0
outer loop
vertex -67.1998878126551 12.476970697292987 5.000277952400237
vertex -70.39972771382062 12.48282049601541 -5.000277952400237
vertex -70.39972771382062 12.48282049601541 5.000277952400237
endloop
endfacet
facet normal 0.0024375308451367646 0.9999970292172768 0
outer loop
vertex -64.00004791148957 12.46917096566309 5.000277952400237
vertex -64.00004791148957 12.46917096566309 -5.000277952400237
vertex -67.1998878126551 12.476970697292987 -5.000277952400237
endloop
endfacet
facet normal 0.0024375308451367646 0.9999970292172768 0
outer loop
vertex -64.00004791148957 12.46917096566309 5.000277952400237
vertex -67.1998878126551 12.476970697292987 -5.000277952400237
vertex -67.1998878126551 12.476970697292987 5.000277952400237
endloop
endfacet
facet normal 0.003046908464849556 0.9999953581636302 0
outer loop
vertex -60.800208010324056 12.459421301125717 5.000277952400237
vertex -60.800208010324056 12.459421301125717 -5.000277952400237
vertex -64.00004791148957 12.46917096566309 -5.000277952400237
endloop
endfacet
facet normal 0.003046908464849556 0.9999953581636302 0
outer loop
vertex -60.800208010324056 12.459421301125717 5.000277952400237
vertex -64.00004791148957 12.46917096566309 -5.000277952400237
vertex -64.00004791148957 12.46917096566309 5.000277952400237
endloop
endfacet
facet normal 0.004061704919750195 0.9999917512425514 0
outer loop
vertex -57.59971813152271 12.446421748409222 5.000277952400237
vertex -57.59971813152271 12.446421748409222 -5.000277952400237
vertex -60.800208010324056 12.459421301125717 -5.000277952400237
endloop
endfacet
facet normal 0.004061704919750195 0.9999917512425514 0
outer loop
vertex -57.59971813152271 12.446421748409222 5.000277952400237
vertex -60.800208010324056 12.459421301125717 -5.000277952400237
vertex -60.800208010324056 12.459421301125717 5.000277952400237
endloop
endfacet
facet normal 0.00528125886764842 0.9999860540551417 0
outer loop
vertex -54.39987823035719 12.429522329877777 5.000277952400237
vertex -54.39987823035719 12.429522329877777 -5.000277952400237
vertex -57.59971813152271 12.446421748409222 -5.000277952400237
endloop
endfacet
facet normal 0.00528125886764842 0.9999860540551417 0
outer loop
vertex -54.39987823035719 12.429522329877777 5.000277952400237
vertex -57.59971813152271 12.446421748409222 -5.000277952400237
vertex -57.59971813152271 12.446421748409222 5.000277952400237
endloop
endfacet
facet normal 0.006703079143960673 0.9999775341126369 0
outer loop
vertex -51.20003832919166 12.408073067895558 5.000277952400237
vertex -51.20003832919166 12.408073067895558 -5.000277952400237
vertex -54.39987823035719 12.429522329877777 -5.000277952400237
endloop
endfacet
facet normal 0.006703079143960673 0.9999775341126369 0
outer loop
vertex -51.20003832919166 12.408073067895558 5.000277952400237
vertex -54.39987823035719 12.429522329877777 -5.000277952400237
vertex -54.39987823035719 12.429522329877777 5.000277952400237
endloop
endfacet
facet normal 0.0085310728435731 0.9999636097359431 0
outer loop
vertex -48.00019842802614 12.380774007190915 5.000277952400237
vertex -48.00019842802614 12.380774007190915 -5.000277952400237
vertex -51.20003832919166 12.408073067895558 -5.000277952400237
endloop
endfacet
facet normal 0.0085310728435731 0.9999636097359431 0
outer loop
vertex -48.00019842802614 12.380774007190915 5.000277952400237
vertex -51.20003832919166 12.408073067895558 -5.000277952400237
vertex -51.20003832919166 12.408073067895558 5.000277952400237
endloop
endfacet
facet normal 0.010762983367811008 0.9999420774169994 0
outer loop
vertex -44.799708549224796 12.3463251924922 5.000277952400237
vertex -44.799708549224796 12.3463251924922 -5.000277952400237
vertex -48.00019842802614 12.380774007190915 -5.000277952400237
endloop
endfacet
facet normal 0.010762983367811008 0.9999420774169994 0
outer loop
vertex -44.799708549224796 12.3463251924922 5.000277952400237
vertex -48.00019842802614 12.380774007190915 -5.000277952400237
vertex -48.00019842802614 12.380774007190915 5.000277952400237
endloop
endfacet
facet normal 0.013608327434994403 0.9999074024250554 0
outer loop
vertex -41.59986864805927 12.302776690891939 5.000277952400237
vertex -41.59986864805927 12.302776690891939 -5.000277952400237
vertex -44.799708549224796 12.3463251924922 -5.000277952400237
endloop
endfacet
facet normal 0.013608327434994403 0.9999074024250554 0
outer loop
vertex -41.59986864805927 12.302776690891939 5.000277952400237
vertex -44.799708549224796 12.3463251924922 -5.000277952400237
vertex -44.799708549224796 12.3463251924922 5.000277952400237
endloop
endfacet
facet normal 0.016654200153090708 0.9998613091910603 0
outer loop
vertex -38.400028746893746 12.249478524754306 5.000277952400237
vertex -38.400028746893746 12.249478524754306 -5.000277952400237
vertex -41.59986864805927 12.302776690891939 -5.000277952400237
endloop
endfacet
facet normal 0.016654200153090708 0.9998613091910603 0
outer loop
vertex -38.400028746893746 12.249478524754306 5.000277952400237
vertex -41.59986864805927 12.302776690891939 -5.000277952400237
vertex -41.59986864805927 12.302776690891939 5.000277952400237
endloop
endfacet
facet normal 0.020511629302146242 0.9997896144006354 0
outer loop
vertex -35.20018884572823 12.183830783536 5.000277952400237
vertex -35.20018884572823 12.183830783536 -5.000277952400237
vertex -38.400028746893746 12.249478524754306 -5.000277952400237
endloop
endfacet
facet normal 0.020511629302146242 0.9997896144006354 0
outer loop
vertex -35.20018884572823 12.183830783536 5.000277952400237
vertex -38.400028746893746 12.249478524754306 -5.000277952400237
vertex -38.400028746893746 12.249478524754306 5.000277952400237
endloop
endfacet
facet normal 0.025174796914589494 0.999683064576123 0
outer loop
vertex -31.99969896692688 12.103233556693723 5.000277952400237
vertex -31.99969896692688 12.103233556693723 -5.000277952400237
vertex -35.20018884572823 12.183830783536 -5.000277952400237
endloop
endfacet
facet normal 0.025174796914589494 0.999683064576123 0
outer loop
vertex -31.99969896692688 12.103233556693723 5.000277952400237
vertex -35.20018884572823 12.183830783536 -5.000277952400237
vertex -35.20018884572823 12.183830783536 5.000277952400237
endloop
endfacet
facet normal 0.030657936255078615 0.9995299349917336 0
outer loop
vertex -28.799859065761353 12.005086933684177 5.000277952400237
vertex -28.799859065761353 12.005086933684177 -5.000277952400237
vertex -31.99969896692688 12.103233556693723 -5.000277952400237
endloop
endfacet
facet normal 0.030657936255078615 0.9995299349917336 0
outer loop
vertex -28.799859065761353 12.005086933684177 5.000277952400237
vertex -31.99969896692688 12.103233556693723 -5.000277952400237
vertex -31.99969896692688 12.103233556693723 5.000277952400237
endloop
endfacet
facet normal 0.03694408994614303 0.9993173340926551 0
outer loop
vertex -25.60001916459583 11.886791003964063 5.000277952400237
vertex -25.60001916459583 11.886791003964063 -5.000277952400237
vertex -28.799859065761353 12.005086933684177 -5.000277952400237
endloop
endfacet
facet normal 0.03694408994614303 0.9993173340926551 0
outer loop
vertex -25.60001916459583 11.886791003964063 5.000277952400237
vertex -28.799859065761353 12.005086933684177 -5.000277952400237
vertex -28.799859065761353 12.005086933684177 5.000277952400237
endloop
endfacet
facet normal 0.04423858963480141 0.9990209943675477 0
outer loop
vertex -22.40017926343031 11.745095879354254 5.000277952400237
vertex -22.40017926343031 11.745095879354254 -5.000277952400237
vertex -25.60001916459583 11.886791003964063 -5.000277952400237
endloop
endfacet
facet normal 0.04423858963480141 0.9990209943675477 0
outer loop
vertex -22.40017926343031 11.745095879354254 5.000277952400237
vertex -25.60001916459583 11.886791003964063 -5.000277952400237
vertex -25.60001916459583 11.886791003964063 5.000277952400237
endloop
endfacet
facet normal 0.05272914323326835 0.9986088510792829 0
outer loop
vertex -19.19968938462896 11.576101694039805 5.000277952400237
vertex -19.19968938462896 11.576101694039805 -5.000277952400237
vertex -22.40017926343031 11.745095879354254 -5.000277952400237
endloop
endfacet
facet normal 0.05272914323326835 0.9986088510792829 0
outer loop
vertex -19.19968938462896 11.576101694039805 5.000277952400237
vertex -22.40017926343031 11.745095879354254 -5.000277952400237
vertex -22.40017926343031 11.745095879354254 5.000277952400237
endloop
endfacet
facet normal 0.06203749517979702 0.9980738195102689 0
outer loop
vertex -15.99984948346344 11.377208537477415 5.000277952400237
vertex -15.99984948346344 11.377208537477415 -5.000277952400237
vertex -19.19968938462896 11.576101694039805 -5.000277952400237
endloop
endfacet
facet normal 0.06203749517979702 0.9980738195102689 0
outer loop
vertex -15.99984948346344 11.377208537477415 5.000277952400237
vertex -19.19968938462896 11.576101694039805 -5.000277952400237
vertex -19.19968938462896 11.576101694039805 5.000277952400237
endloop
endfacet
facet normal 0.07272989055778224 0.9973516746962694 0
outer loop
vertex -12.800009582297916 11.143866566216309 5.000277952400237
vertex -12.800009582297916 11.143866566216309 -5.000277952400237
vertex -15.99984948346344 11.377208537477415 -5.000277952400237
endloop
endfacet
facet normal 0.07272989055778224 0.9973516746962694 0
outer loop
vertex -12.800009582297916 11.143866566216309 5.000277952400237
vertex -15.99984948346344 11.377208537477415 -5.000277952400237
vertex -15.99984948346344 11.377208537477415 5.000277952400237
endloop
endfacet
facet normal 0.08440220337420604 0.9964317678926033 0
outer loop
vertex -9.600169681132392 10.872825892077364 5.000277952400237
vertex -9.600169681132392 10.872825892077364 -5.000277952400237
vertex -12.800009582297916 11.143866566216309 -5.000277952400237
endloop
endfacet
facet normal 0.08440220337420604 0.9964317678926033 0
outer loop
vertex -9.600169681132392 10.872825892077364 5.000277952400237
vertex -12.800009582297916 11.143866566216309 -5.000277952400237
vertex -12.800009582297916 11.143866566216309 5.000277952400237
endloop
endfacet
facet normal 0.09742225681360785 0.9952431380709659 0
outer loop
vertex -6.399679802331046 10.559536671609807 5.000277952400237
vertex -6.399679802331046 10.559536671609807 -5.000277952400237
vertex -9.600169681132392 10.872825892077364 -5.000277952400237
endloop
endfacet
facet normal 0.09742225681360785 0.9952431380709659 0
outer loop
vertex -6.399679802331046 10.559536671609807 5.000277952400237
vertex -9.600169681132392 10.872825892077364 -5.000277952400237
vertex -9.600169681132392 10.872825892077364 5.000277952400237
endloop
endfacet
facet normal 0.11142847770194021 0.9937724560265434 0
outer loop
vertex -3.199839901165523 10.200749016634514 5.000277952400237
vertex -3.199839901165523 10.200749016634514 -5.000277952400237
vertex -6.399679802331046 10.559536671609807 -5.000277952400237
endloop
endfacet
facet normal 0.11142847770194021 0.9937724560265434 0
outer loop
vertex -3.199839901165523 10.200749016634514 5.000277952400237
vertex -6.399679802331046 10.559536671609807 -5.000277952400237
vertex -6.399679802331046 10.559536671609807 5.000277952400237
endloop
endfacet
facet normal 0.12634080510201032 0.9919868955617186 0
outer loop
vertex 0 9.793213038972361 5.000277952400237
vertex 0 9.793213038972361 -5.000277952400237
vertex -3.199839901165523 10.200749016634514 -5.000277952400237
endloop
endfacet
facet normal 0.12634080510201032 0.9919868955617186 0
outer loop
vertex 0 9.793213038972361 5.000277952400237
vertex -3.199839901165523 10.200749016634514 -5.000277952400237
vertex -3.199839901165523 10.200749016634514 5.000277952400237
endloop
endfacet
facet normal 0.14215319542633353 0.98984466914263 0
outer loop
vertex 3.199839901165523 9.333678850444223 5.000277952400237
vertex 3.199839901165523 9.333678850444223 -5.000277952400237
vertex 0 9.793213038972361 -5.000277952400237
endloop
endfacet
facet normal 0.14215319542633353 0.98984466914263 0
outer loop
vertex 3.199839901165523 9.333678850444223 5.000277952400237
vertex 0 9.793213038972361 -5.000277952400237
vertex 0 9.793213038972361 5.000277952400237
endloop
endfacet
facet normal 0.15844417437862449 0.9873679372986933 0
outer loop
vertex 6.399679802331046 8.820196518142625 5.000277952400237
vertex 6.399679802331046 8.820196518142625 -5.000277952400237
vertex 3.199839901165523 9.333678850444223 -5.000277952400237
endloop
endfacet
facet normal 0.15844417437862449 0.9873679372986933 0
outer loop
vertex 6.399679802331046 8.820196518142625 5.000277952400237
vertex 3.199839901165523 9.333678850444223 -5.000277952400237
vertex 3.199839901165523 9.333678850444223 5.000277952400237
endloop
endfacet
facet normal 0.17534773662840558 0.9845065623241398 0
outer loop
vertex 9.600169681132392 8.25016613152427 5.000277952400237
vertex 9.600169681132392 8.25016613152427 -5.000277952400237
vertex 6.399679802331046 8.820196518142625 -5.000277952400237
endloop
endfacet
facet normal 0.17534773662840558 0.9845065623241398 0
outer loop
vertex 9.600169681132392 8.25016613152427 5.000277952400237
vertex 6.399679802331046 8.820196518142625 -5.000277952400237
vertex 6.399679802331046 8.820196518142625 5.000277952400237
endloop
endfacet
facet normal 0.1923580031424849 0.9813248181040951 0
outer loop
vertex 12.800009582297916 7.622937712953331 5.000277952400237
vertex 12.800009582297916 7.622937712953331 -5.000277952400237
vertex 9.600169681132392 8.25016613152427 -5.000277952400237
endloop
endfacet
facet normal 0.1923580031424849 0.9813248181040951 0
outer loop
vertex 12.800009582297916 7.622937712953331 5.000277952400237
vertex 9.600169681132392 8.25016613152427 -5.000277952400237
vertex 9.600169681132392 8.25016613152427 5.000277952400237
endloop
endfacet
facet normal 0.20897285332194265 0.9779214419238826 0
outer loop
vertex 15.99984948346344 6.939161240065635 5.000277952400237
vertex 15.99984948346344 6.939161240065635 -5.000277952400237
vertex 12.800009582297916 7.622937712953331 -5.000277952400237
endloop
endfacet
facet normal 0.20897285332194265 0.9779214419238826 0
outer loop
vertex 15.99984948346344 6.939161240065635 5.000277952400237
vertex 12.800009582297916 7.622937712953331 -5.000277952400237
vertex 12.800009582297916 7.622937712953331 5.000277952400237
endloop
endfacet
facet normal 0.22503295950980615 0.9743511518617187 0
outer loop
vertex 19.19968938462896 6.20013666813283 5.000277952400237
vertex 19.19968938462896 6.20013666813283 -5.000277952400237
vertex 15.99984948346344 6.939161240065635 -5.000277952400237
endloop
endfacet
facet normal 0.22503295950980615 0.9743511518617187 0
outer loop
vertex 19.19968938462896 6.20013666813283 5.000277952400237
vertex 15.99984948346344 6.939161240065635 -5.000277952400237
vertex 15.99984948346344 6.939161240065635 5.000277952400237
endloop
endfacet
facet normal 0.24012274692192723 0.9707425335333093 0
outer loop
vertex 22.40017926343031 5.4084639076982155 5.000277952400237
vertex 22.40017926343031 5.4084639076982155 -5.000277952400237
vertex 19.19968938462896 6.20013666813283 -5.000277952400237
endloop
endfacet
facet normal 0.24012274692192723 0.9707425335333093 0
outer loop
vertex 22.40017926343031 5.4084639076982155 5.000277952400237
vertex 19.19968938462896 6.20013666813283 -5.000277952400237
vertex 19.19968938462896 6.20013666813283 5.000277952400237
endloop
endfacet
facet normal 0.2540290835225096 0.9671965801866309 0
outer loop
vertex 25.60001916459583 4.56804282457674 5.000277952400237
vertex 25.60001916459583 4.56804282457674 -5.000277952400237
vertex 22.40017926343031 5.4084639076982155 -5.000277952400237
endloop
endfacet
facet normal 0.2540290835225096 0.9671965801866309 0
outer loop
vertex 25.60001916459583 4.56804282457674 5.000277952400237
vertex 22.40017926343031 5.4084639076982155 -5.000277952400237
vertex 22.40017926343031 5.4084639076982155 5.000277952400237
endloop
endfacet
facet normal 0.2662803285727001 0.9638956305613252 0
outer loop
vertex 28.799859065761353 3.6840732398550036 5.000277952400237
vertex 28.799859065761353 3.6840732398550036 -5.000277952400237
vertex 25.60001916459583 4.56804282457674 -5.000277952400237
endloop
endfacet
facet normal 0.2662803285727001 0.9638956305613252 0
outer loop
vertex 28.799859065761353 3.6840732398550036 5.000277952400237
vertex 25.60001916459583 4.56804282457674 -5.000277952400237
vertex 25.60001916459583 4.56804282457674 5.000277952400237
endloop
endfacet
facet normal 0.27606171724056977 0.9611399108736395 0
outer loop
vertex 31.99969896692688 2.7650048627987274 5.000277952400237
vertex 31.99969896692688 2.7650048627987274 -5.000277952400237
vertex 28.799859065761353 3.6840732398550036 -5.000277952400237
endloop
endfacet
facet normal 0.27606171724056977 0.9611399108736395 0
outer loop
vertex 31.99969896692688 2.7650048627987274 5.000277952400237
vertex 28.799859065761353 3.6840732398550036 -5.000277952400237
vertex 28.799859065761353 3.6840732398550036 5.000277952400237
endloop
endfacet
facet normal 0.28373689366032323 0.9589021718486148 0
outer loop
vertex 35.20018884572823 1.817987447401984 5.000277952400237
vertex 35.20018884572823 1.817987447401984 -5.000277952400237
vertex 31.99969896692688 2.7650048627987274 -5.000277952400237
endloop
endfacet
facet normal 0.28373689366032323 0.9589021718486148 0
outer loop
vertex 35.20018884572823 1.817987447401984 5.000277952400237
vertex 31.99969896692688 2.7650048627987274 -5.000277952400237
vertex 31.99969896692688 2.7650048627987274 5.000277952400237
endloop
endfacet
facet normal 0.28843615856473326 0.9574991292071341 0
outer loop
vertex 38.400028746893746 0.8540706134737959 5.000277952400237
vertex 38.400028746893746 0.8540706134737959 -5.000277952400237
vertex 35.20018884572823 1.817987447401984 -5.000277952400237
endloop
endfacet
facet normal 0.28843615856473326 0.9574991292071341 0
outer loop
vertex 38.400028746893746 0.8540706134737959 5.000277952400237
vertex 35.20018884572823 1.817987447401984 -5.000277952400237
vertex 35.20018884572823 1.817987447401984 5.000277952400237
endloop
endfacet
facet normal 0.29003976730545533 0.9570145941318751 0
outer loop
vertex 41.59986864805927 -0.11569601917681557 5.000277952400237
vertex 41.59986864805927 -0.11569601917681557 -5.000277952400237
vertex 38.400028746893746 0.8540706134737959 -5.000277952400237
endloop
endfacet
facet normal 0.29003976730545533 0.9570145941318751 0
outer loop
vertex 41.59986864805927 -0.11569601917681557 5.000277952400237
vertex 38.400028746893746 0.8540706134737959 -5.000277952400237
vertex 38.400028746893746 0.8540706134737959 5.000277952400237
endloop
endfacet
facet normal 0.2882578296090044 0.9575528307457016 0
outer loop
vertex 44.799708549224796 -1.078962875469179 5.000277952400237
vertex 44.799708549224796 -1.078962875469179 -5.000277952400237
vertex 41.59986864805927 -0.11569601917681557 -5.000277952400237
endloop
endfacet
facet normal 0.2882578296090044 0.9575528307457016 0
outer loop
vertex 44.799708549224796 -1.078962875469179 5.000277952400237
vertex 41.59986864805927 -0.11569601917681557 -5.000277952400237
vertex 41.59986864805927 -0.11569601917681557 5.000277952400237
endloop
endfacet
facet normal 0.28284120993364964 0.9591667477364242 0
outer loop
vertex 48.00019842802614 -2.0227304026867983 5.000277952400237
vertex 48.00019842802614 -2.0227304026867983 -5.000277952400237
vertex 44.799708549224796 -1.078962875469179 -5.000277952400237
endloop
endfacet
facet normal 0.28284120993364964 0.9591667477364242 0
outer loop
vertex 48.00019842802614 -2.0227304026867983 5.000277952400237
vertex 44.799708549224796 -1.078962875469179 -5.000277952400237
vertex 44.799708549224796 -1.078962875469179 5.000277952400237
endloop
endfacet
facet normal 0.27371463297763865 0.9618109480006539 0
outer loop
vertex 51.20003832919166 -2.933349070477352 5.000277952400237
vertex 51.20003832919166 -2.933349070477352 -5.000277952400237
vertex 48.00019842802614 -2.0227304026867983 -5.000277952400237
endloop
endfacet
facet normal 0.27371463297763865 0.9618109480006539 0
outer loop
vertex 51.20003832919166 -2.933349070477352 5.000277952400237
vertex 48.00019842802614 -2.0227304026867983 -5.000277952400237
vertex 48.00019842802614 -2.0227304026867983 5.000277952400237
endloop
endfacet
facet normal 0.2604446666394043 0.9654887755013465 0
outer loop
vertex 54.39987823035719 -3.796519370852695 5.000277952400237
vertex 54.39987823035719 -3.796519370852695 -5.000277952400237
vertex 51.20003832919166 -2.933349070477352 -5.000277952400237
endloop
endfacet
facet normal 0.2604446666394043 0.9654887755013465 0
outer loop
vertex 54.39987823035719 -3.796519370852695 5.000277952400237
vertex 51.20003832919166 -2.933349070477352 -5.000277952400237
vertex 51.20003832919166 -2.933349070477352 5.000277952400237
endloop
endfacet
facet normal 0.24276744340143716 0.9700845161244097 0
outer loop
vertex 57.59971813152271 -4.597291818188857 5.000277952400237
vertex 57.59971813152271 -4.597291818188857 -5.000277952400237
vertex 54.39987823035719 -3.796519370852695 -5.000277952400237
endloop
endfacet
facet normal 0.24276744340143716 0.9700845161244097 0
outer loop
vertex 57.59971813152271 -4.597291818188857 5.000277952400237
vertex 54.39987823035719 -3.796519370852695 -5.000277952400237
vertex 54.39987823035719 -3.796519370852695 5.000277952400237
endloop
endfacet
facet normal 0.22141565977580838 0.9751795248086597 0
outer loop
vertex 60.800208010324056 -5.323966815040991 5.000277952400237
vertex 60.800208010324056 -5.323966815040991 -5.000277952400237
vertex 57.59971813152271 -4.597291818188857 -5.000277952400237
endloop
endfacet
facet normal 0.22141565977580838 0.9751795248086597 0
outer loop
vertex 60.800208010324056 -5.323966815040991 5.000277952400237
vertex 57.59971813152271 -4.597291818188857 -5.000277952400237
vertex 57.59971813152271 -4.597291818188857 5.000277952400237
endloop
endfacet
facet normal 0.1956181004250471 0.9806801511125308 0
outer loop
vertex 64.00004791148957 -5.962244853420951 5.000277952400237
vertex 64.00004791148957 -5.962244853420951 -5.000277952400237
vertex 60.800208010324056 -5.323966815040991 -5.000277952400237
endloop
endfacet
facet normal 0.1956181004250471 0.9806801511125308 0
outer loop
vertex 64.00004791148957 -5.962244853420951 5.000277952400237
vertex 60.800208010324056 -5.323966815040991 -5.000277952400237
vertex 60.800208010324056 -5.323966815040991 5.000277952400237
endloop
endfacet
facet normal 0.16625013194159938 0.9860836139138509 0
outer loop
vertex 67.1998878126551 -6.50172629115554 5.000277952400237
vertex 67.1998878126551 -6.50172629115554 -5.000277952400237
vertex 64.00004791148957 -5.962244853420951 -5.000277952400237
endloop
endfacet
facet normal 0.16625013194159938 0.9860836139138509 0
outer loop
vertex 67.1998878126551 -6.50172629115554 5.000277952400237
vertex 64.00004791148957 -5.962244853420951 -5.000277952400237
vertex 64.00004791148957 -5.962244853420951 5.000277952400237
endloop
endfacet
facet normal 0.13327131615683183 0.9910795912992185 0
outer loop
vertex 70.39972771382062 -6.932011486071562 5.000277952400237
vertex 70.39972771382062 -6.932011486071562 -5.000277952400237
vertex 67.1998878126551 -6.50172629115554 -5.000277952400237
endloop
endfacet
facet normal 0.13327131615683183 0.9910795912992185 0
outer loop
vertex 70.39972771382062 -6.932011486071562 5.000277952400237
vertex 67.1998878126551 -6.50172629115554 -5.000277952400237
vertex 67.1998878126551 -6.50172629115554 5.000277952400237
endloop
endfacet
facet normal 0.09762245341261282 0.9952235209186437 0
outer loop
vertex 73.60021759262197 -7.245950684174944 5.000277952400237
vertex 73.60021759262197 -7.245950684174944 -5.000277952400237
vertex 70.39972771382062 -6.932011486071562 -5.000277952400237
endloop
endfacet
facet normal 0.09762245341261282 0.9952235209186437 0
outer loop
vertex 73.60021759262197 -7.245950684174944 5.000277952400237
vertex 70.39972771382062 -6.932011486071562 -5.000277952400237
vertex 70.39972771382062 -6.932011486071562 5.000277952400237
endloop
endfacet
facet normal 0.0594114237872322 0.9982335812441766 0
outer loop
vertex 76.80005749378749 -7.436394131471612 5.000277952400237
vertex 76.80005749378749 -7.436394131471612 -5.000277952400237
vertex 73.60021759262197 -7.245950684174944 -5.000277952400237
endloop
endfacet
facet normal 0.0594114237872322 0.9982335812441766 0
outer loop
vertex 76.80005749378749 -7.436394131471612 5.000277952400237
vertex 73.60021759262197 -7.245950684174944 -5.000277952400237
vertex 73.60021759262197 -7.245950684174944 5.000277952400237
endloop
endfacet
facet normal 0.019902618013716955 0.9998019232809066 0
outer loop
vertex 79.99989739495302 -7.500091939782443 5.000277952400237
vertex 79.99989739495302 -7.500091939782443 -5.000277952400237
vertex 76.80005749378749 -7.436394131471612 -5.000277952400237
endloop
endfacet
facet normal 0.019902618013716955 0.9998019232809066 0
outer loop
vertex 79.99989739495302 -7.500091939782443 5.000277952400237
vertex 76.80005749378749 -7.436394131471612 -5.000277952400237
vertex 76.80005749378749 -7.436394131471612 5.000277952400237
endloop
endfacet
facet normal -1 0 0
outer loop
vertex -79.99989739495302 -3.853717402805278 0
vertex -79.99989739495302 -7.436394131471612 5.000277952400237
vertex -79.99989739495302 -7.245950684174944 5.000277952400237
endloop
endfacet
facet normal -1 0 0
outer loop
vertex -79.99989739495302 -3.853717402805278 0
vertex -79.99989739495302 -7.245950684174944 5.000277952400237
vertex -79.99989739495302 -6.932011486071562 5.000277952400237
endloop
endfacet
facet normal -1 0 0
outer loop
vertex -79.99989739495302 -3.853717402805278 0
vertex -79.99989739495302 -6.932011486071562 5.000277952400237
vertex -79.99989739495302 -6.50172629115554 5.000277952400237
endloop
endfacet
facet normal -0.9999999999999999 0 0
outer loop
vertex -79.99989739495302 -3.853717402805278 0
vertex -79.99989739495302 -6.50172629115554 5.000277952400237
vertex -79.99989739495302 -5.962244853420951 5.000277952400237
endloop
endfacet
facet normal -1 0 0
outer loop
vertex -79.99989739495302 -3.853717402805278 0
vertex -79.99989739495302 -5.962244853420951 5.000277952400237
vertex -79.99989739495302 -5.323966815040991 5.000277952400237
endloop
endfacet
facet normal -1 0 0
outer loop
vertex -79.99989739495302 -3.853717402805278 0
vertex -79.99989739495302 -5.323966815040991 5.000277952400237
vertex -79.99989739495302 -4.597291818188857 5.000277952400237
endloop
endfacet
facet normal -1 0 0
outer loop
vertex -79.99989739495302 -3.853717402805278 0
vertex -79.99989739495302 -4.597291818188857 5.000277952400237
vertex -79.99989739495302 -3.796519370852695 5.000277952400237
endloop
endfacet
facet normal -1 0 0
outer loop
vertex -79.99989739495302 -3.853717402805278 0
vertex -79.99989739495302 -3.796519370852695 5.000277952400237
vertex -79.99989739495302 -2.933349070477352 5.000277952400237
endloop
endfacet
facet normal -1 0 0
outer loop
vertex -79.99989739495302 -3.853717402805278 0
vertex -79.99989739495302 -2.933349070477352 5.000277952400237
vertex -79.99989739495302 -2.0227304026867983 5.000277952400237
endloop
endfacet
facet normal -1 0 0
outer loop
vertex -79.99989739495302 -3.853717402805278 0
vertex -79.99989739495302 -2.0227304026867983 5.000277952400237
vertex -79.99989739495302 -1.078962875469179 5.000277952400237
endloop
endfacet
facet normal -0.9999999999999999 0 0
outer loop
vertex -79.99989739495302 -3.853717402805278 0
vertex -79.99989739495302 -1.078962875469179 5.000277952400237
vertex -79.99989739495302 -0.11569601917681557 5.000277952400237
endloop
endfacet
facet normal -1 0 0
outer loop
vertex -79.99989739495302 -3.853717402805278 0
vertex -79.99989739495302 -0.11569601917681557 5.000277952400237
vertex -79.99989739495302 12.493220138188608 5.000277952400237
endloop
endfacet
facet normal -1 0 0
outer loop
vertex -79.99989739495302 -3.853717402805278 0
vertex -79.99989739495302 12.493220138188608 5.000277952400237
vertex -79.99989739495302 12.493220138188608 -5.000277952400237
endloop
endfacet
facet normal -1 0 0
outer loop
vertex -79.99989739495302 -3.853717402805278 0
vertex -79.99989739495302 12.493220138188608 -5.000277952400237
vertex -79.99989739495302 -0.11569601917681557 -5.000277952400237
endloop
endfacet
facet normal -0.9999999999999999 0 0
outer loop
vertex -79.99989739495302 -3.853717402805278 0
vertex -79.99989739495302 -0.11569601917681557 -5.000277952400237
vertex -79.99989739495302 -1.078962875469179 -5.000277952400237
endloop
endfacet
facet normal -1 0 0
outer loop
vertex -79.99989739495302 -3.853717402805278 0
vertex -79.99989739495302 -1.078962875469179 -5.000277952400237
vertex -79.99989739495302 -2.0227304026867983 -5.000277952400237
endloop
endfacet
facet normal -1 0 0
outer loop
vertex -79.99989739495302 -3.853717402805278 0
vertex -79.99989739495302 -2.0227304026867983 -5.000277952400237
vertex -79.99989739495302 -2.933349070477352 -5.000277952400237
endloop
endfacet
facet normal -1 0 0
outer loop
vertex -79.99989739495302 -3.853717402805278 0
vertex -79.99989739495302 -2.933349070477352 -5.000277952400237
vertex -79.99989739495302 -3.796519370852695 -5.000277952400237
endloop
endfacet
facet normal -1 0 0
outer loop
vertex -79.99989739495302 -3.853717402805278 0
vertex -79.99989739495302 -3.796519370852695 -5.000277952400237
vertex -79.99989739495302 -4.597291818188857 -5.000277952400237
endloop
endfacet
facet normal -1 0 0
outer loop
vertex -79.99989739495302 -3.853717402805278 0
vertex -79.99989739495302 -4.597291818188857 -5.000277952400237
vertex -79.99989739495302 -5.323966815040991 -5.000277952400237
endloop
endfacet
facet normal -1 0 0
outer loop
vertex -79.99989739495302 -3.853717402805278 0
vertex -79.99989739495302 -5.323966815040991 -5.000277952400237
vertex -79.99989739495302 -5.962244853420951 -5.000277952400237
endloop
endfacet
facet normal -0.9999999999999999 0 0
outer loop
vertex -79.99989739495302 -3.853717402805278 0
vertex -79.99989739495302 -5.962244853420951 -5.000277952400237
vertex -79.99989739495302 -6.50172629115554 -5.000277952400237
endloop
endfacet
facet normal -1 0 0
outer loop
vertex -79.99989739495302 -3.853717402805278 0
vertex -79.99989739495302 -6.50172629115554 -5.000277952400237
vertex -79.99989739495302 -6.932011486071562 -5.000277952400237
endloop
endfacet
facet normal -1 0 0
outer loop
vertex -79.99989739495302 -3.853717402805278 0
vertex -79.99989739495302 -6.932011486071562 -5.000277952400237
vertex -79.99989739495302 -7.245950684174944 -5.000277952400237
endloop
endfacet
facet normal -1 0 0
outer loop
vertex -79.99989739495302 -3.853717402805278 0
vertex -79.99989739495302 -7.245950684174944 -5.000277952400237
vertex -79.99989739495302 -7.436394131471612 -5.000277952400237
endloop
endfacet
facet normal -0.9999999999999999 0 0
outer loop
vertex -79.99989739495302 -3.853717402805278 0
vertex -79.99989739495302 -7.436394131471612 -5.000277952400237
vertex -79.99989739495302 -12.499719914546855 -5.000277952400237
endloop
endfacet
facet normal -1 0 0
outer loop
vertex -79.99989739495302 -3.853717402805278 0
vertex -79.99989739495302 -12.499719914546855 -5.000277952400237
vertex -79.99989739495302 -12.499719914546855 5.000277952400237
endloop
endfacet
facet normal -0.9999999999999999 0 0
outer loop
vertex -79.99989739495302 -3.853717402805278 0
vertex -79.99989739495302 -12.499719914546855 5.000277952400237
vertex -79.99989739495302 -7.436394131471612 5.000277952400237
endloop
endfacet
facet normal 0 0 -1
outer loop
vertex -9.500073125215373 8.61415360758616 -5.000277952400237
vertex -51.20003832919166 12.408073067895558 -5.000277952400237
vertex -48.00019842802614 12.380774007190915 -5.000277952400237
endloop
endfacet
facet normal 0 0 -1
outer loop
vertex -9.500073125215373 8.61415360758616 -5.000277952400237
vertex -48.00019842802614 12.380774007190915 -5.000277952400237
vertex -44.799708549224796 12.3463251924922 -5.000277952400237
endloop
endfacet
facet normal 0 0 -1
outer loop
vertex -9.500073125215373 8.61415360758616 -5.000277952400237
vertex -44.799708549224796 12.3463251924922 -5.000277952400237
vertex -41.59986864805927 12.302776690891939 -5.000277952400237
endloop
endfacet
facet normal 0 0 -1
outer loop
vertex -9.500073125215373 8.61415360758616 -5.000277952400237
vertex -41.59986864805927 12.302776690891939 -5.000277952400237
vertex -38.400028746893746 12.249478524754306 -5.000277952400237
endloop
endfacet
facet normal 0 0 -1
outer loop
vertex -9.500073125215373 8.61415360758616 -5.000277952400237
vertex -38.400028746893746 12.249478524754306 -5.000277952400237
vertex -35.20018884572823 12.183830783536 -5.000277952400237
endloop
endfacet
facet normal 0 0 -1
outer loop
vertex -9.500073125215373 8.61415360758616 -5.000277952400237
vertex -35.20018884572823 12.183830783536 -5.000277952400237
vertex -31.99969896692688 12.103233556693723 -5.000277952400237
endloop
endfacet
facet normal 0 0 -0.9999999999999999
outer loop
vertex -9.500073125215373 8.61415360758616 -5.000277952400237
vertex -31.99969896692688 12.103233556693723 -5.000277952400237
vertex -28.799859065761353 12.005086933684177 -5.000277952400237
endloop
endfacet
facet normal 0 0 -1
outer loop
vertex -9.500073125215373 8.61415360758616 -5.000277952400237
vertex -28.799859065761353 12.005086933684177 -5.000277952400237
vertex -25.60001916459583 11.886791003964063 -5.000277952400237
endloop
endfacet
facet normal 0 0 -1
outer loop
vertex -9.500073125215373 8.61415360758616 -5.000277952400237
vertex -25.60001916459583 11.886791003964063 -5.000277952400237
vertex -22.40017926343031 11.745095879354254 -5.000277952400237
endloop
endfacet
facet normal 0 0 -1
outer loop
vertex -9.500073125215373 8.61415360758616 -5.000277952400237
vertex -22.40017926343031 11.745095879354254 -5.000277952400237
vertex -19.19968938462896 11.576101694039805 -5.000277952400237
endloop
endfacet
facet normal 0 0 -0.9999999999999999
outer loop
vertex -9.500073125215373 8.61415360758616 -5.000277952400237
vertex -19.19968938462896 11.576101694039805 -5.000277952400237
vertex -15.99984948346344 11.377208537477415 -5.000277952400237
endloop
endfacet
facet normal 0 0 -1
outer loop
vertex -9.500073125215373 8.61415360758616 -5.000277952400237
vertex -15.99984948346344 11.377208537477415 -5.000277952400237
vertex -12.800009582297916 11.143866566216309 -5.000277952400237
endloop
endfacet
facet normal 0 0 -1
outer loop
vertex -9.500073125215373 8.61415360758616 -5.000277952400237
vertex -12.800009582297916 11.143866566216309 -5.000277952400237
vertex -9.600169681132392 10.872825892077364 -5.000277952400237
endloop
endfacet
facet normal 0 0 -1
outer loop
vertex -9.500073125215373 8.61415360758616 -5.000277952400237
vertex -9.600169681132392 10.872825892077364 -5.000277952400237
vertex -6.399679802331046 10.559536671609807 -5.000277952400237
endloop
endfacet
facet normal 0 0 -1
outer loop
vertex -9.500073125215373 8.61415360758616 -5.000277952400237
vertex -6.399679802331046 10.559536671609807 -5.000277952400237
vertex -3.199839901165523 10.200749016634514 -5.000277952400237
endloop
endfacet
facet normal 0 0 -1
outer loop
vertex -9.500073125215373 8.61415360758616 -5.000277952400237
vertex -3.199839901165523 10.200749016634514 -5.000277952400237
vertex 0 9.793213038972361 -5.000277952400237
endloop
endfacet
facet normal 0 0 -1
outer loop
vertex -9.500073125215373 8.61415360758616 -5.000277952400237
vertex 0 9.793213038972361 -5.000277952400237
vertex 3.199839901165523 9.333678850444223 -5.000277952400237
endloop
endfacet
facet normal 0 0 -1
outer loop
vertex -9.500073125215373 8.61415360758616 -5.000277952400237
vertex 3.199839901165523 9.333678850444223 -5.000277952400237
vertex 6.399679802331046 8.820196518142625 -5.000277952400237
endloop
endfacet
facet normal 0 0 -1
outer loop
vertex -9.500073125215373 8.61415360758616 -5.000277952400237
vertex 6.399679802331046 8.820196518142625 -5.000277952400237
vertex 9.600169681132392 8.25016613152427 -5.000277952400237
endloop
endfacet
facet normal 0 0 -1
outer loop
vertex -9.500073125215373 8.61415360758616 -5.000277952400237
vertex 9.600169681132392 8.25016613152427 -5.000277952400237
vertex 12.800009582297916 7.622937712953331 -5.000277952400237
endloop
endfacet
facet normal 0 0 -1
outer loop
vertex -9.500073125215373 8.61415360758616 -5.000277952400237
vertex 12.800009582297916 7.622937712953331 -5.000277952400237
vertex 15.99984948346344 6.939161240065635 -5.000277952400237
endloop
endfacet
facet normal 0 0 -0.9999999999999999
outer loop
vertex -9.500073125215373 8.61415360758616 -5.000277952400237
vertex 15.99984948346344 6.939161240065635 -5.000277952400237
vertex 19.19968938462896 6.20013666813283 -5.000277952400237
endloop
endfacet
facet normal 0 0 -0.9999999999999999
outer loop
vertex -9.500073125215373 8.61415360758616 -5.000277952400237
vertex 19.19968938462896 6.20013666813283 -5.000277952400237
vertex 22.40017926343031 5.4084639076982155 -5.000277952400237
endloop
endfacet
facet normal 0 0 -0.9999999999999999
outer loop
vertex -9.500073125215373 8.61415360758616 -5.000277952400237
vertex 22.40017926343031 5.4084639076982155 -5.000277952400237
vertex 25.60001916459583 4.56804282457674 -5.000277952400237
endloop
endfacet
facet normal 0 0 -1
outer loop
vertex -9.500073125215373 8.61415360758616 -5.000277952400237
vertex 25.60001916459583 4.56804282457674 -5.000277952400237
vertex 28.799859065761353 3.6840732398550036 -5.000277952400237
endloop
endfacet
facet normal 0 0 -1
outer loop
vertex -9.500073125215373 8.61415360758616 -5.000277952400237
vertex 28.799859065761353 3.6840732398550036 -5.000277952400237
vertex 31.99969896692688 2.7650048627987274 -5.000277952400237
endloop
endfacet
facet normal 0 0 -1
outer loop
vertex -9.500073125215373 8.61415360758616 -5.000277952400237
vertex 31.99969896692688 2.7650048627987274 -5.000277952400237
vertex 35.20018884572823 1.817987447401984 -5.000277952400237
endloop
endfacet
facet normal 0 0 -1
outer loop
vertex -9.500073125215373 8.61415360758616 -5.000277952400237
vertex 35.20018884572823 1.817987447401984 -5.000277952400237
vertex 38.400028746893746 0.8540706134737959 -5.000277952400237
endloop
endfacet
facet normal 0 0 -0.9999999999999999
outer loop
vertex -9.500073125215373 8.61415360758616 -5.000277952400237
vertex 38.400028746893746 0.8540706134737959 -5.000277952400237
vertex 41.59986864805927 -0.11569601917681557 -5.000277952400237
endloop
endfacet
facet normal 0 0 -1
outer loop
vertex -9.500073125215373 8.61415360758616 -5.000277952400237
vertex 41.59986864805927 -0.11569601917681557 -5.000277952400237
vertex -79.99989739495302 -0.11569601917681557 -5.000277952400237
endloop
endfacet
facet normal 0 0 -1
outer loop
vertex -9.500073125215373 8.61415360758616 -5.000277952400237
vertex -79.99989739495302 -0.11569601917681557 -5.000277952400237
vertex -79.99989739495302 12.493220138188608 -5.000277952400237
endloop
endfacet
facet normal 0 0 -1
outer loop
vertex -9.500073125215373 8.61415360758616 -5.000277952400237
vertex -79.99989739495302 12.493220138188608 -5.000277952400237
vertex -51.20003832919166 12.408073067895558 -5.000277952400237
endloop
endfacet
facet normal 0 0 -0.9999999999999999
outer loop
vertex 41.59986864805927 -0.11569601917681557 -5.000277952400237
vertex 44.799708549224796 -1.078962875469179 -5.000277952400237
vertex -79.99989739495302 -1.078962875469179 -5.000277952400237
endloop
endfacet
facet normal 0 0 -1
outer loop
vertex 41.59986864805927 -0.11569601917681557 -5.000277952400237
vertex -79.99989739495302 -1.078962875469179 -5.000277952400237
vertex -79.99989739495302 -0.11569601917681557 -5.000277952400237
endloop
endfacet
facet normal 0 0 -1
outer loop
vertex 44.799708549224796 -1.078962875469179 -5.000277952400237
vertex 48.00019842802614 -2.0227304026867983 -5.000277952400237
vertex -79.99989739495302 -2.0227304026867983 -5.000277952400237
endloop
endfacet
facet normal 0 0 -1
outer loop
vertex 44.799708549224796 -1.078962875469179 -5.000277952400237
vertex -79.99989739495302 -2.0227304026867983 -5.000277952400237
vertex -79.99989739495302 -1.078962875469179 -5.000277952400237
endloop
endfacet
facet normal 0 0 -1
outer loop
vertex 48.00019842802614 -2.0227304026867983 -5.000277952400237
vertex 51.20003832919166 -2.933349070477352 -5.000277952400237
vertex -79.99989739495302 -2.933349070477352 -5.000277952400237
endloop
endfacet
facet normal 0 0 -1
outer loop
vertex 48.00019842802614 -2.0227304026867983 -5.000277952400237
vertex -79.99989739495302 -2.933349070477352 -5.000277952400237
vertex -79.99989739495302 -2.0227304026867983 -5.000277952400237
endloop
endfacet
facet normal 0 0 -1
outer loop
vertex 51.20003832919166 -2.933349070477352 -5.000277952400237
vertex 54.39987823035719 -3.796519370852695 -5.000277952400237
vertex -79.99989739495302 -3.796519370852695 -5.000277952400237
endloop
endfacet
facet normal 0 0 -1
outer loop
vertex 51.20003832919166 -2.933349070477352 -5.000277952400237
vertex -79.99989739495302 -3.796519370852695 -5.000277952400237
vertex -79.99989739495302 -2.933349070477352 -5.000277952400237
endloop
endfacet
facet normal 0 0 -1
outer loop
vertex 54.39987823035719 -3.796519370852695 -5.000277952400237
vertex 57.59971813152271 -4.597291818188857 -5.000277952400237
vertex -79.99989739495302 -4.597291818188857 -5.000277952400237
endloop
endfacet
facet normal 0 0 -1
outer loop
vertex 54.39987823035719 -3.796519370852695 -5.000277952400237
vertex -79.99989739495302 -4.597291818188857 -5.000277952400237
vertex -79.99989739495302 -3.796519370852695 -5.000277952400237
endloop
endfacet
facet normal 0 0 -1
outer loop
vertex 57.59971813152271 -4.597291818188857 -5.000277952400237
vertex 60.800208010324056 -5.323966815040991 -5.000277952400237
vertex -79.99989739495302 -5.323966815040991 -5.000277952400237
endloop
endfacet
facet normal 0 0 -1
outer loop
vertex 57.59971813152271 -4.597291818188857 -5.000277952400237
vertex -79.99989739495302 -5.323966815040991 -5.000277952400237
vertex -79.99989739495302 -4.597291818188857 -5.000277952400237
endloop
endfacet
facet normal 0 0 -0.9999999999999999
outer loop
vertex 60.800208010324056 -5.323966815040991 -5.000277952400237
vertex 64.00004791148957 -5.962244853420951 -5.000277952400237
vertex -79.99989739495302 -5.962244853420951 -5.000277952400237
endloop
endfacet
facet normal 0 0 -1
outer loop
vertex 60.800208010324056 -5.323966815040991 -5.000277952400237
vertex -79.99989739495302 -5.962244853420951 -5.000277952400237
vertex -79.99989739495302 -5.323966815040991 -5.000277952400237
endloop
endfacet
facet normal 0 0 -1
outer loop
vertex 64.00004791148957 -5.962244853420951 -5.000277952400237
vertex 67.1998878126551 -6.50172629115554 -5.000277952400237
vertex -79.99989739495302 -6.50172629115554 -5.000277952400237
endloop
endfacet
facet normal 0 0 -0.9999999999999999
outer loop
vertex 64.00004791148957 -5.962244853420951 -5.000277952400237
vertex -79.99989739495302 -6.50172629115554 -5.000277952400237
vertex -79.99989739495302 -5.962244853420951 -5.000277952400237
endloop
endfacet
facet normal 0 0 -1
outer loop
vertex 67.1998878126551 -6.50172629115554 -5.000277952400237
vertex 70.39972771382062 -6.932011486071562 -5.000277952400237
vertex -79.99989739495302 -6.932011486071562 -5.000277952400237
endloop
endfacet
facet normal 0 0 -1
outer loop
vertex 67.1998878126551 -6.50172629115554 -5.000277952400237
vertex -79.99989739495302 -6.932011486071562 -5.000277952400237
vertex -79.99989739495302 -6.50172629115554 -5.000277952400237
endloop
endfacet
facet normal 0 0 -0.9999999999999999
outer loop
vertex 70.39972771382062 -6.932011486071562 -5.000277952400237
vertex 73.60021759262197 -7.245950684174944 -5.000277952400237
vertex -79.99989739495302 -7.245950684174944 -5.000277952400237
endloop
endfacet
facet normal 0 0 -1
outer loop
vertex 70.39972771382062 -6.932011486071562 -5.000277952400237
vertex -79.99989739495302 -7.245950684174944 -5.000277952400237
vertex -79.99989739495302 -6.932011486071562 -5.000277952400237
endloop
endfacet
facet normal 0 0 -0.9999999999999999
outer loop
vertex 73.60021759262197 -7.245950684174944 -5.000277952400237
vertex 76.80005749378749 -7.436394131471612 -5.000277952400237
vertex -79.99989739495302 -7.436394131471612 -5.000277952400237
endloop
endfacet
facet normal 0 0 -1
outer loop
vertex 73.60021759262197 -7.245950684174944 -5.000277952400237
vertex -79.99989739495302 -7.436394131471612 -5.000277952400237
vertex -79.99989739495302 -7.245950684174944 -5.000277952400237
endloop
endfacet
facet normal 0 0 -1
outer loop
vertex 15.36027148981183 -9.474723997418206 -5.000277952400237
vertex 76.80005749378749 -7.436394131471612 -5.000277952400237
vertex 79.99989739495302 -7.500091939782443 -5.000277952400237
endloop
endfacet
facet normal 0 0 -1
outer loop
vertex 15.36027148981183 -9.474723997418206 -5.000277952400237
vertex 79.99989739495302 -7.500091939782443 -5.000277952400237
vertex 79.99989739495302 -12.499719914546855 -5.000277952400237
endloop
endfacet
facet normal 0 0 -1
outer loop
vertex 15.36027148981183 -9.474723997418206 -5.000277952400237
vertex 79.99989739495302 -12.499719914546855 -5.000277952400237
vertex -79.99989739495302 -12.499719914546855 -5.000277952400237
endloop
endfacet
facet normal 0 0 -0.9999999999999999
outer loop
vertex 15.36027148981183 -9.474723997418206 -5.000277952400237
vertex -79.99989739495302 -12.499719914546855 -5.000277952400237
vertex -79.99989739495302 -7.436394131471612 -5.000277952400237
endloop
endfacet
facet normal 0 0 -1
outer loop
vertex 15.36027148981183 -9.474723997418206 -5.000277952400237
vertex -79.99989739495302 -7.436394131471612 -5.000277952400237
vertex 76.80005749378749 -7.436394131471612 -5.000277952400237
endloop
endfacet
facet normal 0 0 1
outer loop
vertex -9.500073125215373 8.61415360758616 5.000277952400237
vertex -79.99989739495302 -0.11569601917681557 5.000277952400237
vertex 41.59986864805927 -0.11569601917681557 5.000277952400237
endloop
endfacet
facet normal 0 0 0.9999999999999999
outer loop
vertex -9.500073125215373 8.61415360758616 5.000277952400237
vertex 41.59986864805927 -0.11569601917681557 5.000277952400237
vertex 38.400028746893746 0.8540706134737959 5.000277952400237
endloop
endfacet
facet normal 0 0 1
outer loop
vertex -9.500073125215373 8.61415360758616 5.000277952400237
vertex 38.400028746893746 0.8540706134737959 5.000277952400237
vertex 35.20018884572823 1.817987447401984 5.000277952400237
endloop
endfacet
facet normal 0 0 1
outer loop
vertex -9.500073125215373 8.61415360758616 5.000277952400237
vertex 35.20018884572823 1.817987447401984 5.000277952400237
vertex 31.99969896692688 2.7650048627987274 5.000277952400237
endloop
endfacet
facet normal 0 0 1
outer loop
vertex -9.500073125215373 8.61415360758616 5.000277952400237
vertex 31.99969896692688 2.7650048627987274 5.000277952400237
vertex 28.799859065761353 3.6840732398550036 5.000277952400237
endloop
endfacet
facet normal 0 0 1
outer loop
vertex -9.500073125215373 8.61415360758616 5.000277952400237
vertex 28.799859065761353 3.6840732398550036 5.000277952400237
vertex 25.60001916459583 4.56804282457674 5.000277952400237
endloop
endfacet
facet normal 0 0 0.9999999999999999
outer loop
vertex -9.500073125215373 8.61415360758616 5.000277952400237
vertex 25.60001916459583 4.56804282457674 5.000277952400237
vertex 22.40017926343031 5.4084639076982155 5.000277952400237
endloop
endfacet
facet normal 0 0 0.9999999999999999
outer loop
vertex -9.500073125215373 8.61415360758616 5.000277952400237
vertex 22.40017926343031 5.4084639076982155 5.000277952400237
vertex 19.19968938462896 6.20013666813283 5.000277952400237
endloop
endfacet
facet normal 0 0 0.9999999999999999
outer loop
vertex -9.500073125215373 8.61415360758616 5.000277952400237
vertex 19.19968938462896 6.20013666813283 5.000277952400237
vertex 15.99984948346344 6.939161240065635 5.000277952400237
endloop
endfacet
facet normal 0 0 1
outer loop
vertex -9.500073125215373 8.61415360758616 5.000277952400237
vertex 15.99984948346344 6.939161240065635 5.000277952400237
vertex 12.800009582297916 7.622937712953331 5.000277952400237
endloop
endfacet
facet normal 0 0 1
outer loop
vertex -9.500073125215373 8.61415360758616 5.000277952400237
vertex 12.800009582297916 7.622937712953331 5.000277952400237
vertex 9.600169681132392 8.25016613152427 5.000277952400237
endloop
endfacet
facet normal 0 0 1
outer loop
vertex -9.500073125215373 8.61415360758616 5.000277952400237
vertex 9.600169681132392 8.25016613152427 5.000277952400237
vertex 6.399679802331046 8.820196518142625 5.000277952400237
endloop
endfacet
facet normal 0 0 1
outer loop
vertex -9.500073125215373 8.61415360758616 5.000277952400237
vertex 6.399679802331046 8.820196518142625 5.000277952400237
vertex 3.199839901165523 9.333678850444223 5.000277952400237
endloop
endfacet
facet normal 0 0 1
outer loop
vertex -9.500073125215373 8.61415360758616 5.000277952400237
vertex 3.199839901165523 9.333678850444223 5.000277952400237
vertex 0 9.793213038972361 5.000277952400237
endloop
endfacet
facet normal 0 0 1
outer loop
vertex -9.500073125215373 8.61415360758616 5.000277952400237
vertex 0 9.793213038972361 5.000277952400237
vertex -3.199839901165523 10.200749016634514 5.000277952400237
endloop
endfacet
facet normal 0 0 1
outer loop
vertex -9.500073125215373 8.61415360758616 5.000277952400237
vertex -3.199839901165523 10.200749016634514 5.000277952400237
vertex -6.399679802331046 10.559536671609807 5.000277952400237
endloop
endfacet
facet normal 0 0 1
outer loop
vertex -9.500073125215373 8.61415360758616 5.000277952400237
vertex -6.399679802331046 10.559536671609807 5.000277952400237
vertex -9.600169681132392 10.872825892077364 5.000277952400237
endloop
endfacet
facet normal 0 0 1
outer loop
vertex -9.500073125215373 8.61415360758616 5.000277952400237
vertex -9.600169681132392 10.872825892077364 5.000277952400237
vertex -12.800009582297916 11.143866566216309 5.000277952400237
endloop
endfacet
facet normal 0 0 1
outer loop
vertex -9.500073125215373 8.61415360758616 5.000277952400237
vertex -12.800009582297916 11.143866566216309 5.000277952400237
vertex -15.99984948346344 11.377208537477415 5.000277952400237
endloop
endfacet
facet normal 0 0 0.9999999999999999
outer loop
vertex -9.500073125215373 8.61415360758616 5.000277952400237
vertex -15.99984948346344 11.377208537477415 5.000277952400237
vertex -19.19968938462896 11.576101694039805 5.000277952400237
endloop
endfacet
facet normal 0 0 1
outer loop
vertex -9.500073125215373 8.61415360758616 5.000277952400237
vertex -19.19968938462896 11.576101694039805 5.000277952400237
vertex -22.40017926343031 11.745095879354254 5.000277952400237
endloop
endfacet
facet normal 0 0 1
outer loop
vertex -9.500073125215373 8.61415360758616 5.000277952400237
vertex -22.40017926343031 11.745095879354254 5.000277952400237
vertex -25.60001916459583 11.886791003964063 5.000277952400237
endloop
endfacet
facet normal 0 0 1
outer loop
vertex -9.500073125215373 8.61415360758616 5.000277952400237
vertex -25.60001916459583 11.886791003964063 5.000277952400237
vertex -28.799859065761353 12.005086933684177 5.000277952400237
endloop
endfacet
facet normal 0 0 0.9999999999999999
outer loop
vertex -9.500073125215373 8.61415360758616 5.000277952400237
vertex -28.799859065761353 12.005086933684177 5.000277952400237
vertex -31.99969896692688 12.103233556693723 5.000277952400237
endloop
endfacet
facet normal 0 0 1
outer loop
vertex -9.500073125215373 8.61415360758616 5.000277952400237
vertex -31.99969896692688 12.103233556693723 5.000277952400237
vertex -35.20018884572823 12.183830783536 5.000277952400237
endloop
endfacet
facet normal 0 0 1
outer loop
vertex -9.500073125215373 8.61415360758616 5.000277952400237
vertex -35.20018884572823 12.183830783536 5.000277952400237
vertex -38.400028746893746 12.249478524754306 5.000277952400237
endloop
endfacet
facet normal 0 0 1
outer loop
vertex -9.500073125215373 8.61415360758616 5.000277952400237
vertex -38.400028746893746 12.249478524754306 5.000277952400237
vertex -41.59986864805927 12.302776690891939 5.000277952400237
endloop
endfacet
facet normal 0 0 1
outer loop
vertex -9.500073125215373 8.61415360758616 5.000277952400237
vertex -41.59986864805927 12.302776690891939 5.000277952400237
vertex -44.799708549224796 12.3463251924922 5.000277952400237
endloop
endfacet
facet normal 0 0 1
outer loop
vertex -9.500073125215373 8.61415360758616 5.000277952400237
vertex -44.799708549224796 12.3463251924922 5.000277952400237
vertex -48.00019842802614 12.380774007190915 5.000277952400237
endloop
endfacet
facet normal 0 0 1
outer loop
vertex -9.500073125215373 8.61415360758616 5.000277952400237
vertex -48.00019842802614 12.380774007190915 5.000277952400237
vertex -51.20003832919166 12.408073067895558 5.000277952400237
endloop
endfacet
facet normal 0 0 1
outer loop
vertex -9.500073125215373 8.61415360758616 5.000277952400237
vertex -51.20003832919166 12.408073067895558 5.000277952400237
vertex -79.99989739495302 12.493220138188608 5.000277952400237
endloop
endfacet
facet normal 0 0 1
outer loop
vertex -9.500073125215373 8.61415360758616 5.000277952400237
vertex -79.99989739495302 12.493220138188608 5.000277952400237
vertex -79.99989739495302 -0.11569601917681557 5.000277952400237
endloop
endfacet
facet normal 0 0 0.9999999999999999
outer loop
vertex -79.99989739495302 -0.11569601917681557 5.000277952400237
vertex -79.99989739495302 -1.078962875469179 5.000277952400237
vertex 44.799708549224796 -1.078962875469179 5.000277952400237
endloop
endfacet
facet normal 0 0 1
outer loop
vertex -79.99989739495302 -0.11569601917681557 5.000277952400237
vertex 44.799708549224796 -1.078962875469179 5.000277952400237
vertex 41.59986864805927 -0.11569601917681557 5.000277952400237
endloop
endfacet
facet normal 0 0 0.9999999999999999
outer loop
vertex -79.99989739495302 -1.078962875469179 5.000277952400237
vertex -79.99989739495302 -2.0227304026867983 5.000277952400237
vertex 48.00019842802614 -2.0227304026867983 5.000277952400237
endloop
endfacet
facet normal 0 0 1
outer loop
vertex -79.99989739495302 -1.078962875469179 5.000277952400237
vertex 48.00019842802614 -2.0227304026867983 5.000277952400237
vertex 44.799708549224796 -1.078962875469179 5.000277952400237
endloop
endfacet
facet normal 0 0 0.9999999999999999
outer loop
vertex -79.99989739495302 -2.0227304026867983 5.000277952400237
vertex -79.99989739495302 -2.933349070477352 5.000277952400237
vertex 51.20003832919166 -2.933349070477352 5.000277952400237
endloop
endfacet
facet normal 0 0 1
outer loop
vertex -79.99989739495302 -2.0227304026867983 5.000277952400237
vertex 51.20003832919166 -2.933349070477352 5.000277952400237
vertex 48.00019842802614 -2.0227304026867983 5.000277952400237
endloop
endfacet
facet normal 0 0 1
outer loop
vertex -79.99989739495302 -2.933349070477352 5.000277952400237
vertex -79.99989739495302 -3.796519370852695 5.000277952400237
vertex 54.39987823035719 -3.796519370852695 5.000277952400237
endloop
endfacet
facet normal 0 0 1
outer loop
vertex -79.99989739495302 -2.933349070477352 5.000277952400237
vertex 54.39987823035719 -3.796519370852695 5.000277952400237
vertex 51.20003832919166 -2.933349070477352 5.000277952400237
endloop
endfacet
facet normal 0 0 0.9999999999999999
outer loop
vertex -79.99989739495302 -3.796519370852695 5.000277952400237
vertex -79.99989739495302 -4.597291818188857 5.000277952400237
vertex 57.59971813152271 -4.597291818188857 5.000277952400237
endloop
endfacet
facet normal 0 0 1
outer loop
vertex -79.99989739495302 -3.796519370852695 5.000277952400237
vertex 57.59971813152271 -4.597291818188857 5.000277952400237
vertex 54.39987823035719 -3.796519370852695 5.000277952400237
endloop
endfacet
facet normal 0 0 1
outer loop
vertex -79.99989739495302 -4.597291818188857 5.000277952400237
vertex -79.99989739495302 -5.323966815040991 5.000277952400237
vertex 60.800208010324056 -5.323966815040991 5.000277952400237
endloop
endfacet
facet normal 0 0 1
outer loop
vertex -79.99989739495302 -4.597291818188857 5.000277952400237
vertex 60.800208010324056 -5.323966815040991 5.000277952400237
vertex 57.59971813152271 -4.597291818188857 5.000277952400237
endloop
endfacet
facet normal 0 0 0.9999999999999999
outer loop
vertex -79.99989739495302 -5.323966815040991 5.000277952400237
vertex -79.99989739495302 -5.962244853420951 5.000277952400237
vertex 64.00004791148957 -5.962244853420951 5.000277952400237
endloop
endfacet
facet normal 0 0 1
outer loop
vertex -79.99989739495302 -5.323966815040991 5.000277952400237
vertex 64.00004791148957 -5.962244853420951 5.000277952400237
vertex 60.800208010324056 -5.323966815040991 5.000277952400237
endloop
endfacet
facet normal 0 0 1
outer loop
vertex -79.99989739495302 -5.962244853420951 5.000277952400237
vertex -79.99989739495302 -6.50172629115554 5.000277952400237
vertex 67.1998878126551 -6.50172629115554 5.000277952400237
endloop
endfacet
facet normal 0 0 0.9999999999999999
outer loop
vertex -79.99989739495302 -5.962244853420951 5.000277952400237
vertex 67.1998878126551 -6.50172629115554 5.000277952400237
vertex 64.00004791148957 -5.962244853420951 5.000277952400237
endloop
endfacet
facet normal 0 0 1
outer loop
vertex -79.99989739495302 -6.50172629115554 5.000277952400237
vertex -79.99989739495302 -6.932011486071562 5.000277952400237
vertex 70.39972771382062 -6.932011486071562 5.000277952400237
endloop
endfacet
facet normal 0 0 1
outer loop
vertex -79.99989739495302 -6.50172629115554 5.000277952400237
vertex 70.39972771382062 -6.932011486071562 5.000277952400237
vertex 67.1998878126551 -6.50172629115554 5.000277952400237
endloop
endfacet
facet normal 0 0 1
outer loop
vertex -79.99989739495302 -6.932011486071562 5.000277952400237
vertex -79.99989739495302 -7.245950684174944 5.000277952400237
vertex 73.60021759262197 -7.245950684174944 5.000277952400237
endloop
endfacet
facet normal 0 0 1
outer loop
vertex -79.99989739495302 -6.932011486071562 5.000277952400237
vertex 73.60021759262197 -7.245950684174944 5.000277952400237
vertex 70.39972771382062 -6.932011486071562 5.000277952400237
endloop
endfacet
facet normal 0 0 1
outer loop
vertex -79.99989739495302 -7.245950684174944 5.000277952400237
vertex -79.99989739495302 -7.436394131471612 5.000277952400237
vertex 76.80005749378749 -7.436394131471612 5.000277952400237
endloop
endfacet
facet normal 0 0 1
outer loop
vertex -79.99989739495302 -7.245950684174944 5.000277952400237
vertex 76.80005749378749 -7.436394131471612 5.000277952400237
vertex 73.60021759262197 -7.245950684174944 5.000277952400237
endloop
endfacet
facet normal 0 0 0.9999999999999999
outer loop
vertex 15.36027148981183 -9.474723997418206 5.000277952400237
vertex -79.99989739495302 -7.436394131471612 5.000277952400237
vertex -79.99989739495302 -12.499719914546855 5.000277952400237
endloop
endfacet
facet normal 0 0 1
outer loop
vertex 15.36027148981183 -9.474723997418206 5.000277952400237
vertex -79.99989739495302 -12.499719914546855 5.000277952400237
vertex 79.99989739495302 -12.499719914546855 5.000277952400237
endloop
endfacet
facet normal 0 0 1
outer loop
vertex 15.36027148981183 -9.474723997418206 5.000277952400237
vertex 79.99989739495302 -12.499719914546855 5.000277952400237
vertex 79.99989739495302 -7.500091939782443 5.000277952400237
endloop
endfacet
facet normal 0 0 1
outer loop
vertex 15.36027148981183 -9.474723997418206 5.000277952400237
vertex 79.99989739495302 -7.500091939782443 5.000277952400237
vertex 76.80005749378749 -7.436394131471612 5.000277952400237
endloop
endfacet
facet normal 0 0 1
outer loop
vertex 15.36027148981183 -9.474723997418206 5.000277952400237
vertex 76.80005749378749 -7.436394131471612 5.000277952400237
vertex -79.99989739495302 -7.436394131471612 5.000277952400237
endloop
endfacet
facet normal 1 0 0
outer loop
vertex 79.99989739495302 -12.499719914546855 5.000277952400237
vertex 79.99989739495302 -12.499719914546855 -5.000277952400237
vertex 79.99989739495302 -7.500091939782443 -5.000277952400237
endloop
endfacet
facet normal 1 0 0
outer loop
vertex 79.99989739495302 -12.499719914546855 5.000277952400237
vertex 79.99989739495302 -7.500091939782443 -5.000277952400237
vertex 79.99989739495302 -7.500091939782443 5.000277952400237
endloop
endfacet
endsolid JSCAD
