solid JSCAD
facet normal 1 0 0
outer loop
vertex 140.00027500000002 -19.512280000000004 4.000485
vertex 140.00027500000002 -69.99972000000001 0
vertex 140.00027500000002 -17.499930000000003 0
endloop
endfacet
facet normal 1 0 0
outer loop
vertex 140.00027500000002 -19.512280000000004 4.000485
vertex 140.00027500000002 -17.499930000000003 0
vertex 140.00027500000002 -16.999765000000004 0
endloop
endfacet
facet normal 1 0 0
outer loop
vertex 140.00027500000002 -19.512280000000004 4.000485
vertex 140.00027500000002 -16.999765000000004 0
vertex 140.00027500000002 -16.000270000000004 0
endloop
endfacet
facet normal 1 0 0
outer loop
vertex 140.00027500000002 -19.512280000000004 4.000485
vertex 140.00027500000002 -16.000270000000004 0
vertex 140.00027500000002 -14.499775000000001 0
endloop
endfacet
facet normal 1 0 0
outer loop
vertex 140.00027500000002 -19.512280000000004 4.000485
vertex 140.00027500000002 -14.499775000000001 0
vertex 140.00027500000002 -11.999785000000001 0
endloop
endfacet
facet normal 0.9999999999999999 0 0
outer loop
vertex 140.00027500000002 -19.512280000000004 4.000485
vertex 140.00027500000002 -11.999785000000001 0
vertex 140.00027500000002 -9.09983 0
endloop
endfacet
facet normal 1 0 0
outer loop
vertex 140.00027500000002 -19.512280000000004 4.000485
vertex 140.00027500000002 -9.09983 0
vertex 140.00027500000002 0 0
endloop
endfacet
facet normal 1 0 0
outer loop
vertex 140.00027500000002 -19.512280000000004 4.000485
vertex 140.00027500000002 0 0
vertex 140.00027500000002 0 8.000135000000002
endloop
endfacet
facet normal 1 0 0
outer loop
vertex 140.00027500000002 -19.512280000000004 4.000485
vertex 140.00027500000002 0 8.000135000000002
vertex 140.00027500000002 -9.09983 8.000135000000002
endloop
endfacet
facet normal 1 0 0
outer loop
vertex 140.00027500000002 -19.512280000000004 4.000485
vertex 140.00027500000002 -9.09983 8.000135000000002
vertex 140.00027500000002 -11.999785000000001 8.000135000000002
endloop
endfacet
facet normal 1 0 0
outer loop
vertex 140.00027500000002 -19.512280000000004 4.000485
vertex 140.00027500000002 -11.999785000000001 8.000135000000002
vertex 140.00027500000002 -14.499775000000001 8.000135000000002
endloop
endfacet
facet normal 1 0 0
outer loop
vertex 140.00027500000002 -19.512280000000004 4.000485
vertex 140.00027500000002 -14.499775000000001 8.000135000000002
vertex 140.00027500000002 -16.000270000000004 8.000135000000002
endloop
endfacet
facet normal 1 0 0
outer loop
vertex 140.00027500000002 -19.512280000000004 4.000485
vertex 140.00027500000002 -16.000270000000004 8.000135000000002
vertex 140.00027500000002 -16.999765000000004 8.000135000000002
endloop
endfacet
facet normal 1 0 0
outer loop
vertex 140.00027500000002 -19.512280000000004 4.000485
vertex 140.00027500000002 -16.999765000000004 8.000135000000002
vertex 140.00027500000002 -17.499930000000003 8.000135000000002
endloop
endfacet
facet normal 1 0 0
outer loop
vertex 140.00027500000002 -19.512280000000004 4.000485
vertex 140.00027500000002 -17.499930000000003 8.000135000000002
vertex 140.00027500000002 -69.99972000000001 8.000135000000002
endloop
endfacet
facet normal 1 0 0
outer loop
vertex 140.00027500000002 -19.512280000000004 4.000485
vertex 140.00027500000002 -69.99972000000001 8.000135000000002
vertex 140.00027500000002 -69.99972000000001 0
endloop
endfacet
facet normal 0.04995425455978756 0.9987515068581253 0
outer loop
vertex 0 -17.499930000000003 8.000135000000002
vertex 0 -17.499930000000003 0
vertex -9.999960000000002 -16.999765000000004 0
endloop
endfacet
facet normal 0.04995425455978756 0.9987515068581253 0
outer loop
vertex 0 -17.499930000000003 8.000135000000002
vertex -9.999960000000002 -16.999765000000004 0
vertex -9.999960000000002 -16.999765000000004 8.000135000000002
endloop
endfacet
facet normal -0.04995425455978756 0.9987515068581253 0
outer loop
vertex 9.999960000000002 -16.999765000000004 8.000135000000002
vertex 9.999960000000002 -16.999765000000004 0
vertex 0 -17.499930000000003 0
endloop
endfacet
facet normal -0.04995425455978756 0.9987515068581253 0
outer loop
vertex 9.999960000000002 -16.999765000000004 8.000135000000002
vertex 0 -17.499930000000003 0
vertex 0 -17.499930000000003 8.000135000000002
endloop
endfacet
facet normal -0.09945436067099528 0.9950421248085548 0
outer loop
vertex 19.999920000000003 -16.000270000000004 8.000135000000002
vertex 19.999920000000003 -16.000270000000004 0
vertex 9.999960000000002 -16.999765000000004 0
endloop
endfacet
facet normal -0.09945436067099528 0.9950421248085548 0
outer loop
vertex 19.999920000000003 -16.000270000000004 8.000135000000002
vertex 9.999960000000002 -16.999765000000004 0
vertex 9.999960000000002 -16.999765000000004 8.000135000000002
endloop
endfacet
facet normal -0.1483889080531687 0.9889290833860577 0
outer loop
vertex 29.999880000000005 -14.499775000000001 8.000135000000002
vertex 29.999880000000005 -14.499775000000001 0
vertex 19.999920000000003 -16.000270000000004 0
endloop
endfacet
facet normal -0.1483889080531687 0.9889290833860577 0
outer loop
vertex 29.999880000000005 -14.499775000000001 8.000135000000002
vertex 19.999920000000003 -16.000270000000004 0
vertex 19.999920000000003 -16.000270000000004 8.000135000000002
endloop
endfacet
facet normal -0.242535625036333 0.970142500145332 0
outer loop
vertex 39.999840000000006 -11.999785000000001 8.000135000000002
vertex 39.999840000000006 -11.999785000000001 0
vertex 29.999880000000005 -14.499775000000001 0
endloop
endfacet
facet normal -0.242535625036333 0.970142500145332 0
outer loop
vertex 39.999840000000006 -11.999785000000001 8.000135000000002
vertex 29.999880000000005 -14.499775000000001 0
vertex 29.999880000000005 -14.499775000000001 8.000135000000002
endloop
endfacet
facet normal -0.2785214912471661 0.9604299968834038 0
outer loop
vertex 49.99980000000001 -9.09983 8.000135000000002
vertex 49.99980000000001 -9.09983 0
vertex 39.999840000000006 -11.999785000000001 0
endloop
endfacet
facet normal -0.2785214912471661 0.9604299968834038 0
outer loop
vertex 49.99980000000001 -9.09983 8.000135000000002
vertex 39.999840000000006 -11.999785000000001 0
vertex 39.999840000000006 -11.999785000000001 8.000135000000002
endloop
endfacet
facet normal -0.32191407140400485 0.9467688897677707 0
outer loop
vertex 59.99976000000001 -5.6997100000000005 8.000135000000002
vertex 59.99976000000001 -5.6997100000000005 0
vertex 49.99980000000001 -9.09983 0
endloop
endfacet
facet normal -0.32191407140400485 0.9467688897677707 0
outer loop
vertex 59.99976000000001 -5.6997100000000005 8.000135000000002
vertex 49.99980000000001 -9.09983 0
vertex 49.99980000000001 -9.09983 8.000135000000002
endloop
endfacet
facet normal -0.2515763211489001 0.9678374629229772 0
outer loop
vertex 69.99972000000001 -3.1003550000000004 8.000135000000002
vertex 69.99972000000001 -3.1003550000000004 0
vertex 59.99976000000001 -5.6997100000000005 0
endloop
endfacet
facet normal -0.2515763211489001 0.9678374629229772 0
outer loop
vertex 69.99972000000001 -3.1003550000000004 8.000135000000002
vertex 59.99976000000001 -5.6997100000000005 0
vertex 59.99976000000001 -5.6997100000000005 8.000135000000002
endloop
endfacet
facet normal -0.17717847032207604 0.9841787386721627 0
outer loop
vertex 79.99968000000001 -1.3000950000000002 8.000135000000002
vertex 79.99968000000001 -1.3000950000000002 0
vertex 69.99972000000001 -3.1003550000000004 0
endloop
endfacet
facet normal -0.17717847032207604 0.9841787386721627 0
outer loop
vertex 79.99968000000001 -1.3000950000000002 8.000135000000002
vertex 69.99972000000001 -3.1003550000000004 0
vertex 69.99972000000001 -3.1003550000000004 8.000135000000002
endloop
endfacet
facet normal -0.0797386058699337 0.9968158078270626 0
outer loop
vertex 89.99964000000001 -0.5001650000000001 8.000135000000002
vertex 89.99964000000001 -0.5001650000000001 0
vertex 79.99968000000001 -1.3000950000000002 0
endloop
endfacet
facet normal -0.0797386058699337 0.9968158078270626 0
outer loop
vertex 89.99964000000001 -0.5001650000000001 8.000135000000002
vertex 79.99968000000001 -1.3000950000000002 0
vertex 79.99968000000001 -1.3000950000000002 8.000135000000002
endloop
endfacet
facet normal -0.04995425455978766 0.9987515068581253 0
outer loop
vertex 99.99960000000002 0 8.000135000000002
vertex 99.99960000000002 0 0
vertex 89.99964000000001 -0.5001650000000001 0
endloop
endfacet
facet normal -0.04995425455978766 0.9987515068581253 0
outer loop
vertex 99.99960000000002 0 8.000135000000002
vertex 89.99964000000001 -0.5001650000000001 0
vertex 89.99964000000001 -0.5001650000000001 8.000135000000002
endloop
endfacet
facet normal 0 1 0
outer loop
vertex 140.00027500000002 0 8.000135000000002
vertex 140.00027500000002 0 0
vertex 99.99960000000002 0 0
endloop
endfacet
facet normal 0 1 0
outer loop
vertex 140.00027500000002 0 8.000135000000002
vertex 99.99960000000002 0 0
vertex 99.99960000000002 0 8.000135000000002
endloop
endfacet
facet normal 0 0 -1
outer loop
vertex 91.24963500000001 -3.5996850000000005 0
vertex 140.00027500000002 0 0
vertex 140.00027500000002 -9.09983 0
endloop
endfacet
facet normal 0 0 -1
outer loop
vertex 91.24963500000001 -3.5996850000000005 0
vertex 140.00027500000002 -9.09983 0
vertex 49.99980000000001 -9.09983 0
endloop
endfacet
facet normal 0 0 -0.9999999999999999
outer loop
vertex 91.24963500000001 -3.5996850000000005 0
vertex 49.99980000000001 -9.09983 0
vertex 59.99976000000001 -5.6997100000000005 0
endloop
endfacet
facet normal 0 0 -0.9999999999999999
outer loop
vertex 91.24963500000001 -3.5996850000000005 0
vertex 59.99976000000001 -5.6997100000000005 0
vertex 69.99972000000001 -3.1003550000000004 0
endloop
endfacet
facet normal 0 0 -1
outer loop
vertex 91.24963500000001 -3.5996850000000005 0
vertex 69.99972000000001 -3.1003550000000004 0
vertex 79.99968000000001 -1.3000950000000002 0
endloop
endfacet
facet normal 0 0 -1
outer loop
vertex 91.24963500000001 -3.5996850000000005 0
vertex 79.99968000000001 -1.3000950000000002 0
vertex 89.99964000000001 -0.5001650000000001 0
endloop
endfacet
facet normal 0 0 -1
outer loop
vertex 91.24963500000001 -3.5996850000000005 0
vertex 89.99964000000001 -0.5001650000000001 0
vertex 99.99960000000002 0 0
endloop
endfacet
facet normal 0 0 -1
outer loop
vertex 91.24963500000001 -3.5996850000000005 0
vertex 99.99960000000002 0 0
vertex 140.00027500000002 0 0
endloop
endfacet
facet normal 0 0 -1
outer loop
vertex 140.00027500000002 -9.09983 0
vertex 140.00027500000002 -11.999785000000001 0
vertex 39.999840000000006 -11.999785000000001 0
endloop
endfacet
facet normal 0 0 -1
outer loop
vertex 140.00027500000002 -9.09983 0
vertex 39.999840000000006 -11.999785000000001 0
vertex 49.99980000000001 -9.09983 0
endloop
endfacet
facet normal 0 0 -1
outer loop
vertex 140.00027500000002 -11.999785000000001 0
vertex 140.00027500000002 -14.499775000000001 0
vertex 29.999880000000005 -14.499775000000001 0
endloop
endfacet
facet normal 0 0 -0.9999999999999999
outer loop
vertex 140.00027500000002 -11.999785000000001 0
vertex 29.999880000000005 -14.499775000000001 0
vertex 39.999840000000006 -11.999785000000001 0
endloop
endfacet
facet normal 0 0 -0.9999999999999999
outer loop
vertex 140.00027500000002 -14.499775000000001 0
vertex 140.00027500000002 -16.000270000000004 0
vertex 19.999920000000003 -16.000270000000004 0
endloop
endfacet
facet normal 0 0 -1
outer loop
vertex 140.00027500000002 -14.499775000000001 0
vertex 19.999920000000003 -16.000270000000004 0
vertex 29.999880000000005 -14.499775000000001 0
endloop
endfacet
facet normal 0 0 -1
outer loop
vertex -9.999960000000002 -16.999765000000004 0
vertex -14.999940000000002 -16.999765000000004 0
vertex -14.999940000000002 -16.4996 0
endloop
endfacet
facet normal 0 0 -1
outer loop
vertex 140.00027500000002 -16.000270000000004 0
vertex 140.00027500000002 -16.999765000000004 0
vertex 9.999960000000002 -16.999765000000004 0
endloop
endfacet
facet normal 0 0 -1
outer loop
vertex 140.00027500000002 -16.000270000000004 0
vertex 9.999960000000002 -16.999765000000004 0
vertex 19.999920000000003 -16.000270000000004 0
endloop
endfacet
facet normal 0 0 -0.9999999999999999
outer loop
vertex -9.999960000000002 -16.999765000000004 0
vertex 0 -17.499930000000003 0
vertex -14.999940000000002 -17.499930000000003 0
endloop
endfacet
facet normal 0 0 -1
outer loop
vertex -9.999960000000002 -16.999765000000004 0
vertex -14.999940000000002 -17.499930000000003 0
vertex -14.999940000000002 -16.999765000000004 0
endloop
endfacet
facet normal 0 0 -1
outer loop
vertex 140.00027500000002 -16.999765000000004 0
vertex 140.00027500000002 -17.499930000000003 0
vertex 0 -17.499930000000003 0
endloop
endfacet
facet normal 0 0 -1
outer loop
vertex 140.00027500000002 -16.999765000000004 0
vertex 0 -17.499930000000003 0
vertex 9.999960000000002 -16.999765000000004 0
endloop
endfacet
facet normal 0 0 -1
outer loop
vertex 58.33310000000001 -43.74982500000001 0
vertex 0 -17.499930000000003 0
vertex 140.00027500000002 -17.499930000000003 0
endloop
endfacet
facet normal 0 0 -1
outer loop
vertex 58.33310000000001 -43.74982500000001 0
vertex 140.00027500000002 -17.499930000000003 0
vertex 140.00027500000002 -69.99972000000001 0
endloop
endfacet
facet normal 0 0 -1
outer loop
vertex 58.33310000000001 -43.74982500000001 0
vertex 140.00027500000002 -69.99972000000001 0
vertex 99.99960000000002 -69.99972000000001 0
endloop
endfacet
facet normal 0 0 -1
outer loop
vertex 58.33310000000001 -43.74982500000001 0
vertex 99.99960000000002 -69.99972000000001 0
vertex -14.999940000000002 -69.99972000000001 0
endloop
endfacet
facet normal 0 0 -0.9999999999999999
outer loop
vertex 58.33310000000001 -43.74982500000001 0
vertex -14.999940000000002 -69.99972000000001 0
vertex -14.999940000000002 -17.499930000000003 0
endloop
endfacet
facet normal 0 0 -1
outer loop
vertex 58.33310000000001 -43.74982500000001 0
vertex -14.999940000000002 -17.499930000000003 0
vertex 0 -17.499930000000003 0
endloop
endfacet
facet normal 0 0 -1
outer loop
vertex 99.99960000000002 -69.99972000000001 0
vertex 89.99964000000001 -70.499885 0
vertex -14.999940000000002 -70.499885 0
endloop
endfacet
facet normal 0 0 -1
outer loop
vertex 99.99960000000002 -69.99972000000001 0
vertex -14.999940000000002 -70.499885 0
vertex -14.999940000000002 -69.99972000000001 0
endloop
endfacet
facet normal 0 0 -1
outer loop
vertex 89.99964000000001 -70.499885 0
vertex 79.99968000000001 -71.29981500000001 0
vertex -14.999940000000002 -71.29981500000001 0
endloop
endfacet
facet normal 0 0 -1
outer loop
vertex 89.99964000000001 -70.499885 0
vertex -14.999940000000002 -71.29981500000001 0
vertex -14.999940000000002 -70.499885 0
endloop
endfacet
facet normal 0 0 -1
outer loop
vertex 79.99968000000001 -71.29981500000001 0
vertex 69.99972000000001 -73.10007500000002 0
vertex -14.999940000000002 -73.10007500000002 0
endloop
endfacet
facet normal 0 0 -1
outer loop
vertex 79.99968000000001 -71.29981500000001 0
vertex -14.999940000000002 -73.10007500000002 0
vertex -14.999940000000002 -71.29981500000001 0
endloop
endfacet
facet normal 0 0 -1
outer loop
vertex 69.99972000000001 -73.10007500000002 0
vertex 59.99976000000001 -75.70026500000002 0
vertex -14.999940000000002 -75.70026500000002 0
endloop
endfacet
facet normal 0 0 -1
outer loop
vertex 69.99972000000001 -73.10007500000002 0
vertex -14.999940000000002 -75.70026500000002 0
vertex -14.999940000000002 -73.10007500000002 0
endloop
endfacet
facet normal 0 0 -1
outer loop
vertex 16.999765000000004 -83.10003500000002 0
vertex 59.99976000000001 -75.70026500000002 0
vertex 49.99980000000001 -79.10038500000002 0
endloop
endfacet
facet normal 0 0 -1
outer loop
vertex 16.999765000000004 -83.10003500000002 0
vertex 49.99980000000001 -79.10038500000002 0
vertex 39.999840000000006 -82.00034000000001 0
endloop
endfacet
facet normal 0 0 -1
outer loop
vertex 16.999765000000004 -83.10003500000002 0
vertex 39.999840000000006 -82.00034000000001 0
vertex 29.999880000000005 -84.50033000000002 0
endloop
endfacet
facet normal 0 0 -1
outer loop
vertex 16.999765000000004 -83.10003500000002 0
vertex 29.999880000000005 -84.50033000000002 0
vertex 19.999920000000003 -85.99999000000001 0
endloop
endfacet
facet normal 0 0 -1
outer loop
vertex 16.999765000000004 -83.10003500000002 0
vertex 19.999920000000003 -85.99999000000001 0
vertex 9.999960000000002 -87.00032000000002 0
endloop
endfacet
facet normal 0 0 -1
outer loop
vertex 16.999765000000004 -83.10003500000002 0
vertex 9.999960000000002 -87.00032000000002 0
vertex 0 -87.49965000000002 0
endloop
endfacet
facet normal 0 0 -1
outer loop
vertex 16.999765000000004 -83.10003500000002 0
vertex 0 -87.49965000000002 0
vertex -9.999960000000002 -87.00032000000002 0
endloop
endfacet
facet normal 0 0 -1
outer loop
vertex 16.999765000000004 -83.10003500000002 0
vertex -9.999960000000002 -87.00032000000002 0
vertex -14.999940000000002 -86.500155 0
endloop
endfacet
facet normal 0 0 -0.9999999999999999
outer loop
vertex 16.999765000000004 -83.10003500000002 0
vertex -14.999940000000002 -86.500155 0
vertex -14.999940000000002 -75.70026500000002 0
endloop
endfacet
facet normal 0 0 -1
outer loop
vertex 16.999765000000004 -83.10003500000002 0
vertex -14.999940000000002 -75.70026500000002 0
vertex 59.99976000000001 -75.70026500000002 0
endloop
endfacet
facet normal 0 0 1
outer loop
vertex 91.24963500000001 -3.5996850000000005 8.000135000000002
vertex 99.99960000000002 0 8.000135000000002
vertex 89.99964000000001 -0.5001650000000001 8.000135000000002
endloop
endfacet
facet normal 0 0 1
outer loop
vertex 91.24963500000001 -3.5996850000000005 8.000135000000002
vertex 89.99964000000001 -0.5001650000000001 8.000135000000002
vertex 79.99968000000001 -1.3000950000000002 8.000135000000002
endloop
endfacet
facet normal 0 0 1
outer loop
vertex 91.24963500000001 -3.5996850000000005 8.000135000000002
vertex 79.99968000000001 -1.3000950000000002 8.000135000000002
vertex 69.99972000000001 -3.1003550000000004 8.000135000000002
endloop
endfacet
facet normal 0 0 0.9999999999999999
outer loop
vertex 91.24963500000001 -3.5996850000000005 8.000135000000002
vertex 69.99972000000001 -3.1003550000000004 8.000135000000002
vertex 59.99976000000001 -5.6997100000000005 8.000135000000002
endloop
endfacet
facet normal 0 0 0.9999999999999999
outer loop
vertex 91.24963500000001 -3.5996850000000005 8.000135000000002
vertex 59.99976000000001 -5.6997100000000005 8.000135000000002
vertex 49.99980000000001 -9.09983 8.000135000000002
endloop
endfacet
facet normal 0 0 1
outer loop
vertex 91.24963500000001 -3.5996850000000005 8.000135000000002
vertex 49.99980000000001 -9.09983 8.000135000000002
vertex 140.00027500000002 -9.09983 8.000135000000002
endloop
endfacet
facet normal 0 0 1
outer loop
vertex 91.24963500000001 -3.5996850000000005 8.000135000000002
vertex 140.00027500000002 -9.09983 8.000135000000002
vertex 140.00027500000002 0 8.000135000000002
endloop
endfacet
facet normal 0 0 1
outer loop
vertex 91.24963500000001 -3.5996850000000005 8.000135000000002
vertex 140.00027500000002 0 8.000135000000002
vertex 99.99960000000002 0 8.000135000000002
endloop
endfacet
facet normal 0 0 1
outer loop
vertex 49.99980000000001 -9.09983 8.000135000000002
vertex 39.999840000000006 -11.999785000000001 8.000135000000002
vertex 140.00027500000002 -11.999785000000001 8.000135000000002
endloop
endfacet
facet normal 0 0 1
outer loop
vertex 49.99980000000001 -9.09983 8.000135000000002
vertex 140.00027500000002 -11.999785000000001 8.000135000000002
vertex 140.00027500000002 -9.09983 8.000135000000002
endloop
endfacet
facet normal 0 0 1
outer loop
vertex 39.999840000000006 -11.999785000000001 8.000135000000002
vertex 29.999880000000005 -14.499775000000001 8.000135000000002
vertex 140.00027500000002 -14.499775000000001 8.000135000000002
endloop
endfacet
facet normal 0 0 0.9999999999999999
outer loop
vertex 39.999840000000006 -11.999785000000001 8.000135000000002
vertex 140.00027500000002 -14.499775000000001 8.000135000000002
vertex 140.00027500000002 -11.999785000000001 8.000135000000002
endloop
endfacet
facet normal 0 0 0.9999999999999999
outer loop
vertex 29.999880000000005 -14.499775000000001 8.000135000000002
vertex 19.999920000000003 -16.000270000000004 8.000135000000002
vertex 140.00027500000002 -16.000270000000004 8.000135000000002
endloop
endfacet
facet normal 0 0 1
outer loop
vertex 29.999880000000005 -14.499775000000001 8.000135000000002
vertex 140.00027500000002 -16.000270000000004 8.000135000000002
vertex 140.00027500000002 -14.499775000000001 8.000135000000002
endloop
endfacet
facet normal 0 0 1
outer loop
vertex 19.999920000000003 -16.000270000000004 8.000135000000002
vertex 9.999960000000002 -16.999765000000004 8.000135000000002
vertex 140.00027500000002 -16.999765000000004 8.000135000000002
endloop
endfacet
facet normal 0 0 1
outer loop
vertex 19.999920000000003 -16.000270000000004 8.000135000000002
vertex 140.00027500000002 -16.999765000000004 8.000135000000002
vertex 140.00027500000002 -16.000270000000004 8.000135000000002
endloop
endfacet
facet normal 0 0 1
outer loop
vertex -14.999940000000002 -16.999765000000004 8.000135000000002
vertex -9.999960000000002 -16.999765000000004 8.000135000000002
vertex -14.999940000000002 -16.4996 8.000135000000002
endloop
endfacet
facet normal 0 0 1
outer loop
vertex 9.999960000000002 -16.999765000000004 8.000135000000002
vertex 0 -17.499930000000003 8.000135000000002
vertex 140.00027500000002 -17.499930000000003 8.000135000000002
endloop
endfacet
facet normal 0 0 1
outer loop
vertex 9.999960000000002 -16.999765000000004 8.000135000000002
vertex 140.00027500000002 -17.499930000000003 8.000135000000002
vertex 140.00027500000002 -16.999765000000004 8.000135000000002
endloop
endfacet
facet normal 0 0 1
outer loop
vertex -14.999940000000002 -16.999765000000004 8.000135000000002
vertex -14.999940000000002 -17.499930000000003 8.000135000000002
vertex 0 -17.499930000000003 8.000135000000002
endloop
endfacet
facet normal 0 0 1
outer loop
vertex -14.999940000000002 -16.999765000000004 8.000135000000002
vertex 0 -17.499930000000003 8.000135000000002
vertex -9.999960000000002 -16.999765000000004 8.000135000000002
endloop
endfacet
facet normal 0 0 1
outer loop
vertex 58.33310000000001 -43.74982500000001 8.000135000000002
vertex 0 -17.499930000000003 8.000135000000002
vertex -14.999940000000002 -17.499930000000003 8.000135000000002
endloop
endfacet
facet normal 0 0 0.9999999999999999
outer loop
vertex 58.33310000000001 -43.74982500000001 8.000135000000002
vertex -14.999940000000002 -17.499930000000003 8.000135000000002
vertex -14.999940000000002 -69.99972000000001 8.000135000000002
endloop
endfacet
facet normal 0 0 1
outer loop
vertex 58.33310000000001 -43.74982500000001 8.000135000000002
vertex -14.999940000000002 -69.99972000000001 8.000135000000002
vertex 99.99960000000002 -69.99972000000001 8.000135000000002
endloop
endfacet
facet normal 0 0 1
outer loop
vertex 58.33310000000001 -43.74982500000001 8.000135000000002
vertex 99.99960000000002 -69.99972000000001 8.000135000000002
vertex 140.00027500000002 -69.99972000000001 8.000135000000002
endloop
endfacet
facet normal 0 0 1
outer loop
vertex 58.33310000000001 -43.74982500000001 8.000135000000002
vertex 140.00027500000002 -69.99972000000001 8.000135000000002
vertex 140.00027500000002 -17.499930000000003 8.000135000000002
endloop
endfacet
facet normal 0 0 1
outer loop
vertex 58.33310000000001 -43.74982500000001 8.000135000000002
vertex 140.00027500000002 -17.499930000000003 8.000135000000002
vertex 0 -17.499930000000003 8.000135000000002
endloop
endfacet
facet normal 0 0 1
outer loop
vertex -14.999940000000002 -69.99972000000001 8.000135000000002
vertex -14.999940000000002 -70.499885 8.000135000000002
vertex 89.99964000000001 -70.499885 8.000135000000002
endloop
endfacet
facet normal 0 0 1
outer loop
vertex -14.999940000000002 -69.99972000000001 8.000135000000002
vertex 89.99964000000001 -70.499885 8.000135000000002
vertex 99.99960000000002 -69.99972000000001 8.000135000000002
endloop
endfacet
facet normal 0 0 1
outer loop
vertex -14.999940000000002 -70.499885 8.000135000000002
vertex -14.999940000000002 -71.29981500000001 8.000135000000002
vertex 79.99968000000001 -71.29981500000001 8.000135000000002
endloop
endfacet
facet normal 0 0 1
outer loop
vertex -14.999940000000002 -70.499885 8.000135000000002
vertex 79.99968000000001 -71.29981500000001 8.000135000000002
vertex 89.99964000000001 -70.499885 8.000135000000002
endloop
endfacet
facet normal 0 0 1
outer loop
vertex -14.999940000000002 -71.29981500000001 8.000135000000002
vertex -14.999940000000002 -73.10007500000002 8.000135000000002
vertex 69.99972000000001 -73.10007500000002 8.000135000000002
endloop
endfacet
facet normal 0 0 1
outer loop
vertex -14.999940000000002 -71.29981500000001 8.000135000000002
vertex 69.99972000000001 -73.10007500000002 8.000135000000002
vertex 79.99968000000001 -71.29981500000001 8.000135000000002
endloop
endfacet
facet normal 0 0 1
outer loop
vertex -14.999940000000002 -73.10007500000002 8.000135000000002
vertex -14.999940000000002 -75.70026500000002 8.000135000000002
vertex 59.99976000000001 -75.70026500000002 8.000135000000002
endloop
endfacet
facet normal 0 0 1
outer loop
vertex -14.999940000000002 -73.10007500000002 8.000135000000002
vertex 59.99976000000001 -75.70026500000002 8.000135000000002
vertex 69.99972000000001 -73.10007500000002 8.000135000000002
endloop
endfacet
facet normal 0 0 0.9999999999999999
outer loop
vertex 16.999765000000004 -83.10003500000002 8.000135000000002
vertex -14.999940000000002 -75.70026500000002 8.000135000000002
vertex -14.999940000000002 -86.500155 8.000135000000002
endloop
endfacet
facet normal 0 0 1
outer loop
vertex 16.999765000000004 -83.10003500000002 8.000135000000002
vertex -14.999940000000002 -86.500155 8.000135000000002
vertex -9.999960000000002 -87.00032000000002 8.000135000000002
endloop
endfacet
facet normal 0 0 1
outer loop
vertex 16.999765000000004 -83.10003500000002 8.000135000000002
vertex -9.999960000000002 -87.00032000000002 8.000135000000002
vertex 0 -87.49965000000002 8.000135000000002
endloop
endfacet
facet normal 0 0 1
outer loop
vertex 16.999765000000004 -83.10003500000002 8.000135000000002
vertex 0 -87.49965000000002 8.000135000000002
vertex 9.999960000000002 -87.00032000000002 8.000135000000002
endloop
endfacet
facet normal 0 0 1
outer loop
vertex 16.999765000000004 -83.10003500000002 8.000135000000002
vertex 9.999960000000002 -87.00032000000002 8.000135000000002
vertex 19.999920000000003 -85.99999000000001 8.000135000000002
endloop
endfacet
facet normal 0 0 1
outer loop
vertex 16.999765000000004 -83.10003500000002 8.000135000000002
vertex 19.999920000000003 -85.99999000000001 8.000135000000002
vertex 29.999880000000005 -84.50033000000002 8.000135000000002
endloop
endfacet
facet normal 0 0 1
outer loop
vertex 16.999765000000004 -83.10003500000002 8.000135000000002
vertex 29.999880000000005 -84.50033000000002 8.000135000000002
vertex 39.999840000000006 -82.00034000000001 8.000135000000002
endloop
endfacet
facet normal 0 0 1
outer loop
vertex 16.999765000000004 -83.10003500000002 8.000135000000002
vertex 39.999840000000006 -82.00034000000001 8.000135000000002
vertex 49.99980000000001 -79.10038500000002 8.000135000000002
endloop
endfacet
facet normal 0 0 1
outer loop
vertex 16.999765000000004 -83.10003500000002 8.000135000000002
vertex 49.99980000000001 -79.10038500000002 8.000135000000002
vertex 59.99976000000001 -75.70026500000002 8.000135000000002
endloop
endfacet
facet normal 0 0 1
outer loop
vertex 16.999765000000004 -83.10003500000002 8.000135000000002
vertex 59.99976000000001 -75.70026500000002 8.000135000000002
vertex -14.999940000000002 -75.70026500000002 8.000135000000002
endloop
endfacet
facet normal 0 -1 0
outer loop
vertex 99.99960000000002 -69.99972000000001 8.000135000000002
vertex 99.99960000000002 -69.99972000000001 0
vertex 140.00027500000002 -69.99972000000001 0
endloop
endfacet
facet normal 0 -1 0
outer loop
vertex 99.99960000000002 -69.99972000000001 8.000135000000002
vertex 140.00027500000002 -69.99972000000001 0
vertex 140.00027500000002 -69.99972000000001 8.000135000000002
endloop
endfacet
facet normal -0.04987106606471255 -0.9987556641989916 0
outer loop
vertex -9.999960000000002 -87.00032000000002 8.000135000000002
vertex -9.999960000000002 -87.00032000000002 0
vertex 0 -87.49965000000002 0
endloop
endfacet
facet normal -0.04987106606471255 -0.9987556641989916 0
outer loop
vertex -9.999960000000002 -87.00032000000002 8.000135000000002
vertex 0 -87.49965000000002 0
vertex 0 -87.49965000000002 8.000135000000002
endloop
endfacet
facet normal 0.04987106606471255 -0.9987556641989916 0
outer loop
vertex 0 -87.49965000000002 8.000135000000002
vertex 0 -87.49965000000002 0
vertex 9.999960000000002 -87.00032000000002 0
endloop
endfacet
facet normal 0.04987106606471255 -0.9987556641989916 0
outer loop
vertex 0 -87.49965000000002 8.000135000000002
vertex 9.999960000000002 -87.00032000000002 0
vertex 9.999960000000002 -87.00032000000002 8.000135000000002
endloop
endfacet
facet normal 0.09953662417962984 -0.9950338991446085 0
outer loop
vertex 9.999960000000002 -87.00032000000002 8.000135000000002
vertex 9.999960000000002 -87.00032000000002 0
vertex 19.999920000000003 -85.99999000000001 0
endloop
endfacet
facet normal 0.09953662417962984 -0.9950338991446085 0
outer loop
vertex 9.999960000000002 -87.00032000000002 8.000135000000002
vertex 19.999920000000003 -85.99999000000001 0
vertex 19.999920000000003 -85.99999000000001 8.000135000000002
endloop
endfacet
facet normal 0.14830814892138708 -0.9889411979301457 0
outer loop
vertex 19.999920000000003 -85.99999000000001 8.000135000000002
vertex 19.999920000000003 -85.99999000000001 0
vertex 29.999880000000005 -84.50033000000002 0
endloop
endfacet
facet normal 0.14830814892138708 -0.9889411979301457 0
outer loop
vertex 19.999920000000003 -85.99999000000001 8.000135000000002
vertex 29.999880000000005 -84.50033000000002 0
vertex 29.999880000000005 -84.50033000000002 8.000135000000002
endloop
endfacet
facet normal 0.2425356250363339 -0.9701425001453315 0
outer loop
vertex 29.999880000000005 -84.50033000000002 8.000135000000002
vertex 29.999880000000005 -84.50033000000002 0
vertex 39.999840000000006 -82.00034000000001 0
endloop
endfacet
facet normal 0.2425356250363339 -0.9701425001453315 0
outer loop
vertex 29.999880000000005 -84.50033000000002 8.000135000000002
vertex 39.999840000000006 -82.00034000000001 0
vertex 39.999840000000006 -82.00034000000001 8.000135000000002
endloop
endfacet
facet normal 0.27852149124716524 -0.9604299968834039 0
outer loop
vertex 39.999840000000006 -82.00034000000001 8.000135000000002
vertex 39.999840000000006 -82.00034000000001 0
vertex 49.99980000000001 -79.10038500000002 0
endloop
endfacet
facet normal 0.27852149124716524 -0.9604299968834039 0
outer loop
vertex 39.999840000000006 -82.00034000000001 8.000135000000002
vertex 49.99980000000001 -79.10038500000002 0
vertex 49.99980000000001 -79.10038500000002 8.000135000000002
endloop
endfacet
facet normal 0.32191407140400496 -0.9467688897677707 0
outer loop
vertex 49.99980000000001 -79.10038500000002 8.000135000000002
vertex 49.99980000000001 -79.10038500000002 0
vertex 59.99976000000001 -75.70026500000002 0
endloop
endfacet
facet normal 0.32191407140400496 -0.9467688897677707 0
outer loop
vertex 49.99980000000001 -79.10038500000002 8.000135000000002
vertex 59.99976000000001 -75.70026500000002 0
vertex 59.99976000000001 -75.70026500000002 8.000135000000002
endloop
endfacet
facet normal 0.2516520187737804 -0.9678177831839426 0
outer loop
vertex 59.99976000000001 -75.70026500000002 8.000135000000002
vertex 59.99976000000001 -75.70026500000002 0
vertex 69.99972000000001 -73.10007500000002 0
endloop
endfacet
facet normal 0.2516520187737804 -0.9678177831839426 0
outer loop
vertex 59.99976000000001 -75.70026500000002 8.000135000000002
vertex 69.99972000000001 -73.10007500000002 0
vertex 69.99972000000001 -73.10007500000002 8.000135000000002
endloop
endfacet
facet normal 0.17717847032207684 -0.9841787386721624 0
outer loop
vertex 69.99972000000001 -73.10007500000002 8.000135000000002
vertex 69.99972000000001 -73.10007500000002 0
vertex 79.99968000000001 -71.29981500000001 0
endloop
endfacet
facet normal 0.17717847032207684 -0.9841787386721624 0
outer loop
vertex 69.99972000000001 -73.10007500000002 8.000135000000002
vertex 79.99968000000001 -71.29981500000001 0
vertex 79.99968000000001 -71.29981500000001 8.000135000000002
endloop
endfacet
facet normal 0.07973860586993402 -0.9968158078270626 0
outer loop
vertex 79.99968000000001 -71.29981500000001 8.000135000000002
vertex 79.99968000000001 -71.29981500000001 0
vertex 89.99964000000001 -70.499885 0
endloop
endfacet
facet normal 0.07973860586993402 -0.9968158078270626 0
outer loop
vertex 79.99968000000001 -71.29981500000001 8.000135000000002
vertex 89.99964000000001 -70.499885 0
vertex 89.99964000000001 -70.499885 8.000135000000002
endloop
endfacet
facet normal 0.049954254559787206 -0.9987515068581253 0
outer loop
vertex 89.99964000000001 -70.499885 8.000135000000002
vertex 89.99964000000001 -70.499885 0
vertex 99.99960000000002 -69.99972000000001 0
endloop
endfacet
facet normal 0.049954254559787206 -0.9987515068581253 0
outer loop
vertex 89.99964000000001 -70.499885 8.000135000000002
vertex 99.99960000000002 -69.99972000000001 0
vertex 99.99960000000002 -69.99972000000001 8.000135000000002
endloop
endfacet
facet normal -1 0 0
outer loop
vertex -14.999940000000002 -55.34463500000001 4.000485
vertex -14.999940000000002 -75.70026500000002 8.000135000000002
vertex -14.999940000000002 -73.10007500000002 8.000135000000002
endloop
endfacet
facet normal -1 0 0
outer loop
vertex -14.999940000000002 -55.34463500000001 4.000485
vertex -14.999940000000002 -73.10007500000002 8.000135000000002
vertex -14.999940000000002 -71.29981500000001 8.000135000000002
endloop
endfacet
facet normal -1 0 0
outer loop
vertex -14.999940000000002 -55.34463500000001 4.000485
vertex -14.999940000000002 -71.29981500000001 8.000135000000002
vertex -14.999940000000002 -70.499885 8.000135000000002
endloop
endfacet
facet normal -1 0 0
outer loop
vertex -14.999940000000002 -55.34463500000001 4.000485
vertex -14.999940000000002 -70.499885 8.000135000000002
vertex -14.999940000000002 -69.99972000000001 8.000135000000002
endloop
endfacet
facet normal -1 0 0
outer loop
vertex -14.999940000000002 -55.34463500000001 4.000485
vertex -14.999940000000002 -69.99972000000001 8.000135000000002
vertex -14.999940000000002 -17.499930000000003 8.000135000000002
endloop
endfacet
facet normal -1 0 0
outer loop
vertex -14.999940000000002 -55.34463500000001 4.000485
vertex -14.999940000000002 -17.499930000000003 8.000135000000002
vertex -14.999940000000002 -16.999765000000004 8.000135000000002
endloop
endfacet
facet normal -1 0 0
outer loop
vertex -14.999940000000002 -55.34463500000001 4.000485
vertex -14.999940000000002 -16.999765000000004 8.000135000000002
vertex -14.999940000000002 -16.4996 8.000135000000002
endloop
endfacet
facet normal -1 0 0
outer loop
vertex -14.999940000000002 -55.34463500000001 4.000485
vertex -14.999940000000002 -16.4996 8.000135000000002
vertex -14.999940000000002 -16.4996 0
endloop
endfacet
facet normal -1 0 0
outer loop
vertex -14.999940000000002 -55.34463500000001 4.000485
vertex -14.999940000000002 -16.4996 0
vertex -14.999940000000002 -16.999765000000004 0
endloop
endfacet
facet normal -1 0 0
outer loop
vertex -14.999940000000002 -55.34463500000001 4.000485
vertex -14.999940000000002 -16.999765000000004 0
vertex -14.999940000000002 -17.499930000000003 0
endloop
endfacet
facet normal -1 0 0
outer loop
vertex -14.999940000000002 -55.34463500000001 4.000485
vertex -14.999940000000002 -17.499930000000003 0
vertex -14.999940000000002 -69.99972000000001 0
endloop
endfacet
facet normal -1 0 0
outer loop
vertex -14.999940000000002 -55.34463500000001 4.000485
vertex -14.999940000000002 -69.99972000000001 0
vertex -14.999940000000002 -70.499885 0
endloop
endfacet
facet normal -1 0 0
outer loop
vertex -14.999940000000002 -55.34463500000001 4.000485
vertex -14.999940000000002 -70.499885 0
vertex -14.999940000000002 -71.29981500000001 0
endloop
endfacet
facet normal -1 0 0
outer loop
vertex -14.999940000000002 -55.34463500000001 4.000485
vertex -14.999940000000002 -71.29981500000001 0
vertex -14.999940000000002 -73.10007500000002 0
endloop
endfacet
facet normal -1 0 0
outer loop
vertex -14.999940000000002 -55.34463500000001 4.000485
vertex -14.999940000000002 -73.10007500000002 0
vertex -14.999940000000002 -75.70026500000002 0
endloop
endfacet
facet normal -1 0 0
outer loop
vertex -14.999940000000002 -55.34463500000001 4.000485
vertex -14.999940000000002 -75.70026500000002 0
vertex -14.999940000000002 -86.500155 0
endloop
endfacet
facet normal -1 0 0
outer loop
vertex -14.999940000000002 -55.34463500000001 4.000485
vertex -14.999940000000002 -86.500155 0
vertex -14.999940000000002 -86.500155 8.000135000000002
endloop
endfacet
facet normal -0.9999999999999999 0 0
outer loop
vertex -14.999940000000002 -55.34463500000001 4.000485
vertex -14.999940000000002 -86.500155 8.000135000000002
vertex -14.999940000000002 -75.70026500000002 8.000135000000002
endloop
endfacet
facet normal 0.09953662417962984 0.9950338991446085 0
outer loop
vertex -14.999940000000002 -16.4996 8.000135000000002
vertex -9.999960000000002 -16.999765000000004 8.000135000000002
vertex -9.999960000000002 -16.999765000000004 0
endloop
endfacet
facet normal 0.09953662417962984 0.9950338991446085 0
outer loop
vertex -14.999940000000002 -16.4996 8.000135000000002
vertex -9.999960000000002 -16.999765000000004 0
vertex -14.999940000000002 -16.4996 0
endloop
endfacet
facet normal -0.09953662417963124 -0.9950338991446085 0
outer loop
vertex -14.999940000000002 -86.500155 8.000135000000002
vertex -14.999940000000002 -86.500155 0
vertex -9.999960000000002 -87.00032000000002 0
endloop
endfacet
facet normal -0.09953662417963124 -0.9950338991446085 0
outer loop
vertex -14.999940000000002 -86.500155 8.000135000000002
vertex -9.999960000000002 -87.00032000000002 0
vertex -9.999960000000002 -87.00032000000002 8.000135000000002
endloop
endfacet
facet normal -1 0 0
outer loop
vertex -9.999923333333335 69.73361833333335 4.000448333333334
vertex -9.999923333333335 80.89990666666668 0
vertex -9.999923333333335 78.00036000000001 0
endloop
endfacet
facet normal -1 0 0
outer loop
vertex -9.999923333333335 69.73361833333335 4.000448333333334
vertex -9.999923333333335 78.00036000000001 0
vertex -9.999923333333335 75.49998000000002 0
endloop
endfacet
facet normal -1 0 0
outer loop
vertex -9.999923333333335 69.73361833333335 4.000448333333334
vertex -9.999923333333335 75.49998000000002 0
vertex -9.999923333333335 73.99991166666668 0
endloop
endfacet
facet normal -0.9999999999999999 0 0
outer loop
vertex -9.999923333333335 69.73361833333335 4.000448333333334
vertex -9.999923333333335 73.99991166666668 0
vertex -9.999923333333335 19.99984666666667 0
endloop
endfacet
facet normal -1 0 0
outer loop
vertex -9.999923333333335 69.73361833333335 4.000448333333334
vertex -9.999923333333335 19.99984666666667 0
vertex -9.999923333333335 19.99984666666667 8.000098333333336
endloop
endfacet
facet normal -1 0 0
outer loop
vertex -9.999923333333335 69.73361833333335 4.000448333333334
vertex -9.999923333333335 19.99984666666667 8.000098333333336
vertex -9.999923333333335 73.99991166666668 8.000098333333336
endloop
endfacet
facet normal -1 0 0
outer loop
vertex -9.999923333333335 69.73361833333335 4.000448333333334
vertex -9.999923333333335 73.99991166666668 8.000098333333336
vertex -9.999923333333335 75.49998000000002 8.000098333333336
endloop
endfacet
facet normal -1 0 0
outer loop
vertex -9.999923333333335 69.73361833333335 4.000448333333334
vertex -9.999923333333335 75.49998000000002 8.000098333333336
vertex -9.999923333333335 78.00036000000001 8.000098333333336
endloop
endfacet
facet normal -1 0 0
outer loop
vertex -9.999923333333335 69.73361833333335 4.000448333333334
vertex -9.999923333333335 78.00036000000001 8.000098333333336
vertex -9.999923333333335 80.89990666666668 8.000098333333336
endloop
endfacet
facet normal -1 0 0
outer loop
vertex -9.999923333333335 69.73361833333335 4.000448333333334
vertex -9.999923333333335 80.89990666666668 8.000098333333336
vertex -9.999923333333335 90.00010833333336 8.000098333333336
endloop
endfacet
facet normal -0.9999999999999999 0 0
outer loop
vertex -9.999923333333335 69.73361833333335 4.000448333333334
vertex -9.999923333333335 90.00010833333336 8.000098333333336
vertex -9.999923333333335 90.00010833333336 0
endloop
endfacet
facet normal -1 0 0
outer loop
vertex -9.999923333333335 69.73361833333335 4.000448333333334
vertex -9.999923333333335 90.00010833333336 0
vertex -9.999923333333335 80.89990666666668 0
endloop
endfacet
facet normal 0.04990978168258887 0.9987537302520558 0
outer loop
vertex 60.000338333333346 89.50035166666669 8.000098333333336
vertex 60.000338333333346 89.50035166666669 0
vertex 49.999616666666675 90.00010833333336 0
endloop
endfacet
facet normal 0.04990978168258887 0.9987537302520558 0
outer loop
vertex 60.000338333333346 89.50035166666669 8.000098333333336
vertex 49.999616666666675 90.00010833333336 0
vertex 49.999616666666675 90.00010833333336 8.000098333333336
endloop
endfacet
facet normal 0.07981796938089195 0.9968094560967561 0
outer loop
vertex 70.00026166666669 88.69962333333335 8.000098333333336
vertex 70.00026166666669 88.69962333333335 0
vertex 60.000338333333346 89.50035166666669 0
endloop
endfacet
facet normal 0.07981796938089195 0.9968094560967561 0
outer loop
vertex 70.00026166666669 88.69962333333335 8.000098333333336
vertex 60.000338333333346 89.50035166666669 0
vertex 60.000338333333346 89.50035166666669 8.000098333333336
endloop
endfacet
facet normal 0.1771012458935754 0.9841926380048488 0
outer loop
vertex 80.00018500000002 86.90018000000002 8.000098333333336
vertex 80.00018500000002 86.90018000000002 0
vertex 70.00026166666669 88.69962333333335 0
endloop
endfacet
facet normal 0.1771012458935754 0.9841926380048488 0
outer loop
vertex 80.00018500000002 86.90018000000002 8.000098333333336
vertex 70.00026166666669 88.69962333333335 0
vertex 70.00026166666669 88.69962333333335 8.000098333333336
endloop
endfacet
facet normal 0.2516512210901691 0.9678179905973162 0
outer loop
vertex 90.00010833333336 84.30000833333335 8.000098333333336
vertex 90.00010833333336 84.30000833333335 0
vertex 80.00018500000002 86.90018000000002 0
endloop
endfacet
facet normal 0.2516512210901691 0.9678179905973162 0
outer loop
vertex 90.00010833333336 84.30000833333335 8.000098333333336
vertex 80.00018500000002 86.90018000000002 0
vertex 80.00018500000002 86.90018000000002 8.000098333333336
endloop
endfacet
facet normal 0.32191357356315436 0.9467690590401651 0
outer loop
vertex 100.00003166666669 80.89990666666668 8.000098333333336
vertex 100.00003166666669 80.89990666666668 0
vertex 90.00010833333336 84.30000833333335 0
endloop
endfacet
facet normal 0.32191357356315436 0.9467690590401651 0
outer loop
vertex 100.00003166666669 80.89990666666668 8.000098333333336
vertex 90.00010833333336 84.30000833333335 0
vertex 90.00010833333336 84.30000833333335 8.000098333333336
endloop
endfacet
facet normal 0.2784862571512767 0.9604402139528899 0
outer loop
vertex 109.99995500000003 78.00036000000001 8.000098333333336
vertex 109.99995500000003 78.00036000000001 0
vertex 100.00003166666669 80.89990666666668 0
endloop
endfacet
facet normal 0.2784862571512767 0.9604402139528899 0
outer loop
vertex 109.99995500000003 78.00036000000001 8.000098333333336
vertex 100.00003166666669 80.89990666666668 0
vertex 100.00003166666669 80.89990666666668 8.000098333333336
endloop
endfacet
facet normal 0.24257207172442333 0.970133387745892 0
outer loop
vertex 119.99987833333336 75.49998000000002 8.000098333333336
vertex 119.99987833333336 75.49998000000002 0
vertex 109.99995500000003 78.00036000000001 0
endloop
endfacet
facet normal 0.24257207172442333 0.970133387745892 0
outer loop
vertex 119.99987833333336 75.49998000000002 8.000098333333336
vertex 109.99995500000003 78.00036000000001 0
vertex 109.99995500000003 78.00036000000001 8.000098333333336
endloop
endfacet
facet normal 0.14834817425563412 0.988935194638668 0
outer loop
vertex 129.99980166666668 73.99991166666668 8.000098333333336
vertex 129.99980166666668 73.99991166666668 0
vertex 119.99987833333336 75.49998000000002 0
endloop
endfacet
facet normal 0.14834817425563412 0.988935194638668 0
outer loop
vertex 129.99980166666668 73.99991166666668 8.000098333333336
vertex 119.99987833333336 75.49998000000002 0
vertex 119.99987833333336 75.49998000000002 8.000098333333336
endloop
endfacet
facet normal 0 1 0
outer loop
vertex 49.999616666666675 90.00010833333336 8.000098333333336
vertex 49.999616666666675 90.00010833333336 0
vertex -9.999923333333335 90.00010833333336 0
endloop
endfacet
facet normal 0 1 0
outer loop
vertex 49.999616666666675 90.00010833333336 8.000098333333336
vertex -9.999923333333335 90.00010833333336 0
vertex -9.999923333333335 90.00010833333336 8.000098333333336
endloop
endfacet
facet normal 0 0 -1
outer loop
vertex 53.75018666666668 86.40042333333335 0
vertex 49.999616666666675 90.00010833333336 0
vertex 60.000338333333346 89.50035166666669 0
endloop
endfacet
facet normal 0 0 -1
outer loop
vertex 53.75018666666668 86.40042333333335 0
vertex 60.000338333333346 89.50035166666669 0
vertex 70.00026166666669 88.69962333333335 0
endloop
endfacet
facet normal 0 0 -1
outer loop
vertex 53.75018666666668 86.40042333333335 0
vertex 70.00026166666669 88.69962333333335 0
vertex 80.00018500000002 86.90018000000002 0
endloop
endfacet
facet normal 0 0 -1
outer loop
vertex 53.75018666666668 86.40042333333335 0
vertex 80.00018500000002 86.90018000000002 0
vertex 90.00010833333336 84.30000833333335 0
endloop
endfacet
facet normal 0 0 -1
outer loop
vertex 53.75018666666668 86.40042333333335 0
vertex 90.00010833333336 84.30000833333335 0
vertex 100.00003166666669 80.89990666666668 0
endloop
endfacet
facet normal 0 0 -1
outer loop
vertex 53.75018666666668 86.40042333333335 0
vertex 100.00003166666669 80.89990666666668 0
vertex -9.999923333333335 80.89990666666668 0
endloop
endfacet
facet normal 0 0 -1
outer loop
vertex 53.75018666666668 86.40042333333335 0
vertex -9.999923333333335 80.89990666666668 0
vertex -9.999923333333335 90.00010833333336 0
endloop
endfacet
facet normal 0 0 -1
outer loop
vertex 53.75018666666668 86.40042333333335 0
vertex -9.999923333333335 90.00010833333336 0
vertex 49.999616666666675 90.00010833333336 0
endloop
endfacet
facet normal 0 0 -1
outer loop
vertex 100.00003166666669 80.89990666666668 0
vertex 109.99995500000003 78.00036000000001 0
vertex -9.999923333333335 78.00036000000001 0
endloop
endfacet
facet normal 0 0 -1
outer loop
vertex 100.00003166666669 80.89990666666668 0
vertex -9.999923333333335 78.00036000000001 0
vertex -9.999923333333335 80.89990666666668 0
endloop
endfacet
facet normal 0 0 -1
outer loop
vertex 109.99995500000003 78.00036000000001 0
vertex 119.99987833333336 75.49998000000002 0
vertex -9.999923333333335 75.49998000000002 0
endloop
endfacet
facet normal 0 0 -1
outer loop
vertex 109.99995500000003 78.00036000000001 0
vertex -9.999923333333335 75.49998000000002 0
vertex -9.999923333333335 78.00036000000001 0
endloop
endfacet
facet normal 0 0 -0.9999999999999999
outer loop
vertex 119.99987833333336 75.49998000000002 0
vertex 129.99980166666668 73.99991166666668 0
vertex -9.999923333333335 73.99991166666668 0
endloop
endfacet
facet normal 0 0 -1
outer loop
vertex 119.99987833333336 75.49998000000002 0
vertex -9.999923333333335 73.99991166666668 0
vertex -9.999923333333335 75.49998000000002 0
endloop
endfacet
facet normal 0 0 -1
outer loop
vertex 71.66638333333334 46.916453333333344 0
vertex 129.99980166666668 73.99991166666668 0
vertex 134.99976333333336 73.50015500000002 0
endloop
endfacet
facet normal 0 0 -1
outer loop
vertex 71.66638333333334 46.916453333333344 0
vertex 134.99976333333336 73.50015500000002 0
vertex 134.99976333333336 19.99984666666667 0
endloop
endfacet
facet normal 0 0 -1
outer loop
vertex 71.66638333333334 46.916453333333344 0
vertex 134.99976333333336 19.99984666666667 0
vertex 49.999616666666675 19.99984666666667 0
endloop
endfacet
facet normal 0 0 -0.9999999999999999
outer loop
vertex 71.66638333333334 46.916453333333344 0
vertex 49.999616666666675 19.99984666666667 0
vertex -9.999923333333335 19.99984666666667 0
endloop
endfacet
facet normal 0 0 -1
outer loop
vertex 71.66638333333334 46.916453333333344 0
vertex -9.999923333333335 19.99984666666667 0
vertex -9.999923333333335 73.99991166666668 0
endloop
endfacet
facet normal 0 0 -1
outer loop
vertex 71.66638333333334 46.916453333333344 0
vertex -9.999923333333335 73.99991166666668 0
vertex 129.99980166666668 73.99991166666668 0
endloop
endfacet
facet normal 0 0 -1
outer loop
vertex 134.99976333333336 19.99984666666667 0
vertex 134.99976333333336 19.500090000000004 0
vertex 60.000338333333346 19.500090000000004 0
endloop
endfacet
facet normal 0 0 -1
outer loop
vertex 134.99976333333336 19.99984666666667 0
vertex 60.000338333333346 19.500090000000004 0
vertex 49.999616666666675 19.99984666666667 0
endloop
endfacet
facet normal 0 0 -1
outer loop
vertex 134.99976333333336 19.500090000000004 0
vertex 134.99976333333336 18.700160000000004 0
vertex 70.00026166666669 18.700160000000004 0
endloop
endfacet
facet normal 0 0 -1
outer loop
vertex 134.99976333333336 19.500090000000004 0
vertex 70.00026166666669 18.700160000000004 0
vertex 60.000338333333346 19.500090000000004 0
endloop
endfacet
facet normal 0 0 -1
outer loop
vertex 134.99976333333336 18.700160000000004 0
vertex 134.99976333333336 16.899918333333336 0
vertex 80.00018500000002 16.899918333333336 0
endloop
endfacet
facet normal 0 0 -1
outer loop
vertex 134.99976333333336 18.700160000000004 0
vertex 80.00018500000002 16.899918333333336 0
vertex 70.00026166666669 18.700160000000004 0
endloop
endfacet
facet normal 0 0 -0.9999999999999999
outer loop
vertex 134.99976333333336 16.899918333333336 0
vertex 134.99976333333336 14.29974666666667 0
vertex 90.00010833333336 14.29974666666667 0
endloop
endfacet
facet normal 0 0 -1
outer loop
vertex 134.99976333333336 16.899918333333336 0
vertex 90.00010833333336 14.29974666666667 0
vertex 80.00018500000002 16.899918333333336 0
endloop
endfacet
facet normal 0 0 -0.9999999999999999
outer loop
vertex 117.14264333333335 8.642756666666669 0
vertex 134.99976333333336 14.29974666666667 0
vertex 134.99976333333336 3.499893333333334 0
endloop
endfacet
facet normal 0 0 -1
outer loop
vertex 117.14264333333335 8.642756666666669 0
vertex 134.99976333333336 3.499893333333334 0
vertex 129.99980166666668 3.999650000000001 0
endloop
endfacet
facet normal 0 0 -1
outer loop
vertex 117.14264333333335 8.642756666666669 0
vertex 129.99980166666668 3.999650000000001 0
vertex 119.99987833333336 5.499718333333335 0
endloop
endfacet
facet normal 0 0 -1
outer loop
vertex 117.14264333333335 8.642756666666669 0
vertex 119.99987833333336 5.499718333333335 0
vertex 109.99995500000003 8.000098333333336 0
endloop
endfacet
facet normal 0 0 -1
outer loop
vertex 117.14264333333335 8.642756666666669 0
vertex 109.99995500000003 8.000098333333336 0
vertex 100.00003166666669 10.899645000000003 0
endloop
endfacet
facet normal 0 0 -1
outer loop
vertex 117.14264333333335 8.642756666666669 0
vertex 100.00003166666669 10.899645000000003 0
vertex 90.00010833333336 14.29974666666667 0
endloop
endfacet
facet normal 0 0 -1
outer loop
vertex 117.14264333333335 8.642756666666669 0
vertex 90.00010833333336 14.29974666666667 0
vertex 134.99976333333336 14.29974666666667 0
endloop
endfacet
facet normal 0 0 1
outer loop
vertex 53.75018666666668 86.40042333333335 8.000098333333336
vertex -9.999923333333335 90.00010833333336 8.000098333333336
vertex -9.999923333333335 80.89990666666668 8.000098333333336
endloop
endfacet
facet normal 0 0 1
outer loop
vertex 53.75018666666668 86.40042333333335 8.000098333333336
vertex -9.999923333333335 80.89990666666668 8.000098333333336
vertex 100.00003166666669 80.89990666666668 8.000098333333336
endloop
endfacet
facet normal 0 0 1
outer loop
vertex 53.75018666666668 86.40042333333335 8.000098333333336
vertex 100.00003166666669 80.89990666666668 8.000098333333336
vertex 90.00010833333336 84.30000833333335 8.000098333333336
endloop
endfacet
facet normal 0 0 1
outer loop
vertex 53.75018666666668 86.40042333333335 8.000098333333336
vertex 90.00010833333336 84.30000833333335 8.000098333333336
vertex 80.00018500000002 86.90018000000002 8.000098333333336
endloop
endfacet
facet normal 0 0 1
outer loop
vertex 53.75018666666668 86.40042333333335 8.000098333333336
vertex 80.00018500000002 86.90018000000002 8.000098333333336
vertex 70.00026166666669 88.69962333333335 8.000098333333336
endloop
endfacet
facet normal 0 0 1
outer loop
vertex 53.75018666666668 86.40042333333335 8.000098333333336
vertex 70.00026166666669 88.69962333333335 8.000098333333336
vertex 60.000338333333346 89.50035166666669 8.000098333333336
endloop
endfacet
facet normal 0 0 1
outer loop
vertex 53.75018666666668 86.40042333333335 8.000098333333336
vertex 60.000338333333346 89.50035166666669 8.000098333333336
vertex 49.999616666666675 90.00010833333336 8.000098333333336
endloop
endfacet
facet normal 0 0 1
outer loop
vertex 53.75018666666668 86.40042333333335 8.000098333333336
vertex 49.999616666666675 90.00010833333336 8.000098333333336
vertex -9.999923333333335 90.00010833333336 8.000098333333336
endloop
endfacet
facet normal 0 0 1
outer loop
vertex -9.999923333333335 80.89990666666668 8.000098333333336
vertex -9.999923333333335 78.00036000000001 8.000098333333336
vertex 109.99995500000003 78.00036000000001 8.000098333333336
endloop
endfacet
facet normal 0 0 1
outer loop
vertex -9.999923333333335 80.89990666666668 8.000098333333336
vertex 109.99995500000003 78.00036000000001 8.000098333333336
vertex 100.00003166666669 80.89990666666668 8.000098333333336
endloop
endfacet
facet normal 0 0 1
outer loop
vertex -9.999923333333335 78.00036000000001 8.000098333333336
vertex -9.999923333333335 75.49998000000002 8.000098333333336
vertex 119.99987833333336 75.49998000000002 8.000098333333336
endloop
endfacet
facet normal 0 0 1
outer loop
vertex -9.999923333333335 78.00036000000001 8.000098333333336
vertex 119.99987833333336 75.49998000000002 8.000098333333336
vertex 109.99995500000003 78.00036000000001 8.000098333333336
endloop
endfacet
facet normal 0 0 1
outer loop
vertex -9.999923333333335 75.49998000000002 8.000098333333336
vertex -9.999923333333335 73.99991166666668 8.000098333333336
vertex 129.99980166666668 73.99991166666668 8.000098333333336
endloop
endfacet
facet normal 0 0 1
outer loop
vertex -9.999923333333335 75.49998000000002 8.000098333333336
vertex 129.99980166666668 73.99991166666668 8.000098333333336
vertex 119.99987833333336 75.49998000000002 8.000098333333336
endloop
endfacet
facet normal 0 0 1
outer loop
vertex 71.66638333333334 46.916453333333344 8.000098333333336
vertex -9.999923333333335 73.99991166666668 8.000098333333336
vertex -9.999923333333335 19.99984666666667 8.000098333333336
endloop
endfacet
facet normal 0 0 0.9999999999999999
outer loop
vertex 71.66638333333334 46.916453333333344 8.000098333333336
vertex -9.999923333333335 19.99984666666667 8.000098333333336
vertex 49.999616666666675 19.99984666666667 8.000098333333336
endloop
endfacet
facet normal 0 0 1
outer loop
vertex 71.66638333333334 46.916453333333344 8.000098333333336
vertex 49.999616666666675 19.99984666666667 8.000098333333336
vertex 134.99976333333336 19.99984666666667 8.000098333333336
endloop
endfacet
facet normal 0 0 1
outer loop
vertex 71.66638333333334 46.916453333333344 8.000098333333336
vertex 134.99976333333336 19.99984666666667 8.000098333333336
vertex 134.99976333333336 73.50015500000002 8.000098333333336
endloop
endfacet
facet normal 0 0 1
outer loop
vertex 71.66638333333334 46.916453333333344 8.000098333333336
vertex 134.99976333333336 73.50015500000002 8.000098333333336
vertex 129.99980166666668 73.99991166666668 8.000098333333336
endloop
endfacet
facet normal 0 0 1
outer loop
vertex 71.66638333333334 46.916453333333344 8.000098333333336
vertex 129.99980166666668 73.99991166666668 8.000098333333336
vertex -9.999923333333335 73.99991166666668 8.000098333333336
endloop
endfacet
facet normal 0 0 1
outer loop
vertex 49.999616666666675 19.99984666666667 8.000098333333336
vertex 60.000338333333346 19.500090000000004 8.000098333333336
vertex 134.99976333333336 19.500090000000004 8.000098333333336
endloop
endfacet
facet normal 0 0 1
outer loop
vertex 49.999616666666675 19.99984666666667 8.000098333333336
vertex 134.99976333333336 19.500090000000004 8.000098333333336
vertex 134.99976333333336 19.99984666666667 8.000098333333336
endloop
endfacet
facet normal 0 0 1
outer loop
vertex 60.000338333333346 19.500090000000004 8.000098333333336
vertex 70.00026166666669 18.700160000000004 8.000098333333336
vertex 134.99976333333336 18.700160000000004 8.000098333333336
endloop
endfacet
facet normal 0 0 1
outer loop
vertex 60.000338333333346 19.500090000000004 8.000098333333336
vertex 134.99976333333336 18.700160000000004 8.000098333333336
vertex 134.99976333333336 19.500090000000004 8.000098333333336
endloop
endfacet
facet normal 0 0 1
outer loop
vertex 70.00026166666669 18.700160000000004 8.000098333333336
vertex 80.00018500000002 16.899918333333336 8.000098333333336
vertex 134.99976333333336 16.899918333333336 8.000098333333336
endloop
endfacet
facet normal 0 0 1
outer loop
vertex 70.00026166666669 18.700160000000004 8.000098333333336
vertex 134.99976333333336 16.899918333333336 8.000098333333336
vertex 134.99976333333336 18.700160000000004 8.000098333333336
endloop
endfacet
facet normal 0 0 0.9999999999999999
outer loop
vertex 80.00018500000002 16.899918333333336 8.000098333333336
vertex 90.00010833333336 14.29974666666667 8.000098333333336
vertex 134.99976333333336 14.29974666666667 8.000098333333336
endloop
endfacet
facet normal 0 0 1
outer loop
vertex 80.00018500000002 16.899918333333336 8.000098333333336
vertex 134.99976333333336 14.29974666666667 8.000098333333336
vertex 134.99976333333336 16.899918333333336 8.000098333333336
endloop
endfacet
facet normal 0 0 1
outer loop
vertex 117.14264333333335 8.642756666666669 8.000098333333336
vertex 90.00010833333336 14.29974666666667 8.000098333333336
vertex 100.00003166666669 10.899645000000003 8.000098333333336
endloop
endfacet
facet normal 0 0 1
outer loop
vertex 117.14264333333335 8.642756666666669 8.000098333333336
vertex 100.00003166666669 10.899645000000003 8.000098333333336
vertex 109.99995500000003 8.000098333333336 8.000098333333336
endloop
endfacet
facet normal 0 0 1
outer loop
vertex 117.14264333333335 8.642756666666669 8.000098333333336
vertex 109.99995500000003 8.000098333333336 8.000098333333336
vertex 119.99987833333336 5.499718333333335 8.000098333333336
endloop
endfacet
facet normal 0 0 1
outer loop
vertex 117.14264333333335 8.642756666666669 8.000098333333336
vertex 119.99987833333336 5.499718333333335 8.000098333333336
vertex 129.99980166666668 3.999650000000001 8.000098333333336
endloop
endfacet
facet normal 0 0 1
outer loop
vertex 117.14264333333335 8.642756666666669 8.000098333333336
vertex 129.99980166666668 3.999650000000001 8.000098333333336
vertex 134.99976333333336 3.499893333333334 8.000098333333336
endloop
endfacet
facet normal 0 0 0.9999999999999999
outer loop
vertex 117.14264333333335 8.642756666666669 8.000098333333336
vertex 134.99976333333336 3.499893333333334 8.000098333333336
vertex 134.99976333333336 14.29974666666667 8.000098333333336
endloop
endfacet
facet normal 0 0 1
outer loop
vertex 117.14264333333335 8.642756666666669 8.000098333333336
vertex 134.99976333333336 14.29974666666667 8.000098333333336
vertex 90.00010833333336 14.29974666666667 8.000098333333336
endloop
endfacet
facet normal 0 -1 0
outer loop
vertex -9.999923333333335 19.99984666666667 8.000098333333336
vertex -9.999923333333335 19.99984666666667 0
vertex 49.999616666666675 19.99984666666667 0
endloop
endfacet
facet normal 0 -1 0
outer loop
vertex -9.999923333333335 19.99984666666667 8.000098333333336
vertex 49.999616666666675 19.99984666666667 0
vertex 49.999616666666675 19.99984666666667 8.000098333333336
endloop
endfacet
facet normal -0.049909781682588514 -0.9987537302520558 0
outer loop
vertex 49.999616666666675 19.99984666666667 8.000098333333336
vertex 49.999616666666675 19.99984666666667 0
vertex 60.000338333333346 19.500090000000004 0
endloop
endfacet
facet normal -0.049909781682588514 -0.9987537302520558 0
outer loop
vertex 49.999616666666675 19.99984666666667 8.000098333333336
vertex 60.000338333333346 19.500090000000004 0
vertex 60.000338333333346 19.500090000000004 8.000098333333336
endloop
endfacet
facet normal -0.0797388963880477 -0.9968157845875116 0
outer loop
vertex 60.000338333333346 19.500090000000004 8.000098333333336
vertex 60.000338333333346 19.500090000000004 0
vertex 70.00026166666669 18.700160000000004 0
endloop
endfacet
facet normal -0.0797388963880477 -0.9968157845875116 0
outer loop
vertex 60.000338333333346 19.500090000000004 8.000098333333336
vertex 70.00026166666669 18.700160000000004 0
vertex 70.00026166666669 18.700160000000004 8.000098333333336
endloop
endfacet
facet normal -0.17717735188760902 -0.9841789400195954 0
outer loop
vertex 70.00026166666669 18.700160000000004 8.000098333333336
vertex 70.00026166666669 18.700160000000004 0
vertex 80.00018500000002 16.899918333333336 0
endloop
endfacet
facet normal -0.17717735188760902 -0.9841789400195954 0
outer loop
vertex 70.00026166666669 18.700160000000004 8.000098333333336
vertex 80.00018500000002 16.899918333333336 0
vertex 80.00018500000002 16.899918333333336 8.000098333333336
endloop
endfacet
facet normal -0.2516512210901689 -0.9678179905973162 0
outer loop
vertex 80.00018500000002 16.899918333333336 8.000098333333336
vertex 80.00018500000002 16.899918333333336 0
vertex 90.00010833333336 14.29974666666667 0
endloop
endfacet
facet normal -0.2516512210901689 -0.9678179905973162 0
outer loop
vertex 80.00018500000002 16.899918333333336 8.000098333333336
vertex 90.00010833333336 14.29974666666667 0
vertex 90.00010833333336 14.29974666666667 8.000098333333336
endloop
endfacet
facet normal -0.32191357356315387 -0.9467690590401653 0
outer loop
vertex 90.00010833333336 14.29974666666667 8.000098333333336
vertex 90.00010833333336 14.29974666666667 0
vertex 100.00003166666669 10.899645000000003 0
endloop
endfacet
facet normal -0.32191357356315387 -0.9467690590401653 0
outer loop
vertex 90.00010833333336 14.29974666666667 8.000098333333336
vertex 100.00003166666669 10.899645000000003 0
vertex 100.00003166666669 10.899645000000003 8.000098333333336
endloop
endfacet
facet normal -0.27848625715127684 -0.9604402139528899 0
outer loop
vertex 100.00003166666669 10.899645000000003 8.000098333333336
vertex 100.00003166666669 10.899645000000003 0
vertex 109.99995500000003 8.000098333333336 0
endloop
endfacet
facet normal -0.27848625715127684 -0.9604402139528899 0
outer loop
vertex 100.00003166666669 10.899645000000003 8.000098333333336
vertex 109.99995500000003 8.000098333333336 0
vertex 109.99995500000003 8.000098333333336 8.000098333333336
endloop
endfacet
facet normal -0.24257207172442408 -0.9701333877458919 0
outer loop
vertex 109.99995500000003 8.000098333333336 8.000098333333336
vertex 109.99995500000003 8.000098333333336 0
vertex 119.99987833333336 5.499718333333335 0
endloop
endfacet
facet normal -0.24257207172442408 -0.9701333877458919 0
outer loop
vertex 109.99995500000003 8.000098333333336 8.000098333333336
vertex 119.99987833333336 5.499718333333335 0
vertex 119.99987833333336 5.499718333333335 8.000098333333336
endloop
endfacet
facet normal -0.148348174255633 -0.988935194638668 0
outer loop
vertex 119.99987833333336 5.499718333333335 8.000098333333336
vertex 119.99987833333336 5.499718333333335 0
vertex 129.99980166666668 3.999650000000001 0
endloop
endfacet
facet normal -0.148348174255633 -0.988935194638668 0
outer loop
vertex 119.99987833333336 5.499718333333335 8.000098333333336
vertex 129.99980166666668 3.999650000000001 0
vertex 129.99980166666668 3.999650000000001 8.000098333333336
endloop
endfacet
facet normal 1 0 0
outer loop
vertex 134.99976333333336 23.771173333333337 4.000448333333334
vertex 134.99976333333336 19.99984666666667 8.000098333333336
vertex 134.99976333333336 19.500090000000004 8.000098333333336
endloop
endfacet
facet normal 0.9999999999999999 0 0
outer loop
vertex 134.99976333333336 23.771173333333337 4.000448333333334
vertex 134.99976333333336 19.500090000000004 8.000098333333336
vertex 134.99976333333336 18.700160000000004 8.000098333333336
endloop
endfacet
facet normal 1 0 0
outer loop
vertex 134.99976333333336 23.771173333333337 4.000448333333334
vertex 134.99976333333336 18.700160000000004 8.000098333333336
vertex 134.99976333333336 16.899918333333336 8.000098333333336
endloop
endfacet
facet normal 1 0 0
outer loop
vertex 134.99976333333336 23.771173333333337 4.000448333333334
vertex 134.99976333333336 16.899918333333336 8.000098333333336
vertex 134.99976333333336 14.29974666666667 8.000098333333336
endloop
endfacet
facet normal 1 0 0
outer loop
vertex 134.99976333333336 23.771173333333337 4.000448333333334
vertex 134.99976333333336 14.29974666666667 8.000098333333336
vertex 134.99976333333336 3.499893333333334 8.000098333333336
endloop
endfacet
facet normal 1 0 0
outer loop
vertex 134.99976333333336 23.771173333333337 4.000448333333334
vertex 134.99976333333336 3.499893333333334 8.000098333333336
vertex 134.99976333333336 3.499893333333334 0
endloop
endfacet
facet normal 1 0 0
outer loop
vertex 134.99976333333336 23.771173333333337 4.000448333333334
vertex 134.99976333333336 3.499893333333334 0
vertex 134.99976333333336 14.29974666666667 0
endloop
endfacet
facet normal 1 0 0
outer loop
vertex 134.99976333333336 23.771173333333337 4.000448333333334
vertex 134.99976333333336 14.29974666666667 0
vertex 134.99976333333336 16.899918333333336 0
endloop
endfacet
facet normal 1 0 0
outer loop
vertex 134.99976333333336 23.771173333333337 4.000448333333334
vertex 134.99976333333336 16.899918333333336 0
vertex 134.99976333333336 18.700160000000004 0
endloop
endfacet
facet normal 1 0 0
outer loop
vertex 134.99976333333336 23.771173333333337 4.000448333333334
vertex 134.99976333333336 18.700160000000004 0
vertex 134.99976333333336 19.500090000000004 0
endloop
endfacet
facet normal 0.9999999999999999 0 0
outer loop
vertex 134.99976333333336 23.771173333333337 4.000448333333334
vertex 134.99976333333336 19.500090000000004 0
vertex 134.99976333333336 19.99984666666667 0
endloop
endfacet
facet normal 1 0 0
outer loop
vertex 134.99976333333336 23.771173333333337 4.000448333333334
vertex 134.99976333333336 19.99984666666667 0
vertex 134.99976333333336 73.50015500000002 0
endloop
endfacet
facet normal 1 0 0
outer loop
vertex 134.99976333333336 23.771173333333337 4.000448333333334
vertex 134.99976333333336 73.50015500000002 0
vertex 134.99976333333336 73.50015500000002 8.000098333333336
endloop
endfacet
facet normal 1 0 0
outer loop
vertex 134.99976333333336 23.771173333333337 4.000448333333334
vertex 134.99976333333336 73.50015500000002 8.000098333333336
vertex 134.99976333333336 19.99984666666667 8.000098333333336
endloop
endfacet
facet normal 0.09945652794590615 0.9950419081872608 0
outer loop
vertex 134.99976333333336 73.50015500000002 8.000098333333336
vertex 134.99976333333336 73.50015500000002 0
vertex 129.99980166666668 73.99991166666668 0
endloop
endfacet
facet normal 0.09945652794590615 0.9950419081872608 0
outer loop
vertex 134.99976333333336 73.50015500000002 8.000098333333336
vertex 129.99980166666668 73.99991166666668 0
vertex 129.99980166666668 73.99991166666668 8.000098333333336
endloop
endfacet
facet normal -0.09945652794590834 -0.9950419081872607 0
outer loop
vertex 134.99976333333336 3.499893333333334 8.000098333333336
vertex 129.99980166666668 3.999650000000001 8.000098333333336
vertex 129.99980166666668 3.999650000000001 0
endloop
endfacet
facet normal -0.09945652794590834 -0.9950419081872607 0
outer loop
vertex 134.99976333333336 3.499893333333334 8.000098333333336
vertex 129.99980166666668 3.999650000000001 0
vertex 134.99976333333336 3.499893333333334 0
endloop
endfacet
endsolid JSCAD
