solid JSCAD
facet normal 0 0 -1
outer loop
vertex 0 0 0
vertex 44.99979758967647 77.9419458414695 0
vertex 89.99959517935294 0 0
endloop
endfacet
facet normal 0 0 -1
outer loop
vertex 0 0 0
vertex 89.99959517935294 0 0
vertex 44.99979758967647 -77.9419458414695 0
endloop
endfacet
facet normal 0 0 -1
outer loop
vertex 0 0 0
vertex 44.99979758967647 -77.9419458414695 0
vertex -44.99979758967647 -77.9419458414695 0
endloop
endfacet
facet normal 0 0 -1
outer loop
vertex 0 0 0
vertex -44.99979758967647 -77.9419458414695 0
vertex -89.99959517935294 0 0
endloop
endfacet
facet normal 0 0 -1
outer loop
vertex 0 0 0
vertex -89.99959517935294 0 0
vertex -44.99979758967647 77.9419458414695 0
endloop
endfacet
facet normal 0 0 -1
outer loop
vertex 0 0 0
vertex -44.99979758967647 77.9419458414695 0
vertex 44.99979758967647 77.9419458414695 0
endloop
endfacet
facet normal 0.832050319184506 0.48038441359783407 -0.2773501063948355
outer loop
vertex 104.9995277092451 0 44.99979758967647
vertex 89.99959517935294 0 0
vertex 44.99979758967647 77.9419458414695 0
endloop
endfacet
facet normal 0.8320503191816055 0.48038312409127243 -0.2773523398821387
outer loop
vertex 104.9995277092451 0 44.99979758967647
vertex 44.99979758967647 77.9419458414695 0
vertex 52.49976385462255 90.93251424023376 44.99979758967647
endloop
endfacet
facet normal 0 0.9607675245552455 -0.27735494183444087
outer loop
vertex 44.99979758967647 77.9419458414695 0
vertex -44.99979758967647 77.9419458414695 0
vertex -52.49976385462255 90.93251424023376 44.99979758967647
endloop
endfacet
facet normal 0 0.9607675245552452 -0.27735494183444087
outer loop
vertex 44.99979758967647 77.9419458414695 0
vertex -52.49976385462255 90.93251424023376 44.99979758967647
vertex 52.49976385462255 90.93251424023376 44.99979758967647
endloop
endfacet
facet normal -0.8320497178569182 0.4803840664212343 -0.27735251169373265
outer loop
vertex -52.49976385462255 90.93251424023376 44.99979758967647
vertex -44.99979758967647 77.9419458414695 0
vertex -89.99959517935294 0 0
endloop
endfacet
facet normal -0.8320508346045606 0.48038342167001696 -0.27735027820152036
outer loop
vertex -52.49976385462255 90.93251424023376 44.99979758967647
vertex -89.99959517935294 0 0
vertex -104.9995277092451 0 44.99979758967647
endloop
endfacet
facet normal -0.832050319184506 -0.48038441359783407 -0.2773501063948355
outer loop
vertex -104.9995277092451 0 44.99979758967647
vertex -89.99959517935294 0 0
vertex -44.99979758967647 -77.9419458414695 0
endloop
endfacet
facet normal -0.8320503191816055 -0.48038312409127243 -0.2773523398821387
outer loop
vertex -104.9995277092451 0 44.99979758967647
vertex -44.99979758967647 -77.9419458414695 0
vertex -52.49976385462255 -90.93251424023376 44.99979758967647
endloop
endfacet
facet normal 0 -0.9607675245552454 -0.27735494183444087
outer loop
vertex -52.49976385462255 -90.93251424023376 44.99979758967647
vertex -44.99979758967647 -77.9419458414695 0
vertex 44.99979758967647 -77.9419458414695 0
endloop
endfacet
facet normal 0 -0.9607675245552454 -0.27735494183444087
outer loop
vertex -52.49976385462255 -90.93251424023376 44.99979758967647
vertex 44.99979758967647 -77.9419458414695 0
vertex 52.49976385462255 -90.93251424023376 44.99979758967647
endloop
endfacet
facet normal 0.8320497178569182 -0.4803840664212343 -0.27735251169373265
outer loop
vertex 52.49976385462255 -90.93251424023376 44.99979758967647
vertex 44.99979758967647 -77.9419458414695 0
vertex 89.99959517935294 0 0
endloop
endfacet
facet normal 0.8320508346045606 -0.48038342167001696 -0.27735027820152036
outer loop
vertex 52.49976385462255 -90.93251424023376 44.99979758967647
vertex 89.99959517935294 0 0
vertex 104.9995277092451 0 44.99979758967647
endloop
endfacet
facet normal -0.8236823376314704 -0.4755473759172282 0.3088723036016576
outer loop
vertex 49.53111874252614 85.7904752720194 44.99979758967647
vertex 42.49980883469444 73.61273274262541 7.499966264946078
vertex 84.99961766938888 0 7.499966264946078
endloop
endfacet
facet normal -0.8236769771941099 -0.4755497860750589 0.3088828875226653
outer loop
vertex 49.53111874252614 85.7904752720194 44.99979758967647
vertex 84.99961766938888 0 7.499966264946078
vertex 99.06223748505228 0 44.99979758967647
endloop
endfacet
facet normal 0 -0.9511063805536922 0.3088634858154248
outer loop
vertex -49.53111874252614 85.7904752720194 44.99979758967647
vertex -42.49980883469444 73.61273274262541 7.499966264946078
vertex 42.49980883469444 73.61273274262541 7.499966264946078
endloop
endfacet
facet normal 0 -0.9511063805536923 0.30886348581542483
outer loop
vertex -49.53111874252614 85.7904752720194 44.99979758967647
vertex 42.49980883469444 73.61273274262541 7.499966264946078
vertex 49.53111874252614 85.7904752720194 44.99979758967647
endloop
endfacet
facet normal 0.8236791334835033 -0.4755455260242681 0.30888369614171446
outer loop
vertex -99.06223748505228 0 44.99979758967647
vertex -84.99961766938888 0 7.499966264946078
vertex -42.49980883469444 73.61273274262541 7.499966264946078
endloop
endfacet
facet normal 0.823679726505406 -0.47555137338954606 0.30887311215335006
outer loop
vertex -99.06223748505228 0 44.99979758967647
vertex -42.49980883469444 73.61273274262541 7.499966264946078
vertex -49.53111874252614 85.7904752720194 44.99979758967647
endloop
endfacet
facet normal 0.8236823376314704 0.4755473759172282 0.3088723036016576
outer loop
vertex -49.53111874252614 -85.7904752720194 44.99979758967647
vertex -42.49980883469444 -73.61273274262541 7.499966264946078
vertex -84.99961766938888 0 7.499966264946078
endloop
endfacet
facet normal 0.8236769771941099 0.4755497860750589 0.3088828875226653
outer loop
vertex -49.53111874252614 -85.7904752720194 44.99979758967647
vertex -84.99961766938888 0 7.499966264946078
vertex -99.06223748505228 0 44.99979758967647
endloop
endfacet
facet normal 0 0.9511063805536922 0.3088634858154248
outer loop
vertex 42.49980883469444 -73.61273274262541 7.499966264946078
vertex -42.49980883469444 -73.61273274262541 7.499966264946078
vertex -49.53111874252614 -85.7904752720194 44.99979758967647
endloop
endfacet
facet normal 0 0.9511063805536923 0.30886348581542483
outer loop
vertex 42.49980883469444 -73.61273274262541 7.499966264946078
vertex -49.53111874252614 -85.7904752720194 44.99979758967647
vertex 49.53111874252614 -85.7904752720194 44.99979758967647
endloop
endfacet
facet normal -0.8236791334835033 0.4755455260242681 0.30888369614171446
outer loop
vertex 99.06223748505228 0 44.99979758967647
vertex 84.99961766938888 0 7.499966264946078
vertex 42.49980883469444 -73.61273274262541 7.499966264946078
endloop
endfacet
facet normal -0.823679726505406 0.47555137338954606 0.30887311215335006
outer loop
vertex 99.06223748505228 0 44.99979758967647
vertex 42.49980883469444 -73.61273274262541 7.499966264946078
vertex 49.53111874252614 -85.7904752720194 44.99979758967647
endloop
endfacet
facet normal 0 0 1
outer loop
vertex 0 87.50400007771886 44.99979758967647
vertex -52.49976385462255 90.93251424023376 44.99979758967647
vertex -55.468408966718954 85.7904752720194 44.99979758967647
endloop
endfacet
facet normal 0 0 1
outer loop
vertex 0 87.50400007771886 44.99979758967647
vertex -55.468408966718954 85.7904752720194 44.99979758967647
vertex -49.53111874252614 85.7904752720194 44.99979758967647
endloop
endfacet
facet normal 0 0 1
outer loop
vertex 0 87.50400007771886 44.99979758967647
vertex -49.53111874252614 85.7904752720194 44.99979758967647
vertex 49.53111874252614 85.7904752720194 44.99979758967647
endloop
endfacet
facet normal 0 0 1
outer loop
vertex 0 87.50400007771886 44.99979758967647
vertex 49.53111874252614 85.7904752720194 44.99979758967647
vertex 55.468408966718954 85.7904752720194 44.99979758967647
endloop
endfacet
facet normal 0 0 1
outer loop
vertex 0 87.50400007771886 44.99979758967647
vertex 55.468408966718954 85.7904752720194 44.99979758967647
vertex 52.49976385462255 90.93251424023376 44.99979758967647
endloop
endfacet
facet normal 0 0 1
outer loop
vertex 0 87.50400007771886 44.99979758967647
vertex 52.49976385462255 90.93251424023376 44.99979758967647
vertex -52.49976385462255 90.93251424023376 44.99979758967647
endloop
endfacet
facet normal 0 0 1
outer loop
vertex 49.53111874252614 85.7904752720194 44.99979758967647
vertex 99.06223748505228 0 44.99979758967647
vertex 104.9995277092451 0 44.99979758967647
endloop
endfacet
facet normal 0 0 0.9999999999999999
outer loop
vertex 49.53111874252614 85.7904752720194 44.99979758967647
vertex 104.9995277092451 0 44.99979758967647
vertex 55.468408966718954 85.7904752720194 44.99979758967647
endloop
endfacet
facet normal 0 0 1
outer loop
vertex -55.468408966718954 85.7904752720194 44.99979758967647
vertex -104.9995277092451 0 44.99979758967647
vertex -99.06223748505228 0 44.99979758967647
endloop
endfacet
facet normal 0 0 0.9999999999999999
outer loop
vertex -55.468408966718954 85.7904752720194 44.99979758967647
vertex -99.06223748505228 0 44.99979758967647
vertex -49.53111874252614 85.7904752720194 44.99979758967647
endloop
endfacet
facet normal 0 0 1
outer loop
vertex 99.06223748505228 0 44.99979758967647
vertex 49.53111874252614 -85.7904752720194 44.99979758967647
vertex 55.468408966718954 -85.7904752720194 44.99979758967647
endloop
endfacet
facet normal 0 0 1
outer loop
vertex 99.06223748505228 0 44.99979758967647
vertex 55.468408966718954 -85.7904752720194 44.99979758967647
vertex 104.9995277092451 0 44.99979758967647
endloop
endfacet
facet normal 0 0 1
outer loop
vertex -104.9995277092451 0 44.99979758967647
vertex -55.468408966718954 -85.7904752720194 44.99979758967647
vertex -49.53111874252614 -85.7904752720194 44.99979758967647
endloop
endfacet
facet normal 0 0 1
outer loop
vertex -104.9995277092451 0 44.99979758967647
vertex -49.53111874252614 -85.7904752720194 44.99979758967647
vertex -99.06223748505228 0 44.99979758967647
endloop
endfacet
facet normal 0 0 1
outer loop
vertex 0 -87.50400007771886 44.99979758967647
vertex 49.53111874252614 -85.7904752720194 44.99979758967647
vertex -49.53111874252614 -85.7904752720194 44.99979758967647
endloop
endfacet
facet normal 0 0 1
outer loop
vertex 0 -87.50400007771886 44.99979758967647
vertex -49.53111874252614 -85.7904752720194 44.99979758967647
vertex -55.468408966718954 -85.7904752720194 44.99979758967647
endloop
endfacet
facet normal 0 0 1
outer loop
vertex 0 -87.50400007771886 44.99979758967647
vertex -55.468408966718954 -85.7904752720194 44.99979758967647
vertex -52.49976385462255 -90.93251424023376 44.99979758967647
endloop
endfacet
facet normal 0 0 1
outer loop
vertex 0 -87.50400007771886 44.99979758967647
vertex -52.49976385462255 -90.93251424023376 44.99979758967647
vertex 52.49976385462255 -90.93251424023376 44.99979758967647
endloop
endfacet
facet normal 0 0 1
outer loop
vertex 0 -87.50400007771886 44.99979758967647
vertex 52.49976385462255 -90.93251424023376 44.99979758967647
vertex 55.468408966718954 -85.7904752720194 44.99979758967647
endloop
endfacet
facet normal 0 0 1
outer loop
vertex 0 -87.50400007771886 44.99979758967647
vertex 55.468408966718954 -85.7904752720194 44.99979758967647
vertex 49.53111874252614 -85.7904752720194 44.99979758967647
endloop
endfacet
facet normal 0 0 1
outer loop
vertex 0 32.62141155739288 7.499966264946078
vertex -42.49980883469444 73.61273274262541 7.499966264946078
vertex -78.0005278861088 12.125018689218626 7.499966264946078
endloop
endfacet
facet normal 0 0 1
outer loop
vertex 0 32.62141155739288 7.499966264946078
vertex -78.0005278861088 12.125018689218626 7.499966264946078
vertex -7.000554334396066 12.125018689218626 7.499966264946078
endloop
endfacet
facet normal 0 0 1
outer loop
vertex 0 32.62141155739288 7.499966264946078
vertex -7.000554334396066 12.125018689218626 7.499966264946078
vertex 7.000554334396066 12.125018689218626 7.499966264946078
endloop
endfacet
facet normal 0 0 1
outer loop
vertex 0 32.62141155739288 7.499966264946078
vertex 7.000554334396066 12.125018689218626 7.499966264946078
vertex 78.0005278861088 12.125018689218626 7.499966264946078
endloop
endfacet
facet normal 0 0 1
outer loop
vertex 0 32.62141155739288 7.499966264946078
vertex 78.0005278861088 12.125018689218626 7.499966264946078
vertex 42.49980883469444 73.61273274262541 7.499966264946078
endloop
endfacet
facet normal 0 0 1
outer loop
vertex 0 32.62141155739288 7.499966264946078
vertex 42.49980883469444 73.61273274262541 7.499966264946078
vertex -42.49980883469444 73.61273274262541 7.499966264946078
endloop
endfacet
facet normal 0 0 1
outer loop
vertex 7.000554334396066 12.125018689218626 7.499966264946078
vertex 13.99964411767615 0 7.499966264946078
vertex 84.99961766938888 0 7.499966264946078
endloop
endfacet
facet normal 0 0 1
outer loop
vertex 7.000554334396066 12.125018689218626 7.499966264946078
vertex 84.99961766938888 0 7.499966264946078
vertex 78.0005278861088 12.125018689218626 7.499966264946078
endloop
endfacet
facet normal 0 0 1
outer loop
vertex -78.0005278861088 12.125018689218626 7.499966264946078
vertex -84.99961766938888 0 7.499966264946078
vertex -13.99964411767615 0 7.499966264946078
endloop
endfacet
facet normal 0 0 1
outer loop
vertex -78.0005278861088 12.125018689218626 7.499966264946078
vertex -13.99964411767615 0 7.499966264946078
vertex -7.000554334396066 12.125018689218626 7.499966264946078
endloop
endfacet
facet normal 0 0 1
outer loop
vertex 13.99964411767615 0 7.499966264946078
vertex 7.000554334396066 -12.125018689218626 7.499966264946078
vertex 78.0005278861088 -12.125018689218626 7.499966264946078
endloop
endfacet
facet normal 0 0 1
outer loop
vertex 13.99964411767615 0 7.499966264946078
vertex 78.0005278861088 -12.125018689218626 7.499966264946078
vertex 84.99961766938888 0 7.499966264946078
endloop
endfacet
facet normal 0 0 1
outer loop
vertex -84.99961766938888 0 7.499966264946078
vertex -78.0005278861088 -12.125018689218626 7.499966264946078
vertex -7.000554334396066 -12.125018689218626 7.499966264946078
endloop
endfacet
facet normal 0 0 1
outer loop
vertex -84.99961766938888 0 7.499966264946078
vertex -7.000554334396066 -12.125018689218626 7.499966264946078
vertex -13.99964411767615 0 7.499966264946078
endloop
endfacet
facet normal 0 0 1
outer loop
vertex 0 -32.62141155739288 7.499966264946078
vertex 7.000554334396066 -12.125018689218626 7.499966264946078
vertex -7.000554334396066 -12.125018689218626 7.499966264946078
endloop
endfacet
facet normal 0 0 1
outer loop
vertex 0 -32.62141155739288 7.499966264946078
vertex -7.000554334396066 -12.125018689218626 7.499966264946078
vertex -78.0005278861088 -12.125018689218626 7.499966264946078
endloop
endfacet
facet normal 0 0 1
outer loop
vertex 0 -32.62141155739288 7.499966264946078
vertex -78.0005278861088 -12.125018689218626 7.499966264946078
vertex -42.49980883469444 -73.61273274262541 7.499966264946078
endloop
endfacet
facet normal 0 0 1
outer loop
vertex 0 -32.62141155739288 7.499966264946078
vertex -42.49980883469444 -73.61273274262541 7.499966264946078
vertex 42.49980883469444 -73.61273274262541 7.499966264946078
endloop
endfacet
facet normal 0 0 1
outer loop
vertex 0 -32.62141155739288 7.499966264946078
vertex 42.49980883469444 -73.61273274262541 7.499966264946078
vertex 78.0005278861088 -12.125018689218626 7.499966264946078
endloop
endfacet
facet normal 0 0 1
outer loop
vertex 0 -32.62141155739288 7.499966264946078
vertex 78.0005278861088 -12.125018689218626 7.499966264946078
vertex 7.000554334396066 -12.125018689218626 7.499966264946078
endloop
endfacet
facet normal 0.8500771242031491 0.4907016036437794 0.1912611280107041
outer loop
vertex 4.999977509964052 0 47.499786344658496
vertex 13.99964411767615 0 7.499966264946078
vertex 7.000554334396066 12.125018689218626 7.499966264946078
endloop
endfacet
facet normal 0.8500649772265817 0.4907206344693185 0.1912662892378075
outer loop
vertex 4.999977509964052 0 47.499786344658496
vertex 7.000554334396066 12.125018689218626 7.499966264946078
vertex 2.499988754982026 4.3306776499600765 47.499786344658496
endloop
endfacet
facet normal 0 0 1
outer loop
vertex 0 0 47.499786344658496
vertex -2.499988754982026 4.3306776499600765 47.499786344658496
vertex -4.999977509964052 0 47.499786344658496
endloop
endfacet
facet normal 0 0 1
outer loop
vertex 0 0 47.499786344658496
vertex -4.999977509964052 0 47.499786344658496
vertex -2.499988754982026 -4.3306776499600765 47.499786344658496
endloop
endfacet
facet normal 0 0 1
outer loop
vertex 0 0 47.499786344658496
vertex -2.499988754982026 -4.3306776499600765 47.499786344658496
vertex 2.499988754982026 -4.3306776499600765 47.499786344658496
endloop
endfacet
facet normal 0 0 1
outer loop
vertex 0 0 47.499786344658496
vertex 2.499988754982026 -4.3306776499600765 47.499786344658496
vertex 4.999977509964052 0 47.499786344658496
endloop
endfacet
facet normal 0 0 1
outer loop
vertex 0 0 47.499786344658496
vertex 4.999977509964052 0 47.499786344658496
vertex 2.499988754982026 4.3306776499600765 47.499786344658496
endloop
endfacet
facet normal 0 0 1
outer loop
vertex 0 0 47.499786344658496
vertex 2.499988754982026 4.3306776499600765 47.499786344658496
vertex -2.499988754982026 4.3306776499600765 47.499786344658496
endloop
endfacet
facet normal 0 0.9815389997167849 0.1912621029764473
outer loop
vertex -7.000554334396066 12.125018689218626 7.499966264946078
vertex -2.499988754982026 4.3306776499600765 47.499786344658496
vertex 2.499988754982026 4.3306776499600765 47.499786344658496
endloop
endfacet
facet normal 0 0.981538999716785 0.19126210297644736
outer loop
vertex -7.000554334396066 12.125018689218626 7.499966264946078
vertex 2.499988754982026 4.3306776499600765 47.499786344658496
vertex 7.000554334396066 12.125018689218626 7.499966264946078
endloop
endfacet
facet normal -0.8500766657699107 0.49070133901611346 0.19126384446963574
outer loop
vertex -2.499988754982026 4.3306776499600765 47.499786344658496
vertex -7.000554334396066 12.125018689218626 7.499966264946078
vertex -13.99964411767615 0 7.499966264946078
endloop
endfacet
facet normal -0.8500662607125807 0.49072137539275457 0.1912586838048773
outer loop
vertex -2.499988754982026 4.3306776499600765 47.499786344658496
vertex -13.99964411767615 0 7.499966264946078
vertex -4.999977509964052 0 47.499786344658496
endloop
endfacet
facet normal -0.8500771242031491 -0.4907016036437794 0.1912611280107041
outer loop
vertex -4.999977509964052 0 47.499786344658496
vertex -13.99964411767615 0 7.499966264946078
vertex -7.000554334396066 -12.125018689218626 7.499966264946078
endloop
endfacet
facet normal -0.8500649772265817 -0.4907206344693185 0.1912662892378075
outer loop
vertex -4.999977509964052 0 47.499786344658496
vertex -7.000554334396066 -12.125018689218626 7.499966264946078
vertex -2.499988754982026 -4.3306776499600765 47.499786344658496
endloop
endfacet
facet normal 0 -0.981538999716785 0.19126210297644733
outer loop
vertex 2.499988754982026 -4.3306776499600765 47.499786344658496
vertex -2.499988754982026 -4.3306776499600765 47.499786344658496
vertex -7.000554334396066 -12.125018689218626 7.499966264946078
endloop
endfacet
facet normal 0 -0.981538999716785 0.19126210297644736
outer loop
vertex 2.499988754982026 -4.3306776499600765 47.499786344658496
vertex -7.000554334396066 -12.125018689218626 7.499966264946078
vertex 7.000554334396066 -12.125018689218626 7.499966264946078
endloop
endfacet
facet normal 0.8500766657699107 -0.49070133901611346 0.19126384446963574
outer loop
vertex 2.499988754982026 -4.3306776499600765 47.499786344658496
vertex 7.000554334396066 -12.125018689218626 7.499966264946078
vertex 13.99964411767615 0 7.499966264946078
endloop
endfacet
facet normal 0.8500662607125807 -0.49072137539275457 0.1912586838048773
outer loop
vertex 2.499988754982026 -4.3306776499600765 47.499786344658496
vertex 13.99964411767615 0 7.499966264946078
vertex 4.999977509964052 0 47.499786344658496
endloop
endfacet
endsolid JSCAD
